<?xml version="1.0" encoding="utf-8"?>
<!-- Generator: Adobe Illustrator 26.2.1, SVG Export Plug-In . SVG Version: 6.00 Build 0)  -->
<svg version="1.1" id="Livello_1" xmlns="http://www.w3.org/2000/svg" xmlns:xlink="http://www.w3.org/1999/xlink" x="0px" y="0px"
	 viewBox="0 0 32 32" style="enable-background:new 0 0 32 32;" xml:space="preserve">
<style type="text/css">
	.st0{fill-rule:evenodd;clip-rule:evenodd;fill:#F24088;}
	.st1{fill:#FFFFFF;}
</style>
<g id="Page-1">
	<g id="Group">
		<path id="Rectangle" class="st0" d="M3,0h26c1.7,0,3,1.3,3,3v26c0,1.7-1.3,3-3,3H3c-1.7,0-3-1.3-3-3V3C0,1.3,1.3,0,3,0z"/>
		<g>
			<g>
				<path class="st1" d="M5,23.7l2.9-0.4h0.6l2.6,0.4V25H5V23.7z M5.1,7.6h3.6l0,1.6H8.3L5.1,8.8V7.6z M7.4,7.6h1.3L8.9,16V25H7.4
					V7.6z M7.5,7.6h3.4l5.6,14.2h-0.9l5.3-14.2h1.6L15.9,25h-1.7L7.5,7.6z M19,23.7l3.2-0.4h0.9l3.6,0.4V25H19V23.7z M21.1,17.1
					l0-9.5h3.4c-0.1,2.7-0.1,5.4-0.1,8.1v1.1c0,2.7,0,5.4,0.1,8.1H21C21.1,22.3,21.1,19.6,21.1,17.1z M22.8,7.6h3.9v1.2l-3.6,0.4
					h-0.3V7.6z"/>
			</g>
		</g>
	</g>
</g>
</svg>
