<?xml version="1.0" encoding="utf-8"?>
<!-- Generator: Adobe Illustrator 26.2.1, SVG Export Plug-In . SVG Version: 6.00 Build 0)  -->
<svg version="1.1" id="Livello_1" xmlns="http://www.w3.org/2000/svg" xmlns:xlink="http://www.w3.org/1999/xlink" x="0px" y="0px"
	 viewBox="0 0 569.2 388.6" style="enable-background:new 0 0 569.2 388.6;" xml:space="preserve">
<style type="text/css">
	.st0{fill:none;stroke:#CAAFED;stroke-miterlimit:10;stroke-dasharray:3;}
	.st1{fill:#FFFFFF;}
	.st2{fill:none;stroke:#CAAFED;stroke-miterlimit:10;stroke-dasharray:2.98,2.98;}
	.st3{opacity:0.54;fill:#B49CD4;enable-background:new    ;}
	.st4{fill:#737373;}
	.st5{fill:#9E9E9E;}
	.st6{fill:#96BDD6;}
	.st7{fill:#C7E9FF;}
	.st8{fill:#E9966D;}
	.st9{fill:#FEB785;}
	.st10{opacity:0.3;fill:#9E9E9E;enable-background:new    ;}
	.st11{fill:#939AF2;}
	.st12{fill:#E8D9F4;}
	.st13{fill:#D0BFDE;}
	.st14{fill:none;stroke:#000000;stroke-width:0.5;stroke-linecap:round;stroke-linejoin:round;}
	.st15{fill:#74474F;}
	.st16{fill:#FD8F83;}
	.st17{fill:none;stroke:#9E9E9E;stroke-width:8;stroke-miterlimit:10;}
	.st18{fill:none;stroke:#737373;stroke-width:8;stroke-miterlimit:10;}
	.st19{fill:#253D4D;}
	.st20{fill:#5C2C2C;}
	.st21{fill:#84A7BD;}
	.st22{fill:#E3F5FF;}
	.st23{fill:none;stroke:#000000;stroke-linecap:round;stroke-linejoin:round;}
	.st24{fill:none;stroke:#000000;stroke-width:2;stroke-linecap:round;stroke-linejoin:round;}
	.st25{fill:none;stroke:#9E9E9E;stroke-linecap:round;stroke-linejoin:round;}
	.st26{fill:#EDAFB8;}
	.st27{fill:#F7E1D7;}
	.st28{fill:#F6688E;}
	.st29{fill:#CB416B;}
	.st30{fill:#8A1829;}
	.st31{fill:#CAAFED;}
	.st32{fill:#8A9630;}
	.st33{fill:#4B521A;}
	.st34{fill:#7A852A;}
	.st35{fill:#EFEFEF;}
	.st36{fill:none;stroke:#E9966D;stroke-width:3;stroke-linecap:round;stroke-linejoin:round;}
</style>
<g>
	<g id="Background">
	</g>
	<g id="Objects">
		<polyline class="st0" points="284,171.4 389.9,79.2 455.3,141.7 		"/>
		<circle class="st1" cx="200.9" cy="61" r="45.5"/>
		<path class="st2" d="M246.4,61c0,25.1-20.4,45.5-45.5,45.5l0,0c-60.3-2.4-60.3-88.6,0-90.9C226,15.5,246.4,35.9,246.4,61L246.4,61
			z"/>
		<ellipse class="st3" cx="337.4" cy="360" rx="47.6" ry="11.4"/>
		<ellipse class="st3" cx="447.8" cy="359.5" rx="35.3" ry="11.4"/>
		<ellipse class="st3" cx="171.4" cy="360.6" rx="96.4" ry="11.4"/>
		<rect x="76.5" y="248.4" class="st4" width="10.9" height="14.2"/>
		<rect x="271.9" y="248.4" class="st4" width="10.9" height="14.2"/>
		<path class="st5" d="M83,219.6h189.7c7.7,0,14,6.3,14,14v1.6c0,7.7-6.3,14-14,14H83c-7.7,0-14-6.3-14-14v-1.6
			C69,225.9,75.2,219.6,83,219.6z"/>
		<path class="st6" d="M11.4,116.2L0,123.2c0,0,58.3,93.2,61.5,97.8c2.5,3.7,6.6,8.6,19.4,8.6h206v-14.4l-200.5-3L11.4,116.2z"/>
		<path class="st7" d="M11.4,116.2c0,0,8.9-8.6,16.2-0.3s17,18.2,31.4,44.2s24.1,37.1,24.1,37.1s10.2-0.3,31.8,3.3
			s93.5,2.2,93.5,2.2s44.2-5.8,69.1-0.8c9.6,1.9,9.4,8.9,9.4,13.3l-210.8-0.3L11.4,116.2z"/>
		<path class="st8" d="M183.1,136c0,0,11.8-6.4,14.4-7s8.3-0.9,11.1,7s11.4,44.4,15.4,55.3s4.3,9.4,11.5,12.2
			c3.1,1.2,10.7,2,11.8,3.9c0.7,1.2,1.1,2.6,1.2,4c0,0-30.6,0.4-32.7-0.8c-5.1-2.9-0.6-7.6-1.7-11.4c0,0-5.9-15.9-10.5-24.1
			S189,150.5,189,150.5l-2.6,2.4L183.1,136z"/>
		<path class="st9" d="M191.2,175.2c0,0,10.3-7.9,15.5-14.2c0,0,9.4,14.6,17.7,21s18.2,18.2,19.4,21.2s-1.1,6.6,2.2,9.8
			s35.6-0.2,35.6-0.2s2-2.4-2.2-4.6s-17.3-2.6-23-9.8s-30.8-48.7-36.9-55.3s-10.3-8.5-14.8-6.6s-18.8,13.3-18.8,13.3
			S189.6,166.6,191.2,175.2z"/>
		<path class="st10" d="M133.1,203.4c-1.7,6.4-2.8,12.9-3.4,19.4c-0.6,6.6-0.2,14.6,6.2,17.7c4.1,1.3,8.6,1,12.5-0.7
			c6.6-2.9,13.5-7.6,21.2-9s18.4-2.6,21.4-5s3.6-7.2,3-11.8l-42.8-8.9C151.2,205.1,134.5,198.7,133.1,203.4z"/>
		<path class="st11" d="M183.1,135.5c7.7,25.7,11.3,52.5,10.6,79.4c0,9.4-5.5,9.7-17.7,11.3s-21.3,6.9-28.8,10.2s-16.9,3.9-10.5-26
			s3.3-44.2,3.3-44.2c0.1-0.7,0.6-1.3,1.3-1.5c1.3-0.6,18.1-12.1,25.8-18.4S182.3,132.9,183.1,135.5z"/>
		<path class="st12" d="M77.6,145.7c9.8,2.7,24.4,1.6,24.4,1.6c3.3,3.3,5.4,12.8,5.4,12.8c12.6,8.4,32.8,7.2,32.8,7.2
			c2.1,12.5-2.2,36.4-2.2,36.4c-2.7,0-5.4-0.3-8-0.9c-4.6-1.1-12.7-1.6-20.2-2.9s-25.5-6-36.1-17.4s-18.1-28.9-18.1-28.9
			c5.3-4.1,6.4-6.8,6.4-6.8l15-1.1C77.2,145.6,77.4,145.6,77.6,145.7z"/>
		<path class="st13" d="M140.2,167.4c0,0-2.7,22.5-7.1,36c1.6,0.3,3.3,0.4,4.9,0.4C138,203.8,142.3,183.4,140.2,167.4z"/>
		<path class="st9" d="M84.7,162.9c-4.3,4.3-7.1,9.8-8.1,15.8c0,0,18.6,15.2,38.2,19.4c0,0,11.5,1.5,49.7-8c4.1-0.9,7.7-3.3,10-6.8
			c2.4-3.6,6-7.4,3.8-9.4c-1.9-1.7-10.6,6.4-10.6,6.4s1.9-4,1.1-5.1s-2.5,1.3-4.1,3.2c-1.2,1.4-2.3,3.5-5.2,4.3
			c-9.9,2.5-30,2.4-41.4,2.2C117.9,184.9,99.7,175.3,84.7,162.9z"/>
		<path class="st14" d="M107.4,160.2c0,0,0.3,1.2,0.6,3.2"/>
		<path class="st14" d="M84.7,162.9c0,0-5.5-6-12.2-8.5s-10.2,2.4-10.2,2.4"/>
		<path class="st14" d="M76.6,178.7c-3.8-2.9-7.5-6-10.9-9.3"/>
		<path class="st8" d="M84.7,162.9c-2.6,5.8-4.1,12.1-4.4,18.5l-3.6-2.7C76.6,178.7,77.2,170.6,84.7,162.9z"/>
		<path class="st15" d="M58.3,108.7c0,0-1.2-5-8.3-6.4c-10.1-1.8-23,5.1-22.4,13.6c0,0,14.6,14.2,30.3,42.1c0,0,7.3-3,8.4-10.1
			c-1.4-4.6-7.6-11.4-7.6-11.4L58.3,108.7z"/>
		<path class="st9" d="M55.2,105.2c2.9,1.6,3.5,3.9,5.8,6.5c1.6,1.8,3.6,3.2,5.8,4.1l-0.9,2.7c0.3,0.7,0.9,1.3,1.5,1.8
			c0.6,0,1.3,0.3,1.3,1.6c-0.1,0.4,0.2,0.8,0.5,0.9c0.1,0.1,1.2-0.3,1.4,1.3c0.2,2.2,1.3,2.8,1.5,3.9c0.7,3-1.8,6-8.1,7.7
			c0,0,5.5,7.2,13.4,9.8c-0.9,3.6-8.4,4.2-11.3,3.1c-0.5-3.6-4.7-6.2-11.7-13.7c0,0-6.5,2.5-8.8-4.3c-1.8-5.3,2.5-5.7,4.6-4.4
			c0,0,1.9-2.5-1.1-6.5S51.7,103.3,55.2,105.2z"/>
		<circle class="st16" cx="59.2" cy="121.9" r="1.8"/>
		<path class="st14" d="M47.1,128.7c1.2-0.6,2.6-0.2,3.4,0.9c1.5,1.9,0.9,3.2,0.3,3.6"/>
		<path class="st14" d="M50.7,129.9c-0.8,0-1.5,0.4-2,1"/>
		<path class="st8" d="M64,135.9c-2.8,0.5-5.6,0.6-8.5,0.3c3.5,1.8,7.4,2.8,11.4,2.8C65.9,138,64.9,136.9,64,135.9z"/>
		<path class="st15" d="M59.6,114.1c-0.6,1.2-1.8,2-3.1,2c-0.1,0-0.1,0.1-0.1,0.2c0,0,0,0.1,0.1,0.1c1.2,0.2,3.2,0.2,3.4-2.2
			c0-0.1-0.1-0.1-0.1-0.1C59.6,114,59.6,114,59.6,114.1z"/>
		<path class="st15" d="M56.4,110.4c-1.7,1.2-2.9,2.9-3.4,4.9c-0.2,0.6-0.5,0.3-0.6,0c0.2-2.3,1.3-4.4,3.1-5.8c0,0,0.5-0.4,0.8,0
			S56.8,110.2,56.4,110.4z"/>
		<path class="st14" d="M63.2,118.2c0,0-0.1,1,0.6,1.3c0.7,0.3,1.6-0.4,1.6-0.4"/>
		<path class="st15" d="M55.7,105.2c0.9-0.8-4.5,4-4.8,9.1c-0.3,5,1.2,9.2-0.8,12l-4.9-7.7c0,0,1.2-9.5,4.3-12.7
			C51.1,104,53.8,103.7,55.7,105.2z"/>
		<circle class="st4" cx="80.9" cy="238.9" r="2.8"/>
		<circle class="st4" cx="277.1" cy="238.9" r="2.8"/>
		<path class="st5" d="M282.2,276.7H75.9c-2.3,0-4.2-1.9-4.2-4.2l0,0v-11.2c0,0,1.9,0,4.2,0h210.5v11.1
			C286.4,274.8,284.5,276.7,282.2,276.7C282.2,276.7,282.2,276.7,282.2,276.7z"/>
		<path class="st5" d="M246.5,348.3H112.1c-2.3,0-4.2-1.9-4.2-4.2V333h142.8v11.1C250.7,346.5,248.8,348.3,246.5,348.3z"/>
		<rect x="172.4" y="274.9" class="st5" width="13.6" height="58.9"/>
		
			<ellipse transform="matrix(7.088897e-02 -0.9975 0.9975 7.088897e-02 -237.9377 460.7325)" class="st5" cx="128.4" cy="358.1" rx="7.7" ry="7.7"/>
		<line class="st17" x1="126.8" y1="348.3" x2="126.8" y2="350.6"/>
		
			<ellipse transform="matrix(7.088897e-02 -0.9975 0.9975 7.088897e-02 -240.5021 457.9794)" class="st4" cx="125.6" cy="358.1" rx="7.7" ry="7.7"/>
		<line class="st18" x1="125.6" y1="348.3" x2="125.6" y2="350.6"/>
		<circle class="st5" cx="235.1" cy="358.1" r="7.7"/>
		<line class="st17" x1="233.6" y1="348.3" x2="233.6" y2="350.6"/>
		<circle class="st4" cx="232.3" cy="358.1" r="7.7"/>
		<line class="st18" x1="232.4" y1="348.3" x2="232.4" y2="350.6"/>
		<path class="st19" d="M330.8,335c0,0,3,1.5,2.7,5.9s-2.3,7.8-2.4,19.9h-1.6l0.1-14.1c0,0-3.3,6.4-4.6,9.7s-1.9,3.8-4.4,4.1h-15.3
			c0,0-0.1-3.5,2.8-4.5c1.6-0.5,3.3-0.9,5-1L330.8,335z"/>
		<path class="st19" d="M364.5,336.7c0.4,1.9,0.7,3.8,0.8,5.7c0.2,3,0.7,16.1-0.5,18.2c-1.6,2.7-7.2,3.9-11.7,0.9s0.3-12.2,0.9-17.5
			s2-6.3,3.3-7.2S364.5,336.7,364.5,336.7z"/>
		<path class="st9" d="M369,253.1c-0.7,2.7-1.2,5.5-1.5,8.4c-0.2,3.5,3.5,18.8,2.7,27.7s-5,39.2-5.8,47.5s0.6,16.9-1.5,18.1
			s-9.6,2.1-9.2-2.9s2.7-10.9,2.5-14.8s-0.6-43.8-1.7-52.8c-1.5-12.5-3.3-15.9-4.2-23.8c-0.5-4.6-0.6-7.3-0.6-7.3L369,253.1z"/>
		<path class="st9" d="M326.1,251.8c-0.3,2.7-0.4,5.4-0.3,8.1c0.1,3.8,0.8,7.2,0.6,14.7c0,20.2-1.6,40.4-4.7,60.4
			c-0.9,7.3-3.9,14.3-8.6,20c0,0,5.6,1.6,8.3-2.8s9.1-16.1,9.1-16.1s2.7-17.2,7.7-31.8s4.2-30.7,4.2-37.2s2-12.5,2.2-15.2
			L326.1,251.8z"/>
		<path class="st8" d="M326,252.5l18.4,0.2c-0.2,1.3-0.6,3-1,5.1c-5.9-0.1-11.8-0.7-17.6-1.6C325.9,254.7,326,253.3,326,252.5z"/>
		<path class="st8" d="M368.1,257.4c0,0-8,0.6-17.9,0.6c-0.3-3-0.3-4.7-0.3-4.7l19.1-0.2c0,0-0.4,1.6-0.8,3.6L368.1,257.4z"/>
		<path class="st19" d="M364.7,170.9c0,0-23.6,5.8-39.6-0.6c0,0-4.6,51.1-2.1,82.2c0,0,25.9,3.5,47.8,0.6c3-14.3,4-29,2.9-43.6
			C371.8,186.4,364.7,170.9,364.7,170.9z"/>
		<path class="st20" d="M347.4,58.4c5.7-2.6,10.4-0.5,14.4,3.6s12.4,19.8,6.6,31s21.5,12.6,8.9,34s-53.2,11.9-56.2,1.5
			s9.1-12.3,8.5-19.5s-10.3-14.8-7.4-22.8s7.7-10.1,9.5-16.2C334.2,61.1,340.2,54.2,347.4,58.4z"/>
		<path class="st6" d="M356.1,118.2c0,0-8.6,21.6-7.1,54.8c0,0-10.5,0.6-16.3-0.5c0,0,1.6-42.9,8.4-57.4
			C341.1,115.1,354,115.1,356.1,118.2z"/>
		<path class="st21" d="M356.1,118.2c-1.5,4.8-3.8,9.3-6.9,13.4c-0.1,0.2-0.3,0.2-0.5,0.1c-0.1,0-0.1-0.1-0.1-0.2l-2.2-7
			c-0.1-0.2-0.3-0.3-0.5-0.2c0,0-0.1,0-0.1,0.1l-5.5,5c-0.1,0.1-0.4,0.1-0.5,0c-0.1-0.1-0.1-0.1-0.1-0.2c0-2.4,0-9.9,1.3-13.6
			c0.1-0.2,0.2-0.3,0.4-0.2L356.1,118.2"/>
		<path class="st6" d="M355.4,111.4c1.2,0.6,1.8,1.9,1.7,3.2c-0.7,3.9-2.4,7.5-7.8,14.3l-2.2-7.5l-6.1,5.2c0,0-0.5-7.9,0.2-11.5
			s2.5-3.6,3.6-3.6L355.4,111.4z"/>
		<path class="st22" d="M356.9,113c0,0,17.3,3.7,25.9,17.2s13.9,23.9,13.9,23.9s0.4,11.1-18.6,27.9l-8.1-7.7c0,0,9-8.5,12.2-18.6
			c0,0-8.1-11.1-12.4-13.7c0,0-4.5,20.9-2.1,32.8s8.1,19.6,8.8,33.9s0.2,30.5,0.2,30.5s-16.2,2.1-27.3,2.3c0,0-1.1-44.8-0.8-63.6
			s-0.6-34.8,4.1-48.9C356.9,116.3,356.9,113,356.9,113z"/>
		<path class="st22" d="M341.5,113.7c-8,2.3-15.5,6-22.2,11c-11.1,8.5-13.9,10-13.9,10l-0.4-21.5l-12.6,0.2c0,0-0.8,26.2,0.6,30.3
			s6.2,6.6,12.4,5.5s17.3-6.6,17.3-6.6s1.5,26.5-0.6,47.4s-3.2,36.3-3,51.6c0,0,10.2,0.2,14.1,0.4c0,0-0.6-34.3-0.8-48.9
			s0-32.4,2.6-51.6C337.6,123.6,341.5,113.7,341.5,113.7z"/>
		<polygon class="st6" points="304.2,113.2 304.2,108.2 293.9,108.3 293.7,113.3 		"/>
		<polygon class="st6" points="370,174.3 366.3,178.2 372.7,185.3 377.2,181.1 		"/>
		<path class="st9" d="M295.5,108.3c0.1-1-0.1-2-0.5-3c-0.6-1.7-0.8-10.5-0.5-12.5s2.4-6.7,7-7.2s3.3,4.7,3.3,8s0.3,6.3,1.9,4.8
			s3.3-2,3.9-0.5s-1.1,2-2.7,3.9s-1.4,2.5-3.3,3.8s-1.7,2.6-1.7,2.6L295.5,108.3z"/>
		<path class="st9" d="M366.7,178.5c0,0-7.4-1-11.9,2.6c-0.8,0.6-1.4,1.4-1.8,2.2c-0.3,1.1,1.4,6.6,4.8,6.5c2-0.1,3.4-2.7,5.8-3
			c0,0-2.2,2-2.5,3.4s1.1,1.9,2.7,0.3s2.2-2.8,3.8-3.1s3.9,0,5.2-2.2L366.7,178.5z"/>
		<path class="st9" d="M354.9,104.8c0,0,0,5.8,0.2,8.4c-1.6,2.9-4.1,5.1-7.2,6.3c0,0-3-2.5-3.4-5.5l-0.5-6.6L354.9,104.8z"/>
		<path class="st9" d="M362.6,94.5c0,0-1.4,11-14.8,13.8c-9.9,2.1-15.3-10.6-14.4-18.6c0,0,0-3.8-0.2-6.6s1.7-6.4,5.5-9.5
			c2.6-2,5.4-3.5,8.5-4.6c0,0,6.1,7.6,11.2,11.8c0.8,2.2,1.2,4.6,0.9,7c-0.4,4,3.8,0.4,4.4-1.3c0.7-1.3,2.3-1.8,3.6-1.1
			c0.7,0.3,1.1,1,1.3,1.7C369.4,89.9,367.7,94.8,362.6,94.5z"/>
		<path class="st8" d="M354.9,105.7c0,0-1.7,5.5-10.5,7.5l-0.4-4.5C344.1,108.7,348.1,109.6,354.9,105.7z"/>
		<circle class="st16" cx="355" cy="94.4" r="2.1"/>
		<circle class="st16" cx="337.5" cy="94.3" r="2.1"/>
		<path class="st14" d="M366.8,87.4c-1.2-0.2-2.4,0.6-2.8,1.8c-0.8,2.1,0.1,3.1,0.8,3.3"/>
		<path class="st14" d="M363.9,89.5c0.7-0.2,1.5,0,2.1,0.3"/>
		<path class="st20" d="M350.2,81.2c2.1-0.3,4.2,0.1,6,1.2c0.5,0.3,0.6-0.1,0.5-0.4c-1.7-1.6-4.1-2.3-6.4-2c0,0-0.6,0-0.6,0.6
			S349.8,81.3,350.2,81.2z"/>
		<path class="st20" d="M341.7,81.2c-2.1-0.3-4.2,0.1-6,1.2c-0.5,0.3-0.6-0.1-0.5-0.4c1.7-1.6,4-2.4,6.4-2.1c0,0,0.6,0,0.6,0.6
			S342.1,81.3,341.7,81.2z"/>
		<path class="st1" d="M350.8,97.4c-3.1,0.2-6.3,0.2-9.4-0.1c0,0,0,3.7,4.5,4.1S350.8,97.4,350.8,97.4z"/>
		<path d="M345.7,85c0.1,2.7-0.5,5.4-1.7,7.9v-0.4c0.7,0.8,1.6,1.4,2.7,1.6c0.1,0.1,0.2,0.2,0.1,0.3c0,0.1-0.1,0.2-0.2,0.2
			c-1.2-0.2-2.3-0.7-3.2-1.6c-0.1-0.1-0.1-0.3,0-0.4c0.6-1.2,1.1-2.4,1.4-3.7c0.3-1.3,0.5-2.6,0.5-3.9c0-0.1,0.2-0.2,0.3-0.2
			C345.7,84.9,345.8,84.9,345.7,85L345.7,85z"/>
		<path class="st23" d="M367.4,85.1c0,0-0.4-1-2.1-1.1c-5.5-0.5-11.1-0.3-16.6,0.6c0,0-0.8,7.1,5.3,7.1c4,0,5.9-3,5.6-7.7"/>
		<path class="st23" d="M343.1,84.7c-7.7-0.9-10.7-0.6-10.7-0.6s-0.6,7.6,5.2,7.6C341.3,91.7,343.3,89.1,343.1,84.7"/>
		<path class="st23" d="M348.5,85.8c-1.5-1-3.5-1-5.1,0"/>
		<circle cx="353.5" cy="86.6" r="1.4"/>
		<circle cx="337.9" cy="86.7" r="1.4"/>
		<path class="st8" d="M348,103.1c-0.8-0.9-2.2-1-3.2-0.2c-0.1,0.1-0.1,0.1-0.2,0.2C345.7,103.4,346.9,103.4,348,103.1z"/>
		<path class="st14" d="M358.2,113.4c1.4,4.4,2.5,8.9,3.2,13.5l-2.8-0.6l1.9,5.4c0,0-8.7,7.2-10.9,24.4"/>
		<path class="st14" d="M339.9,114.3c0,0-5.8,6.6-7.7,10.5l2-0.1l-3.3,5.3c0,0,2,17.4,2.4,23.3"/>
		<path class="st14" d="M369.8,142c-1.3-0.8-2.7-1.5-4.1-2.1"/>
		<path class="st14" d="M322.8,142.5c0,0,2.8-1.7,4.6-2.6"/>
		<path class="st24" d="M356.2,111.7c0,0,8.9,2.8,4.3,22.9c-1.7,7.5-4.2,15.8-4.2,15.8"/>
		<circle class="st5" cx="355.3" cy="153.4" r="3.8"/>
		<circle class="st4" cx="355.3" cy="153.4" r="2.1"/>
		<path class="st24" d="M343.2,111.9c-3.7,1.3-6.7,4-8.4,7.6"/>
		<path class="st25" d="M337.1,124.8c-1.3,4.7-4.4,8.7-8.7,11.1c-1,0.4-2.2,0.5-3.3,0.2"/>
		<path class="st25" d="M329.4,121.5c-2.4,4-3.1,8.7-2.2,13.2c0,0,0.4,2.3,2.1,3.1"/>
		<path class="st24" d="M336.8,125.5c0.4-1,0.6-2.2,0.4-3.3c-0.7-2.9-5.6-4.6-8,0"/>
		<path class="st1" d="M323.3,134.8c-0.5,0-0.5,0.9-0.4,1.4s2,0.9,2.4,0.2s0.1-1-0.5-1.2C324.3,135,323.8,134.8,323.3,134.8z"/>
		<path class="st1" d="M331.1,139.6c0.5,0.1,0.7-0.8,0.7-1.3s-1.8-1.3-2.3-0.7s-0.3,1,0.3,1.3C330.2,139.2,330.7,139.4,331.1,139.6z
			"/>
		<path class="st26" d="M224.9,59.9c-1.8-0.2-3.6,0-5.3,0.6c-3.2,1.1-6.4,0.4-7.4-1.6c0,0-0.8,1.9,5.3,5c1.2,0.6,1.9,3.4,4.8,4.2
			c5.4,0.5,7.6-5.1,3.7-7.9C225.7,60,225.3,59.9,224.9,59.9z"/>
		<circle class="st27" cx="223.4" cy="63.4" r="3.7"/>
		<path class="st26" d="M177.9,60.3c1.8-0.3,3.6-0.1,5.4,0.5c3.2,1,6.4,0.3,7.3-1.7c0,0,0.9,1.9-5.2,5.1c-1.1,0.6-1.8,3.5-4.7,4.2
			c-5.4,0.6-7.7-5-3.9-7.8C177.2,60.5,177.5,60.4,177.9,60.3z"/>
		<circle class="st27" cx="179.5" cy="63.9" r="3.7"/>
		<path class="st28" d="M201.3,83.4c-4.5-0.9-2-5.9-3.8-12.1c-1.2-4.2-5.4-7.3-6.5-8.8s-0.8-3-0.5-4.8s-0.3-2.3-0.3-2.3
			s-4.9-5.6-9.4-3c-2.7,1.5-2.7,5-2.1,6.4c0.8,1.9,2.9,0.8,3.2,1.8c0.1,0.4-2-0.5-2.2,0.4s1.1,1.6,0.3,1.9s-1.3-1.5-1.8-1
			s0,2.4-0.6,2.3s-0.2-1.7-0.7-1.8s-1.1,0.5-1.4,0.9s-0.5,0.1-0.5,0.1v-0.1c-0.5-1,1.2-1.7,1.6-2.9s-2.2-9.5,4.5-11.1
			c7.4-1.8,10.2,4.2,13.8,2.5c2.1-0.9,4.3-1.4,6.6-1.3h0.2c2.2,0,4.3,0.4,6.4,1.2c3.6,1.6,6.3-4.4,13.7-2.7c6.7,1.5,4.4,9.8,4.7,11
			s2.1,1.8,1.6,2.9v0.1c0,0-0.1,0.4-0.5-0.1s-1-1-1.4-0.9s0,1.7-0.6,1.8s-0.2-1.8-0.7-2.2s-0.9,1.3-1.8,1.1s0.5-1.1,0.3-1.9
			s-2.4,0.1-2.2-0.3c0.3-1.1,2.4,0,3.1-1.9c0.6-1.4,0.5-4.9-2.2-6.3c-4.6-2.4-9.4,3.2-9.4,3.2s-0.5,0.5-0.2,2.3s0.6,3.3-0.4,4.8
			s-5.1,4.7-6.3,8.9c-1.6,6.2,1,11.2-3.6,12.2L201.3,83.4z"/>
		<path class="st29" d="M201.4,56.2c0,0,4.5-4.3,7.6-1c5.4,5.7-5.6,11-6.4,14.7c0,0-0.2,0.8,1.1,2s1.1,3.3,0.4,5.1
			c-0.7,1.9-1.1,4-1,6c-0.4,0.2-0.8,0.4-1.2,0.4c-0.2,0-0.3,0-0.5,0c-0.4,0-0.8-0.1-1.2-0.4c0-2.1-0.4-4.1-1.1-6
			c-0.8-1.8-1.1-3.9,0.3-5.1s1.1-2,1.1-2c-0.8-3.7-11.9-8.8-6.7-14.6C196.8,52,201.4,56.2,201.4,56.2"/>
		<path class="st30" d="M202.5,73.5c-1,0.1-2.1,0.1-3.1-0.2c-0.1,0-0.2-0.2-0.2-0.4c0,0,0,0,0,0c0-0.2,0.2-0.2,0.4-0.2
			c1.2,0.3,2.5,0.3,3.7,0c0.1-0.1,0.3,0,0.4,0.1c0.1,0.1,0,0.3-0.1,0.4c0,0-0.1,0-0.1,0C203.1,73.4,202.8,73.4,202.5,73.5z"/>
		<path class="st30" d="M202.5,75.5c-1,0.1-2.1,0.1-3.1-0.2c-0.1-0.1-0.2-0.2-0.2-0.4c0.1-0.2,0.2-0.2,0.4-0.2c0,0,0,0,0,0
			c1.2,0.3,2.5,0.3,3.7,0c0.1,0,0.3,0,0.3,0.2c0,0,0,0,0,0c0,0.2,0,0.3-0.2,0.3C203.2,75.4,202.8,75.4,202.5,75.5z"/>
		<path class="st30" d="M202.5,77.4c-1,0.1-2.1,0.1-3.1-0.2c-0.1,0-0.2-0.2-0.2-0.4c0,0,0,0,0,0c0.1-0.1,0.2-0.2,0.4-0.2
			c1.2,0.3,2.5,0.3,3.7,0c0.2-0.1,0.3,0,0.4,0.2s0,0.3-0.2,0.4c0,0,0,0-0.1,0C203.2,77.3,202.9,77.4,202.5,77.4z"/>
		<path class="st30" d="M202.1,79.5c-0.7,0.1-1.4,0-2-0.2c-0.1-0.1-0.2-0.2-0.1-0.4c0.1-0.1,0.2-0.2,0.4-0.1c0.8,0.3,1.8,0.3,2.6,0
			c0.2,0,0.3,0.1,0.3,0.2c0,0.1,0,0.3-0.2,0.3C202.8,79.4,202.5,79.5,202.1,79.5z"/>
		<path class="st27" d="M209,55.1c-3-3.2-7.2,0.7-7.6,1c-0.4-0.3-4.7-4.1-7.6-0.9c-4.7,5.2,3.7,9.8,6.1,13.4
			c-0.8-1.6-1.9-3.1-3.1-4.4c-1.9-2-4.3-5.3-2.6-7.6s4.6-2.1,7.3,0.6c2.8-2.7,5.8-2.9,7.4-0.6s-0.8,5.6-2.7,7.6
			c-1.3,1.3-2.3,2.9-3.1,4.5C205.2,65.2,213.9,60.3,209,55.1z"/>
		<line class="st0" x1="227.6" y1="98.8" x2="280.6" y2="169.9"/>
		<circle class="st31" cx="282.6" cy="173.4" r="6.6"/>
		<circle class="st31" cx="390" cy="80.7" r="6.6"/>
		<path class="st32" d="M447.7,270.9c1.9-2.9,4.6-1,4.5,1.2c0.4-6.7,0-12.1,4.1-17.3c3-1.6,4,2.9,3.6,4.9c0.8-4.1,1.7-8.3,3.8-12
			s5.4-6.8,9.5-7.7c2.3-0.5,5.4,0.2,5.9,2.5c0.1,0.8,0.1,1.6-0.1,2.3c-1.3,5.8-4.2,11.2-8.3,15.5c2-0.9,4.7-1.7,6.3-0.1
			c1,1.2,1.2,2.9,0.5,4.2c-0.7,1.3-1.7,2.5-3,3.4c-3,2.3-6.3,4.2-9.8,5.6c1.2-0.2,2.7-0.8,3.8-0.5s2.1,0.9,2,2.1
			c-0.1,4.2-6.3,6.5-8.2,7.9c1.7-0.2,3.3-0.6,3.6,0.9c0.2,3-3.3,5.5-5.1,6.8c-1.5,1-4,3.3-6.2,4.4c-3.7,1.9-7.7,4.9-8.9,0.1
			c-0.9-2.5-1.3-5.1-1.3-7.7C444.6,282,445.5,274.8,447.7,270.9z"/>
		<path class="st33" d="M447.3,297.1c16.5-43.4,29-57.3,29.1-57.5l0.5,0.5c-0.1,0.1-12.6,14-29,57.2L447.3,297.1z"/>
		<path class="st33" d="M460,268.3l-0.1-0.7c0.1,0,6.9-1.1,11.5-4.4l0.4,0.6C467.1,267.2,460.3,268.3,460,268.3z"/>
		<path class="st33" d="M456.7,274.4c-1.6-5.7-1.3-14.1-1.3-14.1h0.7c0,0.1-0.3,8.3,1.3,13.9L456.7,274.4z"/>
		<path class="st33" d="M453.5,283.9l-0.6-0.4c3.2-4.4,12.5-7.6,12.9-7.7l0.2,0.7C466,276.5,456.6,279.7,453.5,283.9z"/>
		<path class="st33" d="M450.3,289.5c-3.2-6-1.8-13.4-1.8-13.7l0.7,0.1c0,0.1-1.4,7.5,1.7,13.3L450.3,289.5z"/>
		<path class="st34" d="M428.6,263.2c0.8-5,5.4-4.1,6.6-1.2c-3.5-9-7.4-15.9-5.2-25.3c2.9-3.9,7.1,1.3,7.7,4.2
			c-1.5-5.9-2.8-12-2.3-18s3-12.2,7.8-15.9c2.8-2.1,7.2-3.1,9.4-0.3c0.6,0.9,1.1,2,1.2,3.1c1.8,8.5,1.2,17.3-1.5,25.5
			c2.1-2.4,5.1-5,8.2-4c2.1,0.7,3.3,3.1,3.3,5.3c-0.1,2.2-0.8,4.4-1.9,6.2c-2.5,4.8-5.7,9.3-9.5,13.2c1.4-1,3.1-2.6,4.8-3
			s3.3,0,4,1.6c2.4,5.5-4.3,12.5-6.1,15.4c2.1-1.3,4-2.8,5.3-1c2.1,3.8-1,9.2-2.6,12c-1.3,2.3-3.3,6.8-5.5,9.6
			c-3.7,4.7-7.2,11.1-11.6,5.6c-1.4-1.7-4.4-4.5-6.4-9.3C431.3,279.8,428.1,269.7,428.6,263.2z"/>
		<path class="st33" d="M444,298c-4.7-67.3,3.3-93.2,3.4-93.5l1,0.3c-0.1,0.2-8.1,26.1-3.4,93.1L444,298z"/>
		<path class="st33" d="M443.3,252.4l-0.6-0.9c0.1-0.1,8.5-5.6,12.5-12.8l0.9,0.5C451.9,246.6,443.6,252.2,443.3,252.4z"/>
		<path class="st33" d="M442.6,262.3c-5.6-6.5-10.3-17.7-10.3-17.9l1-0.4c0,0.1,4.7,11.2,10.1,17.6L442.6,262.3z"/>
		<path class="st33" d="M444.1,276.9l-1-0.2c1.6-7.8,11.9-17.6,12.3-18l0.7,0.8C456.1,259.5,445.7,269.4,444.1,276.9z"/>
		<path class="st33" d="M443.4,286.3c-7.9-6-10.6-16.6-10.7-17l1-0.2c0,0.1,2.8,10.7,10.3,16.5L443.4,286.3z"/>
		<path class="st32" d="M424.3,278c-1.2-4,2.5-5,4.5-3.2c-5.8-5.5-11.2-9.1-12.9-17c0.8-3.9,5.7-1.5,7.2,0.4
			c-3.2-3.8-6.4-7.9-8.2-12.6s-2.2-10.1,0.1-14.6c1.3-2.6,4.3-4.9,6.8-3.6c0.8,0.5,1.5,1.1,2,1.9c4.3,5.6,7.1,12.4,7.9,19.4
			c0.7-2.6,2-5.6,4.6-5.9c1.9-0.1,3.6,1,4.3,2.7c0.7,1.7,1,3.5,0.8,5.3c-0.1,4.5-0.9,8.9-2.3,13.2c0.7-1.2,1.3-3,2.5-3.9
			s2.4-1.2,3.5-0.3c3.8,3.2,1.2,10.8,1,13.5c1.1-1.7,2-3.5,3.6-2.6c2.9,2.1,2.5,7.2,2.3,9.9c-0.2,2.1,0,6.2-0.6,9.1
			c-1.1,4.8-1.4,10.8-6.6,8.3c-2.9-1.1-5.7-2.6-8-4.7C432.2,289.3,426.3,283,424.3,278z"/>
		<path class="st33" d="M448.2,298.3c-27.5-48.2-30.8-70.3-30.8-70.5l0.9-0.1c0,0.2,3.3,22.2,30.7,70.2L448.2,298.3z"/>
		<path class="st33" d="M431.4,264.8l-0.7-0.4c0-0.1,4.2-7.2,4.6-13.9l0.9,0.1C435.7,257.4,431.5,264.5,431.4,264.8z"/>
		<path class="st33" d="M434.4,272.4c-6.5-2.8-13.9-9.5-14-9.5l0.6-0.6c0.1,0.1,7.5,6.6,13.8,9.4L434.4,272.4z"/>
		<path class="st33" d="M440.7,282.6l-0.8,0.2c-1.6-6.4,2.5-17.3,2.7-17.8l0.8,0.3C443.4,265.5,439.2,276.5,440.7,282.6z"/>
		<path class="st33" d="M443.5,289.8c-8-1.6-13.8-8.5-14-8.8l0.7-0.5c0,0.1,5.9,7,13.5,8.5L443.5,289.8z"/>
		<polygon class="st35" points="427.4,295.2 469,295.2 458.3,332.5 437.3,332.5 		"/>
		<line class="st36" x1="433.2" y1="319.4" x2="422.7" y2="361.5"/>
		<line class="st36" x1="462" y1="319.4" x2="472.5" y2="361.5"/>
		<line class="st36" x1="448.1" y1="315" x2="448.1" y2="364.2"/>
	</g>
</g>
</svg>
