<?xml version="1.0" encoding="utf-8"?>
<!-- Generator: Adobe Illustrator 26.2.1, SVG Export Plug-In . SVG Version: 6.00 Build 0)  -->
<svg version="1.1" id="Livello_1" xmlns="http://www.w3.org/2000/svg" xmlns:xlink="http://www.w3.org/1999/xlink" x="0px" y="0px"
	 viewBox="0 0 500 500" style="enable-background:new 0 0 500 500;" xml:space="preserve">
<style type="text/css">
	.st0{fill:#F5F5F5;}
	.st1{fill:#E0E0E0;}
	.st2{fill:#BA68C8;}
	.st3{opacity:0.4;fill:#FFFFFF;enable-background:new    ;}
	.st4{opacity:0.3;fill:#FFFFFF;enable-background:new    ;}
	.st5{opacity:0.1;enable-background:new    ;}
	.st6{fill:#F0F0F0;}
	.st7{opacity:0.3;fill:#BA68C8;enable-background:new    ;}
	.st8{fill:#FAFAFA;}
	.st9{fill:#EBEBEB;}
	.st10{fill:#FFFFFF;}
	.st11{fill:#E6E6E6;}
	.st12{opacity:0.6;fill:#FFFFFF;enable-background:new    ;}
	.st13{opacity:0.8;fill:#FFFFFF;enable-background:new    ;}
	.st14{opacity:0.3;}
	.st15{fill:#263238;}
	.st16{fill:#37474F;}
	.st17{fill:#455A64;}
	.st18{opacity:0.2;enable-background:new    ;}
	.st19{opacity:0.1;fill:#FFFFFF;enable-background:new    ;}
	.st20{opacity:0.35;enable-background:new    ;}
	.st21{opacity:5.000000e-02;fill:#FFFFFF;enable-background:new    ;}
	.st22{fill:#F0997A;}
	.st23{opacity:0.45;enable-background:new    ;}
	.st24{fill:#FFBDA7;}
	.st25{fill:#9E6767;}
	.st26{opacity:0.25;enable-background:new    ;}
	.st27{fill:#DB9283;}
	.st28{fill:#874C4C;}
	.st29{fill:#F28F8F;}
	.st30{opacity:0.1;}
	.st31{opacity:0.15;enable-background:new    ;}
</style>
<g id="Floor">
	<ellipse id="Floor_1_" class="st0" cx="250" cy="367.1" rx="240.2" ry="118.7"/>
</g>
<g id="Shadows">
	<path id="Shadow_14_" class="st1" d="M284.3,273.6c11.5,6.6,11.5,17.4,0,24s-30.1,6.6-41.5,0c-11.5-6.6-11.5-17.4,0-24
		C254.2,267,272.8,267,284.3,273.6z"/>
	<path id="Shadow_12_" class="st1" d="M200,284.4L28,383.8c-1.2,0.7-1.2,1.8,0,2.5l49.2,28.4c1.2,0.7,3.2,0.7,4.4,0l172-99.4
		c1.2-0.7,1.2-1.8,0-2.6l-49.2-28.4C203.2,283.7,201.2,283.7,200,284.4z"/>
	<ellipse id="Shadow_15_" class="st1" cx="184.1" cy="420.1" rx="52.3" ry="30.2"/>
	<polygon id="Shadow" class="st1" points="342.5,448.2 464.4,377.9 383.1,331 261.3,401.3 	"/>
</g>
<g id="Curtains_1_">
	<g id="Curtains">
		<g>
			<g>
				<path class="st1" d="M319.6,44.7v258.6l-12.4-7.2V53.4c0-1,1.9-2.7,4.8-4.4L319.6,44.7z"/>
				<g>
					<path class="st2" d="M332.2,310.6l-25-14.4V53.5c0,0.2,0.1,0.4,0.3,0.5c1.1,0.6,4.9-0.5,8.5-2.6l7.3-4.2
						c3.6-2.1,7.4-3.2,8.5-2.6c0.2,0.1,0.3,0.3,0.3,0.5v265.5H332.2z"/>
					<path class="st3" d="M332.2,310.6l-25-14.4V53.5c0,0.2,0.1,0.4,0.3,0.5c1.1,0.6,4.9-0.5,8.5-2.6l7.3-4.2
						c3.6-2.1,7.4-3.2,8.5-2.6c0.2,0.1,0.3,0.3,0.3,0.5v265.5H332.2z"/>
					<path class="st4" d="M311.7,53.5c-2,0.7-3.6,1-4.2,0.6c-0.2-0.1-0.3-0.3-0.3-0.5v242.7l4.6,2.6V53.5H311.7z"/>
					<path class="st5" d="M331.9,44.7c-1.1-0.7-4.9,0.5-8.5,2.6l-1.6,0.9v256.4l10.5,6.1V45.2C332.2,45,332.1,44.8,331.9,44.7z"/>
				</g>
				<path class="st6" d="M332.2,53.4c0-0.2-0.1-0.4-0.3-0.5c-1.1-0.6-4.9,0.5-8.5,2.6l-7.3,4.2c-3.6,2.1-7.4,3.2-8.5,2.6
					c-0.2-0.1-0.3-0.3-0.3-0.5v-8.2c0,0.2,0.1,0.4,0.3,0.5c1.1,0.6,4.9-0.5,8.5-2.6l7.3-4.2c3.6-2.1,7.4-3.2,8.5-2.6
					c0.2,0.1,0.3,0.3,0.3,0.5V53.4z"/>
			</g>
			<g>
				<path class="st1" d="M327.8,49.4l-0.1,0.1l-7.6,4.4c-2.9,1.7-4.8,3.5-4.8,4.4V301l4.6,2.6l0,0l12.3,7.1V45.2
					C332.2,46.1,330.5,47.8,327.8,49.4z"/>
				<g>
					<path class="st2" d="M340.3,315.3l-25-14.4V58.2c0,0.2,0.1,0.4,0.3,0.5c1.1,0.6,4.9-0.5,8.5-2.6l7.3-4.2
						c3.6-2.1,7.4-3.2,8.5-2.6c0.2,0.1,0.3,0.3,0.3,0.5v265.5H340.3z"/>
					<path class="st3" d="M340.3,315.3l-25-14.4V58.2c0,0.2,0.1,0.4,0.3,0.5c1.1,0.6,4.9-0.5,8.5-2.6l7.3-4.2
						c3.6-2.1,7.4-3.2,8.5-2.6c0.2,0.1,0.3,0.3,0.3,0.5v265.5H340.3z"/>
					<path class="st4" d="M319.9,58.2c-2,0.7-3.6,1-4.2,0.6c-0.2-0.1-0.3-0.3-0.3-0.5V301l4.6,2.6V58.2H319.9z"/>
					<path class="st5" d="M340,49.4c-1.1-0.7-4.9,0.5-8.5,2.6l-1.6,0.9v256.4l10.5,6V49.9C340.3,49.7,340.2,49.5,340,49.4z"/>
				</g>
				<path class="st6" d="M340.3,58.1c0-0.2-0.1-0.4-0.3-0.5c-1.1-0.6-4.9,0.5-8.5,2.6l-7.3,4.2c-3.6,2.1-7.4,3.2-8.5,2.6
					c-0.2-0.1-0.3-0.3-0.3-0.5v-8.2c0,0.2,0.1,0.4,0.3,0.5c1.1,0.6,4.9-0.5,8.5-2.6l7.3-4.2c3.6-2.1,7.4-3.2,8.5-2.6
					c0.2,0.1,0.3,0.3,0.3,0.5V58.1z"/>
			</g>
			<g>
				<path class="st1" d="M336,54.1l-0.1,0.1l-7.6,4.4c-2.9,1.7-4.8,3.5-4.8,4.4v242.7l4.6,2.6l0,0l12.3,7.1V49.9
					C340.4,50.9,338.7,52.5,336,54.1z"/>
				<g>
					<path class="st2" d="M348.5,320l-25-14.4V62.9c0,0.2,0.1,0.4,0.3,0.5c1.1,0.6,4.9-0.5,8.5-2.6l7.3-4.2c3.6-2.1,7.4-3.2,8.5-2.6
						c0.2,0.1,0.3,0.3,0.3,0.5V320H348.5z"/>
					<path class="st3" d="M348.5,320l-25-14.4V62.9c0,0.2,0.1,0.4,0.3,0.5c1.1,0.6,4.9-0.5,8.5-2.6l7.3-4.2c3.6-2.1,7.4-3.2,8.5-2.6
						c0.2,0.1,0.3,0.3,0.3,0.5V320H348.5z"/>
					<path class="st4" d="M328,62.9c-2,0.7-3.6,1-4.2,0.6c-0.2-0.1-0.3-0.3-0.3-0.5v242.7l4.6,2.6V62.9H328z"/>
					<path class="st5" d="M348.1,54.1c-1.1-0.7-4.9,0.5-8.5,2.6l-1.6,0.9V314l10.5,6V54.6C348.5,54.4,348.4,54.2,348.1,54.1z"/>
				</g>
				<path class="st6" d="M348.5,62.8c0-0.2-0.1-0.4-0.3-0.5c-1.1-0.6-4.9,0.5-8.5,2.6l-7.3,4.2c-3.6,2.1-7.4,3.2-8.5,2.6
					c-0.2-0.1-0.3-0.3-0.3-0.5V63c0,0.2,0.1,0.4,0.3,0.5c1.1,0.6,4.9-0.5,8.5-2.6l7.3-4.2c3.6-2.1,7.4-3.2,8.5-2.6
					c0.2,0.1,0.3,0.3,0.3,0.5V62.8z"/>
			</g>
			<g>
				<path class="st1" d="M344.1,58.8l-0.1,0.1l-7.6,4.4c-2.9,1.7-4.8,3.5-4.8,4.4v242.7l4.6,2.6l0,0l12.3,7.1V54.6
					C348.6,55.6,346.9,57.2,344.1,58.8z"/>
				<g>
					<path class="st2" d="M356.6,324.7l-25-14.4V67.6c0,0.2,0.1,0.4,0.3,0.5c1.1,0.6,4.9-0.5,8.5-2.6l7.3-4.2
						c3.6-2.1,7.4-3.2,8.5-2.6c0.2,0.1,0.3,0.3,0.3,0.5v265.5H356.6z"/>
					<path class="st3" d="M356.6,324.7l-25-14.4V67.6c0,0.2,0.1,0.4,0.3,0.5c1.1,0.6,4.9-0.5,8.5-2.6l7.3-4.2
						c3.6-2.1,7.4-3.2,8.5-2.6c0.2,0.1,0.3,0.3,0.3,0.5v265.5H356.6z"/>
					<path class="st4" d="M336.2,67.6c-2,0.7-3.6,1-4.2,0.6c-0.2-0.1-0.3-0.3-0.3-0.5v242.7l4.6,2.6V67.6H336.2z"/>
					<path class="st5" d="M356.3,58.8c-1.1-0.7-4.9,0.5-8.5,2.6l-1.6,0.9v256.4l10.5,6V59.3C356.6,59.1,356.5,58.9,356.3,58.8z"/>
				</g>
				<path class="st6" d="M356.6,67.5c0-0.2-0.1-0.4-0.3-0.5c-1.1-0.6-4.9,0.5-8.5,2.6l-7.3,4.2c-3.6,2.1-7.4,3.2-8.5,2.6
					c-0.2-0.1-0.3-0.3-0.3-0.5v-8.2c0,0.2,0.1,0.4,0.3,0.5c1.1,0.6,4.9-0.5,8.5-2.6l7.3-4.2c3.6-2.1,7.4-3.2,8.5-2.6
					c0.2,0.1,0.3,0.3,0.3,0.5V67.5z"/>
			</g>
			<g>
				<path class="st1" d="M352.3,63.5l-0.1,0.1l-7.6,4.4c-2.9,1.7-4.8,3.5-4.8,4.4v242.7l4.6,2.6l0,0l12.3,7.1V59.4
					C356.7,60.3,355,61.9,352.3,63.5z"/>
				<g>
					<path class="st2" d="M364.8,64v258.4c-0.3,0.2-0.6,0.4-1,0.5c-0.1,0.1-0.3,0.1-0.4,0.2c-0.3,0.2-0.6,0.3-1,0.5
						c-0.6,0.3-1.2,0.5-1.8,0.7c-0.5,0.2-1.1,0.4-1.5,0.5c-1,0.3-2.1,0.1-3-0.4l0,0l-1.8-1l-6.4-3.7l-8.2-4.7V72.4
						c0,0.2,0.1,0.4,0.3,0.5c1.1,0.6,4.9-0.5,8.5-2.6l5.7-3.3l1.6-0.9c3.6-2.1,7.4-3.2,8.5-2.6C364.7,63.6,364.8,63.8,364.8,64z"/>
					<path class="st3" d="M364.8,64v258.4c-0.3,0.2-0.6,0.4-1,0.5c-0.1,0.1-0.3,0.1-0.4,0.2c-0.3,0.2-0.6,0.3-1,0.5
						c-0.6,0.3-1.2,0.5-1.8,0.7c-0.5,0.2-1.1,0.4-1.5,0.5c-1,0.3-2.1,0.1-3-0.4l0,0l-1.8-1l-6.4-3.7l-8.2-4.7V72.4
						c0,0.2,0.1,0.4,0.3,0.5c1.1,0.6,4.9-0.5,8.5-2.6l5.7-3.3l1.6-0.9c3.6-2.1,7.4-3.2,8.5-2.6C364.7,63.6,364.8,63.8,364.8,64z"/>
					<path class="st4" d="M344.3,72.3c-2,0.7-3.6,1-4.2,0.6c-0.2-0.1-0.3-0.3-0.3-0.5v242.7l4.6,2.6V72.3H344.3z"/>
					<path class="st5" d="M364.8,64v258.4c-0.3,0.2-0.6,0.4-1,0.5c-0.1,0.1-0.3,0.1-0.4,0.2c-0.3,0.2-0.6,0.3-1,0.5
						c-0.6,0.3-1.2,0.5-1.8,0.7c-0.5,0.2-1.1,0.4-1.5,0.5c-1,0.3-2.1,0.1-3-0.4l0,0l-1.8-1V67l1.6-0.9c3.6-2.1,7.4-3.2,8.5-2.6
						C364.7,63.6,364.8,63.8,364.8,64z"/>
				</g>
				<path class="st6" d="M364.8,72.2c0-0.2-0.1-0.4-0.3-0.5c-1.1-0.6-4.9,0.5-8.5,2.6l-7.3,4.2c-3.6,2.1-7.4,3.2-8.5,2.6
					c-0.2-0.1-0.3-0.3-0.3-0.5v-8.2c0,0.2,0.1,0.4,0.3,0.5c1.1,0.6,4.9-0.5,8.5-2.6l7.3-4.2c3.6-2.1,7.4-3.2,8.5-2.6
					c0.2,0.1,0.3,0.3,0.3,0.5V72.2z"/>
			</g>
			<g>
				<path class="st1" d="M364.8,64.1v258.3c0,0,0,0-0.1,0c-0.3,0.2-0.6,0.4-1,0.5c-0.1,0.1-0.3,0.1-0.4,0.2c-0.3,0.2-0.6,0.3-1,0.5
					c-0.6,0.3-1.2,0.5-1.8,0.7c-0.5,0.2-1.1,0.4-1.5,0.5c-1,0.3-2.1,0.1-3-0.4l0,0l-1.8-1l-6.4-3.7V77.1c0-1,1.9-2.7,4.8-4.4
					l1.6-0.9l6-3.5l0.1-0.1c2.5-1.4,4.1-2.9,4.4-3.8C364.8,64.3,364.8,64.2,364.8,64.1z"/>
				<g>
					<path class="st2" d="M372.9,68.8v249c-0.2,0.1-0.5,0.3-0.7,0.4l-1.6,0.9l-5.7,3.3c0,0-0.1,0-0.1,0.1c0,0,0,0-0.1,0
						c-0.3,0.2-0.6,0.4-1,0.5c-0.1,0.1-0.3,0.1-0.4,0.2c-0.3,0.2-0.6,0.3-1,0.5c-0.6,0.3-1.2,0.5-1.8,0.7c-0.5,0.2-1.1,0.4-1.5,0.5
						c-1,0.3-2.1,0.1-3-0.4l0,0l-1.8-1l-6.4-3.7V77.2c0,0.2,0.1,0.4,0.3,0.5c0.9,0.5,3.3-0.1,6.1-1.3c0.8-0.4,1.6-0.8,2.5-1.3
						l5.7-3.3l1.6-0.9c0.2-0.1,0.5-0.3,0.7-0.4c0,0,0,0,0.1,0c0.1-0.1,0.2-0.1,0.3-0.2c0.2-0.1,0.3-0.2,0.5-0.3
						c0.6-0.3,1.1-0.5,1.6-0.7c0.2-0.1,0.3-0.1,0.5-0.2h0.1c0.3-0.1,0.5-0.2,0.8-0.3c0.1,0,0.1,0,0.2-0.1c0.2,0,0.3-0.1,0.4-0.1
						c0.2-0.1,0.5-0.1,0.7-0.2s0.5-0.1,0.7-0.2c0.9-0.2,1.6-0.1,2,0.1C372.8,68.3,372.9,68.5,372.9,68.8z"/>
					<path class="st3" d="M372.9,68.8v249c-0.2,0.1-0.5,0.3-0.7,0.4l-1.6,0.9l-5.7,3.3c0,0-0.1,0-0.1,0.1c0,0,0,0-0.1,0
						c-0.3,0.2-0.6,0.4-1,0.5c-0.1,0.1-0.3,0.1-0.4,0.2c-0.3,0.2-0.6,0.3-1,0.5c-0.6,0.3-1.2,0.5-1.8,0.7c-0.5,0.2-1.1,0.4-1.5,0.5
						c-1,0.3-2.1,0.1-3-0.4l0,0l-1.8-1l-6.4-3.7V77.2c0,0.2,0.1,0.4,0.3,0.5c0.9,0.5,3.3-0.1,6.1-1.3c0.8-0.4,1.6-0.8,2.5-1.3
						l5.7-3.3l1.6-0.9c0.2-0.1,0.5-0.3,0.7-0.4c0,0,0,0,0.1,0c0.1-0.1,0.2-0.1,0.3-0.2c0.2-0.1,0.3-0.2,0.5-0.3
						c0.6-0.3,1.1-0.5,1.6-0.7c0.2-0.1,0.3-0.1,0.5-0.2h0.1c0.3-0.1,0.5-0.2,0.8-0.3c0.1,0,0.1,0,0.2-0.1c0.2,0,0.3-0.1,0.4-0.1
						c0.2-0.1,0.5-0.1,0.7-0.2s0.5-0.1,0.7-0.2c0.9-0.2,1.6-0.1,2,0.1C372.8,68.3,372.9,68.5,372.9,68.8z"/>
					<path class="st4" d="M352.5,77c-2,0.7-3.6,1-4.2,0.6c-0.2-0.1-0.3-0.3-0.3-0.5v242.7l4.6,2.6V77H352.5z"/>
					<path class="st5" d="M372.9,68.8v249c-0.2,0.1-0.5,0.3-0.7,0.4l-1.6,0.9l-5.7,3.3c0,0-0.1,0-0.1,0.1c0,0,0,0-0.1,0
						c-0.3,0.2-0.6,0.4-1,0.5c-0.1,0.1-0.3,0.1-0.4,0.2c-0.3,0.2-0.6,0.3-1,0.5v-252l1.6-0.9c0.2-0.1,0.5-0.3,0.7-0.4c0,0,0,0,0.1,0
						c0.1-0.1,0.2-0.1,0.3-0.2c0.2-0.1,0.3-0.2,0.5-0.3c0.6-0.3,1.1-0.5,1.6-0.7c0.2-0.1,0.3-0.1,0.5-0.2h0.1
						c0.3-0.1,0.5-0.2,0.8-0.3c0.1,0,0.1,0,0.2-0.1c0.2,0,0.3-0.1,0.4-0.1c0.2-0.1,0.5-0.1,0.7-0.2s0.5-0.1,0.7-0.2
						c0.9-0.2,1.6-0.1,2,0.1C372.8,68.3,372.9,68.5,372.9,68.8z"/>
				</g>
				<path class="st6" d="M372.9,77c0-0.2-0.1-0.4-0.3-0.5c-1.1-0.6-4.9,0.5-8.5,2.6l-7.3,4.2c-3.6,2.1-7.4,3.2-8.5,2.6
					c-0.2-0.1-0.3-0.3-0.3-0.5v-8.2c0,0.2,0.1,0.4,0.3,0.5c1.1,0.6,4.9-0.5,8.5-2.6l7.3-4.2c3.6-2.1,7.4-3.2,8.5-2.6
					c0.2,0.1,0.3,0.3,0.3,0.5V77z"/>
			</g>
			<g>
				<path class="st1" d="M373,68.8v248.9c-0.3,0.1-0.5,0.3-0.7,0.4l-1.6,0.9l-5.7,3.3c0,0-0.1,0-0.1,0.1c0,0,0,0-0.1,0
					c-0.3,0.2-0.6,0.4-1,0.5c-0.1,0.1-0.3,0.1-0.4,0.2c-0.3,0.2-0.6,0.3-1,0.5c-0.6,0.3-1.2,0.5-1.8,0.7c-0.5,0.2-1.1,0.4-1.5,0.5
					c-1,0.3-2.1,0.1-3-0.4l0,0v-8.2V81.8c0-1,1.9-2.7,4.8-4.4l1.6-0.9l2.3-1.3h0.1l3.6-2.1l0.1-0.1c2.5-1.4,4.1-2.9,4.3-3.8
					C373,69,373,68.9,373,68.8z"/>
				<g>
					<path class="st2" d="M381.1,73.5v242.6c0-0.2-0.1-0.4-0.3-0.5c-1-0.6-4.4,0.4-7.8,2.2c-0.3,0.1-0.5,0.3-0.7,0.4l-1.6,0.9
						l-5.7,3.3c0,0-0.1,0-0.1,0.1c0,0,0,0-0.1,0c-0.3,0.2-0.6,0.4-1,0.5c-0.1,0.1-0.3,0.1-0.4,0.2c-0.3,0.2-0.6,0.3-1,0.5
						c-0.6,0.3-1.2,0.5-1.8,0.7c-0.5,0.2-1.1,0.4-1.5,0.5c-1,0.3-2.1,0.1-3-0.4l0,0v-8.2V81.9c0,0.2,0.1,0.4,0.3,0.5
						c0.1,0.1,0.2,0.1,0.4,0.1c0.2,0.1,0.5,0.1,0.8,0c0.1,0,0.2,0,0.4,0c0.4,0,0.8-0.1,1.2-0.2c0.3-0.1,0.6-0.2,1-0.3
						c0.1,0,0.2-0.1,0.4-0.1c0,0,0.1,0,0.1-0.1c0.6-0.2,1.2-0.5,1.8-0.7c0.8-0.3,1.6-0.7,2.3-1.2c0,0,0,0,0.1,0c0,0,0.1,0,0.1-0.1
						l5.7-3.3l1.6-0.9c0.2-0.1,0.5-0.3,0.7-0.4c3.4-1.8,6.8-2.8,7.8-2.2C381,73,381.1,73.2,381.1,73.5z"/>
					<path class="st3" d="M381.1,73.5v242.6c0-0.2-0.1-0.4-0.3-0.5c-1-0.6-4.4,0.4-7.8,2.2c-0.3,0.1-0.5,0.3-0.7,0.4l-1.6,0.9
						l-5.7,3.3c0,0-0.1,0-0.1,0.1c0,0,0,0-0.1,0c-0.3,0.2-0.6,0.4-1,0.5c-0.1,0.1-0.3,0.1-0.4,0.2c-0.3,0.2-0.6,0.3-1,0.5
						c-0.6,0.3-1.2,0.5-1.8,0.7c-0.5,0.2-1.1,0.4-1.5,0.5c-1,0.3-2.1,0.1-3-0.4l0,0v-8.2V81.9c0,0.2,0.1,0.4,0.3,0.5
						c0.1,0.1,0.2,0.1,0.4,0.1c0.2,0.1,0.5,0.1,0.8,0c0.1,0,0.2,0,0.4,0c0.4,0,0.8-0.1,1.2-0.2c0.3-0.1,0.6-0.2,1-0.3
						c0.1,0,0.2-0.1,0.4-0.1c0,0,0.1,0,0.1-0.1c0.6-0.2,1.2-0.5,1.8-0.7c0.8-0.3,1.6-0.7,2.3-1.2c0,0,0,0,0.1,0c0,0,0.1,0,0.1-0.1
						l5.7-3.3l1.6-0.9c0.2-0.1,0.5-0.3,0.7-0.4c3.4-1.8,6.8-2.8,7.8-2.2C381,73,381.1,73.2,381.1,73.5z"/>
					<path class="st4" d="M360.6,81.7v242.6c-0.5,0.2-1.1,0.4-1.5,0.5c-1,0.3-2.1,0.1-3-0.4l0,0v-8.2V81.8c0,0.2,0.1,0.4,0.3,0.5
						c0.1,0.1,0.2,0.1,0.4,0.1c0.2,0.1,0.5,0.1,0.8,0c0.1,0,0.2,0,0.4,0c0.4-0.1,0.8-0.1,1.2-0.2c0.3-0.1,0.6-0.2,1-0.3
						C360.3,81.9,360.4,81.8,360.6,81.7C360.5,81.8,360.6,81.7,360.6,81.7z"/>
					<path class="st7" d="M381.1,73.5v242.6c0-0.2-0.1-0.4-0.3-0.5c-1-0.6-4.4,0.4-7.8,2.2l0,0c-0.2,0.1-0.5,0.3-0.7,0.4l-1.6,0.9
						V76.4l1.6-0.9c0.2-0.1,0.5-0.3,0.7-0.4l0,0c3.4-1.8,6.8-2.8,7.8-2.2C381,73,381.1,73.2,381.1,73.5z"/>
				</g>
				<path class="st6" d="M381.1,81.7c0-0.2-0.1-0.4-0.3-0.5c-1.1-0.6-4.9,0.5-8.5,2.6L365,88c-3.6,2.1-7.4,3.2-8.5,2.6
					c-0.2-0.1-0.3-0.3-0.3-0.5v-8.2c0,0.2,0.1,0.4,0.3,0.5c1.1,0.6,4.9-0.5,8.5-2.6l7.3-4.2c3.6-2.1,7.4-3.2,8.5-2.6
					c0.2,0.1,0.3,0.3,0.3,0.5V81.7z"/>
			</g>
		</g>
		<g>
			<g>
				<path class="st1" d="M306.1,30.3c-0.8-0.5-2-0.4-3.2,0.3c-2.5,1.5-4.5,5-4.5,7.9c0,1.4,0.5,2.4,1.3,2.9c0.4,0.2,1.1,0.7,1.5,0.9
					c0.8,0.5,1.9,0.4,3.2-0.3c2.5-1.5,4.5-5,4.5-7.9c0-1.5-0.5-2.5-1.4-3C307.1,31,306.4,30.6,306.1,30.3z"/>
				<path class="st6" d="M299.8,39.4c0-2.9,2-6.4,4.5-7.9c2.5-1.5,4.5-0.3,4.5,2.6s-2,6.4-4.5,7.9C301.8,43.4,299.8,42.3,299.8,39.4
					z"/>
			</g>
			<path class="st6" d="M469.1,129.9L305.6,35.2c-0.3-0.2-0.6-0.1-1,0.1c-0.8,0.4-1.4,1.5-1.4,2.4c0,0.5,0.2,0.8,0.4,0.9l163.5,94.6
				c0.3,0.2,0.6,0.1,1-0.1c0.8-0.4,1.4-1.5,1.4-2.4C469.5,130.3,469.4,130,469.1,129.9z"/>
			<path class="st1" d="M303.7,38.7l163.5,94.6c0.3,0.2,0.6,0.1,1-0.1c0.3-0.2,0.5-0.4,0.7-0.6L303.5,36.8c-0.1,0.3-0.2,0.6-0.2,0.9
				C303.3,38.2,303.4,38.5,303.7,38.7z"/>
			<g>
				<path class="st1" d="M470.9,125.7c-0.8-0.5-2-0.4-3.2,0.3c-2.5,1.5-4.5,5-4.5,7.9c0,1.4,0.5,2.4,1.3,2.9
					c0.4,0.2,1.1,0.7,1.5,0.9c0.8,0.5,1.9,0.4,3.2-0.3c2.5-1.5,4.5-5,4.5-7.9c0-1.5-0.5-2.5-1.4-3
					C471.9,126.4,471.3,126,470.9,125.7z"/>
				<path class="st6" d="M464.6,134.8c0-2.9,2-6.4,4.5-7.9c2.5-1.5,4.5-0.3,4.5,2.6c0,2.9-2,6.4-4.5,7.9S464.6,137.7,464.6,134.8z"
					/>
			</g>
		</g>
		<g>
			<g>
				<path class="st1" d="M314.7,49c0.4-0.2,0.7,0,0.7,0.4c0,0.5-0.3,1.1-0.7,1.3c-0.4,0.2-0.7,0-0.7-0.4
					C313.9,49.9,314.2,49.3,314.7,49z"/>
				<path class="st5" d="M314.7,49c0.4-0.2,0.7,0,0.7,0.4c0,0.5-0.3,1.1-0.7,1.3c-0.4,0.2-0.7,0-0.7-0.4
					C313.9,49.9,314.2,49.3,314.7,49z"/>
				<path class="st8" d="M318.7,42.8l-0.5-0.3c-0.1-0.7-0.5-1.2-0.9-1.5c-0.5-0.3-1.1-0.3-1.7-0.1c-0.2,0.1-0.5,0.2-0.7,0.3
					c-0.9,0.5-1.8,1.4-2.4,2.4c-0.8,1.2-1.3,2.7-1.3,3.9c0,1.1,0.3,1.9,1,2.2c0.6,0.4,1.5,0.3,2.4-0.3c0.3-0.2,0.5-0.3,0.8-0.5
					c0.1,0.1,0.1,0.3,0.1,0.6c-0.2,0.2-0.4,0.3-0.6,0.4c-0.6,0.4-1.3,0.6-1.8,0.6c-0.4,0-0.8-0.1-1.1-0.3c-0.8-0.5-1.2-1.4-1.2-2.7
					c0-1.4,0.5-2.9,1.3-4.2c0.7-1.1,1.6-2,2.6-2.6c0.1-0.1,0.3-0.2,0.4-0.2c0.9-0.4,1.8-0.5,2.5,0C318.2,41,318.6,41.7,318.7,42.8z"
					/>
			</g>
			<g>
				<path class="st1" d="M318.7,51.4c0.4-0.2,0.7,0,0.7,0.4c0,0.5-0.3,1.1-0.7,1.3c-0.4,0.2-0.7,0-0.7-0.4
					C318,52.2,318.3,51.6,318.7,51.4z"/>
				<path class="st8" d="M322.8,45.1l-0.5-0.3c-0.1-0.7-0.5-1.2-0.9-1.5c-0.5-0.3-1.1-0.3-1.7-0.1c-0.2,0.1-0.5,0.2-0.7,0.3
					c-0.9,0.5-1.8,1.4-2.4,2.4c-0.8,1.2-1.3,2.7-1.3,3.9c0,1.1,0.4,1.9,1,2.2c0.6,0.4,1.5,0.3,2.4-0.3c0.3-0.2,0.5-0.3,0.8-0.5
					c0.1,0.1,0.1,0.3,0.1,0.5c-0.2,0.2-0.4,0.3-0.6,0.4c-0.6,0.4-1.3,0.6-1.8,0.6c-0.4,0-0.8-0.1-1.1-0.3c-0.8-0.5-1.2-1.4-1.2-2.7
					c0-1.4,0.5-2.9,1.4-4.2c0.7-1.1,1.6-2.1,2.6-2.6c0.1-0.1,0.3-0.2,0.4-0.2c0.9-0.4,1.8-0.5,2.5-0.1
					C322.2,43.3,322.7,44.1,322.8,45.1z"/>
			</g>
			<g>
				<path class="st1" d="M322.8,53.7c0.4-0.2,0.7,0,0.7,0.4c0,0.5-0.3,1.1-0.7,1.3c-0.4,0.2-0.7,0-0.7-0.4
					C322,54.5,322.4,54,322.8,53.7z"/>
				<path class="st5" d="M322.8,53.7c0.4-0.2,0.7,0,0.7,0.4c0,0.5-0.3,1.1-0.7,1.3c-0.4,0.2-0.7,0-0.7-0.4
					C322,54.5,322.4,54,322.8,53.7z"/>
				<path class="st8" d="M326.3,47.2L326.3,47.2c-0.1-0.7-0.4-1.2-0.9-1.5s-1.1-0.3-1.7-0.1c-0.2,0.1-0.5,0.2-0.7,0.3
					c-0.9,0.5-1.8,1.4-2.4,2.4c-0.8,1.2-1.3,2.7-1.3,3.9c0,1.1,0.4,1.9,1,2.2c0.6,0.4,1.5,0.3,2.4-0.3c0.3-0.2,0.5-0.3,0.8-0.5
					c0.1,0.1,0.1,0.3,0.1,0.5c-0.2,0.2-0.4,0.3-0.6,0.4c-0.6,0.4-1.2,0.6-1.8,0.6c-0.4,0-0.8-0.1-1.1-0.3c-0.8-0.5-1.2-1.4-1.2-2.7
					c0-1.4,0.5-2.9,1.3-4.2c0.7-1.1,1.6-2.1,2.6-2.6c0.1-0.1,0.3-0.1,0.4-0.2c0.9-0.4,1.8-0.5,2.5-0.1s1.1,1.2,1.2,2.2L326.3,47.2z"
					/>
			</g>
			<g>
				<path class="st1" d="M326.8,56.1c0.4-0.2,0.7,0,0.7,0.4c0,0.5-0.3,1.1-0.7,1.3c-0.4,0.2-0.7,0-0.7-0.4
					C326.1,56.9,326.4,56.3,326.8,56.1z"/>
				<path class="st8" d="M330.3,49.5L330.3,49.5c-0.1-0.7-0.5-1.2-0.9-1.5c-0.5-0.3-1.1-0.3-1.7-0.1c-0.2,0.1-0.5,0.2-0.7,0.3
					c-0.9,0.5-1.8,1.4-2.4,2.4c-0.8,1.2-1.3,2.7-1.3,3.9c0,1.1,0.3,1.9,1,2.2c0.6,0.4,1.5,0.3,2.4-0.3c0.3-0.2,0.5-0.3,0.8-0.5
					c0.1,0.1,0.1,0.3,0.1,0.5c-0.2,0.2-0.4,0.3-0.6,0.4c-0.6,0.4-1.3,0.6-1.8,0.6c-0.4,0-0.8-0.1-1.1-0.3c-0.8-0.5-1.2-1.4-1.2-2.7
					c0-1.4,0.5-2.9,1.3-4.2c0.7-1.1,1.6-2.1,2.6-2.6c0.1-0.1,0.3-0.1,0.4-0.2c0.9-0.5,1.8-0.5,2.5-0.1s1.1,1.2,1.2,2.2L330.3,49.5z"
					/>
			</g>
			<g>
				<path class="st1" d="M330.9,58.4c0.4-0.2,0.7,0,0.7,0.4c0,0.5-0.3,1.1-0.7,1.3c-0.4,0.2-0.7,0-0.7-0.4
					C330.2,59.2,330.5,58.7,330.9,58.4z"/>
				<path class="st5" d="M330.9,58.4c0.4-0.2,0.7,0,0.7,0.4c0,0.5-0.3,1.1-0.7,1.3c-0.4,0.2-0.7,0-0.7-0.4
					C330.2,59.2,330.5,58.7,330.9,58.4z"/>
				<path class="st8" d="M334.4,51.9L334.4,51.9c-0.1-0.7-0.5-1.2-0.9-1.5c-0.5-0.3-1.1-0.3-1.7-0.1c-0.2,0.1-0.5,0.2-0.7,0.3
					c-0.9,0.5-1.8,1.4-2.4,2.4c-0.8,1.2-1.3,2.6-1.3,3.9c0,1.1,0.4,1.9,1,2.2c0.6,0.4,1.5,0.3,2.4-0.3c0.3-0.2,0.5-0.3,0.8-0.5
					c0.1,0.1,0.1,0.3,0.1,0.5c-0.2,0.2-0.4,0.3-0.6,0.4c-0.6,0.4-1.3,0.5-1.8,0.5c-0.4,0-0.8-0.1-1.1-0.3c-0.8-0.5-1.2-1.4-1.2-2.7
					c0-1.4,0.5-2.9,1.3-4.2c0.7-1.1,1.6-2.1,2.6-2.6c0.1-0.1,0.3-0.1,0.4-0.2c1-0.4,1.9-0.5,2.5-0.1c0.7,0.4,1.1,1.2,1.2,2.2
					L334.4,51.9z"/>
			</g>
			<g>
				<path class="st1" d="M335,60.8c0.4-0.2,0.7,0,0.7,0.4c0,0.5-0.3,1.1-0.7,1.3c-0.4,0.2-0.7,0-0.7-0.4
					C334.2,61.6,334.6,61,335,60.8z"/>
				<path class="st8" d="M338.5,54.2L338.5,54.2c-0.1-0.7-0.5-1.2-0.9-1.5c-0.5-0.3-1.1-0.3-1.7-0.1c-0.2,0.1-0.5,0.2-0.7,0.3
					c-0.9,0.5-1.8,1.4-2.4,2.4c-0.8,1.2-1.3,2.6-1.3,3.9c0,1.1,0.4,1.9,1,2.2c0.6,0.4,1.5,0.3,2.4-0.3c0.3-0.2,0.5-0.3,0.8-0.5
					c0.1,0.1,0.1,0.3,0.1,0.5c-0.2,0.1-0.4,0.3-0.6,0.4c-0.6,0.4-1.2,0.5-1.8,0.5c-0.4,0-0.8-0.1-1.1-0.3c-0.8-0.5-1.2-1.4-1.2-2.7
					s0.5-2.9,1.3-4.2c0.7-1.1,1.6-2.1,2.6-2.6c0.1-0.1,0.3-0.1,0.4-0.2c0.9-0.4,1.9-0.5,2.5-0.1c0.7,0.4,1.1,1.2,1.2,2.2L338.5,54.2
					z"/>
			</g>
			<g>
				<path class="st1" d="M339,63.1c0.4-0.2,0.7,0,0.7,0.4c0,0.5-0.3,1.1-0.7,1.3c-0.4,0.2-0.7,0-0.7-0.4
					C338.3,63.9,338.6,63.3,339,63.1z"/>
				<path class="st5" d="M339,63.1c0.4-0.2,0.7,0,0.7,0.4c0,0.5-0.3,1.1-0.7,1.3c-0.4,0.2-0.7,0-0.7-0.4
					C338.3,63.9,338.6,63.3,339,63.1z"/>
				<path class="st8" d="M343.1,56.9l-0.5-0.3c-0.1-0.7-0.4-1.2-0.9-1.5s-1.1-0.3-1.8-0.1c-0.2,0.1-0.5,0.2-0.7,0.3
					c-0.9,0.5-1.8,1.4-2.4,2.5c-0.8,1.2-1.3,2.7-1.3,3.9c0,1.1,0.4,1.9,1,2.2c0.6,0.4,1.5,0.3,2.4-0.3c0.3-0.1,0.5-0.3,0.8-0.5
					c0.1,0.1,0.1,0.3,0.1,0.5c-0.2,0.1-0.4,0.3-0.6,0.4c-0.6,0.4-1.3,0.6-1.8,0.6c-0.4,0-0.8-0.1-1.1-0.3c-0.8-0.5-1.2-1.4-1.2-2.7
					c0-1.4,0.5-2.9,1.3-4.2c0.7-1.1,1.6-2.1,2.6-2.6c0.1-0.1,0.3-0.1,0.4-0.2c0.9-0.4,1.8-0.5,2.6-0.1C342.6,55,343,55.8,343.1,56.9
					z"/>
			</g>
			<g>
				<path class="st1" d="M343.1,65.4c0.4-0.2,0.7,0,0.7,0.4s-0.3,1.1-0.7,1.3c-0.4,0.2-0.7,0-0.7-0.4
					C342.4,66.2,342.7,65.7,343.1,65.4z"/>
				<path class="st8" d="M347.1,59.2l-0.5-0.3c-0.1-0.7-0.5-1.2-0.9-1.5c-0.5-0.3-1.1-0.3-1.7,0c-0.2,0.1-0.5,0.2-0.7,0.3
					c-0.9,0.5-1.8,1.4-2.4,2.4c-0.8,1.2-1.3,2.6-1.3,3.9c0,1.1,0.4,1.9,1,2.2c0.6,0.4,1.5,0.3,2.4-0.3c0.3-0.2,0.5-0.3,0.8-0.5
					c0.1,0.1,0.1,0.3,0.1,0.5c-0.2,0.2-0.4,0.3-0.6,0.4c-0.6,0.4-1.3,0.6-1.8,0.6c-0.4,0-0.8-0.1-1.1-0.3c-0.8-0.5-1.2-1.4-1.2-2.7
					s0.5-2.9,1.3-4.2c0.7-1.1,1.6-2.1,2.6-2.6c0.1-0.1,0.3-0.1,0.4-0.2c1-0.5,1.8-0.5,2.5-0.1C346.6,57.4,347,58.1,347.1,59.2z"/>
			</g>
			<g>
				<path class="st1" d="M347.2,67.8c0.4-0.2,0.7,0,0.7,0.4c0,0.5-0.3,1.1-0.7,1.3c-0.4,0.2-0.7,0-0.7-0.4
					C346.4,68.6,346.8,68,347.2,67.8z"/>
				<path class="st5" d="M347.2,67.8c0.4-0.2,0.7,0,0.7,0.4c0,0.5-0.3,1.1-0.7,1.3c-0.4,0.2-0.7,0-0.7-0.4
					C346.4,68.6,346.8,68,347.2,67.8z"/>
				<path class="st8" d="M351.2,61.5l-0.5-0.3c-0.1-0.7-0.5-1.2-0.9-1.5c-0.5-0.3-1.1-0.3-1.7,0c-0.2,0.1-0.5,0.2-0.7,0.3
					c-0.9,0.5-1.8,1.4-2.4,2.5c-0.8,1.2-1.3,2.6-1.3,3.9c0,1.1,0.3,1.9,1,2.2c0.6,0.4,1.5,0.3,2.4-0.3c0.2-0.1,0.5-0.3,0.8-0.5
					c0.1,0.1,0.1,0.3,0.1,0.6c-0.2,0.1-0.4,0.3-0.6,0.4c-0.6,0.4-1.3,0.6-1.8,0.6c-0.4,0-0.8-0.1-1.1-0.3c-0.8-0.5-1.2-1.4-1.2-2.7
					c0-1.3,0.5-2.9,1.3-4.2c0.7-1.1,1.6-2.1,2.6-2.6c0.1-0.1,0.2-0.1,0.4-0.2c1-0.5,1.9-0.5,2.6-0.1
					C350.7,59.7,351.1,60.5,351.2,61.5z"/>
			</g>
			<g>
				<path class="st1" d="M351.2,70.1c0.4-0.2,0.7,0,0.7,0.4c0,0.5-0.3,1.1-0.7,1.3c-0.4,0.2-0.7,0-0.7-0.4
					C350.5,70.9,350.8,70.4,351.2,70.1z"/>
				<path class="st8" d="M355.3,63.9l-0.5-0.3c-0.1-0.7-0.5-1.2-0.9-1.5c-0.5-0.3-1.1-0.3-1.8,0c-0.2,0.1-0.5,0.2-0.7,0.3
					c-0.9,0.5-1.8,1.4-2.4,2.5c-0.8,1.2-1.3,2.7-1.3,3.9c0,1.1,0.4,1.9,1,2.2c0.6,0.4,1.5,0.3,2.4-0.3c0.3-0.2,0.5-0.3,0.8-0.5
					c0.1,0.1,0.1,0.3,0.1,0.6c-0.2,0.2-0.4,0.3-0.6,0.4c-0.6,0.4-1.3,0.6-1.8,0.6c-0.4,0-0.8-0.1-1.1-0.3c-0.8-0.5-1.2-1.4-1.2-2.7
					c0-1.3,0.5-2.9,1.3-4.2c0.7-1.1,1.6-2.1,2.6-2.6c0.1-0.1,0.2-0.1,0.4-0.2c1-0.5,1.9-0.5,2.6-0.1C354.8,62,355.2,62.8,355.3,63.9
					z"/>
			</g>
			<g>
				<path class="st1" d="M355.3,72.5c0.4-0.2,0.7,0,0.7,0.4s-0.3,1.1-0.7,1.3c-0.4,0.2-0.7,0-0.7-0.4
					C354.5,73.3,354.9,72.7,355.3,72.5z"/>
				<path class="st5" d="M355.3,72.5c0.4-0.2,0.7,0,0.7,0.4s-0.3,1.1-0.7,1.3c-0.4,0.2-0.7,0-0.7-0.4
					C354.5,73.3,354.9,72.7,355.3,72.5z"/>
				<path class="st8" d="M359.3,66.2l-0.5-0.3c-0.1-0.7-0.4-1.2-0.9-1.5s-1.1-0.3-1.8,0c-0.2,0.1-0.4,0.2-0.7,0.3
					c-0.9,0.5-1.8,1.4-2.4,2.5c-0.8,1.2-1.3,2.6-1.3,3.9c0,1.1,0.4,1.9,1,2.2c0.6,0.4,1.5,0.3,2.4-0.3c0.3-0.1,0.5-0.3,0.8-0.5
					c0.1,0.1,0.1,0.3,0.1,0.6c-0.2,0.1-0.4,0.3-0.6,0.4c-0.6,0.4-1.3,0.6-1.8,0.6c-0.4,0-0.8-0.1-1.1-0.3c-0.8-0.5-1.2-1.4-1.2-2.7
					c0-1.3,0.5-2.9,1.3-4.2c0.7-1.1,1.6-2.1,2.6-2.6c0.1-0.1,0.2-0.1,0.4-0.2c1-0.5,1.9-0.5,2.6-0.1
					C358.8,64.4,359.2,65.2,359.3,66.2z"/>
			</g>
			<g>
				<path class="st1" d="M359.4,74.8c0.4-0.2,0.7,0,0.7,0.4c0,0.5-0.3,1.1-0.7,1.3c-0.4,0.2-0.7,0-0.7-0.4
					C358.6,75.6,358.9,75,359.4,74.8z"/>
				<path class="st8" d="M363.4,68.6l-0.5-0.3c-0.1-0.7-0.5-1.2-0.9-1.5c-0.5-0.3-1.1-0.3-1.8,0c-0.2,0.1-0.4,0.2-0.7,0.3
					c-0.9,0.5-1.8,1.4-2.4,2.4c-0.8,1.2-1.3,2.7-1.3,3.9c0,1.1,0.4,1.9,1,2.2c0.6,0.4,1.5,0.3,2.4-0.3c0.2-0.2,0.5-0.3,0.8-0.5
					c0.1,0.1,0.1,0.3,0.1,0.6c-0.2,0.2-0.4,0.3-0.6,0.4c-0.6,0.4-1.3,0.6-1.8,0.6c-0.4,0-0.8-0.1-1.1-0.3c-0.8-0.5-1.2-1.4-1.2-2.7
					c0-1.3,0.5-2.9,1.3-4.2c0.7-1.1,1.6-2.1,2.6-2.6c0.1-0.1,0.2-0.1,0.4-0.2c1-0.5,1.8-0.5,2.5-0.1
					C362.9,66.7,363.3,67.5,363.4,68.6z"/>
			</g>
			<g>
				<path class="st1" d="M363.4,77.1c0.4-0.2,0.7,0,0.7,0.4s-0.3,1.1-0.7,1.3c-0.4,0.2-0.7,0-0.7-0.4C362.7,78,363,77.4,363.4,77.1z
					"/>
				<path class="st5" d="M363.4,77.1c0.4-0.2,0.7,0,0.7,0.4s-0.3,1.1-0.7,1.3c-0.4,0.2-0.7,0-0.7-0.4C362.7,78,363,77.4,363.4,77.1z
					"/>
				<path class="st8" d="M367.5,70.9l-0.5-0.3c-0.1-0.7-0.4-1.2-0.9-1.5s-1.1-0.3-1.8,0c-0.2,0.1-0.4,0.2-0.7,0.3
					c-0.9,0.5-1.8,1.4-2.4,2.5c-0.8,1.2-1.2,2.6-1.2,3.9c0,1.1,0.3,1.9,1,2.2c0.6,0.4,1.5,0.3,2.4-0.3c0.3-0.1,0.5-0.3,0.8-0.5
					c0.1,0.1,0.1,0.3,0.1,0.6c-0.2,0.1-0.4,0.3-0.6,0.4c-0.6,0.4-1.3,0.6-1.8,0.6c-0.4,0-0.8-0.1-1.1-0.3c-0.8-0.5-1.2-1.4-1.2-2.7
					c0-1.3,0.5-2.9,1.3-4.2c0.7-1.1,1.6-2.1,2.6-2.6c0.1-0.1,0.2-0.1,0.4-0.2c1-0.5,1.9-0.5,2.6-0.1
					C366.9,69.1,367.4,69.9,367.5,70.9z"/>
			</g>
			<g>
				<path class="st1" d="M367.5,79.5c0.4-0.2,0.7,0,0.7,0.4c0,0.5-0.3,1.1-0.7,1.3c-0.4,0.2-0.7,0-0.7-0.4
					C366.7,80.3,367.1,79.7,367.5,79.5z"/>
				<path class="st8" d="M371.5,73.3L371,73c-0.1-0.7-0.4-1.2-0.9-1.5s-1.1-0.3-1.8,0c-0.2,0.1-0.4,0.2-0.7,0.3
					c-0.9,0.5-1.8,1.4-2.4,2.5c-0.8,1.2-1.2,2.6-1.2,3.9c0,1.1,0.4,1.9,1,2.2c0.6,0.4,1.5,0.3,2.4-0.3c0.3-0.2,0.5-0.3,0.8-0.5
					c0.1,0.1,0.1,0.3,0.1,0.6c-0.2,0.2-0.4,0.3-0.6,0.4c-0.6,0.4-1.3,0.6-1.8,0.6c-0.4,0-0.8-0.1-1.1-0.3c-0.8-0.5-1.2-1.4-1.2-2.7
					c0-1.3,0.5-2.8,1.3-4.2c0.7-1.1,1.6-2.1,2.6-2.6c0.1-0.1,0.2-0.1,0.4-0.2c1-0.5,1.9-0.5,2.6-0.1C371,71.4,371.4,72.2,371.5,73.3
					z"/>
			</g>
		</g>
	</g>
</g>
<g id="Plant">
	<g id="Plant_2_">
		<g id="Pot_4_">
			<g id="Pot_5_">
				<g id="XMLID_868_">
					<g id="XMLID_869_">
						<g id="XMLID_870_">
							<g id="XMLID_877_">
								<path id="XMLID_878_" class="st9" d="M280.7,288c9.2-9.5,14.6-48.2,5.6-55.7h-45.7c-9,7.5-3.6,46.2,5.6,55.7
									c0.1,0.1,0.2,0.2,0.3,0.3c0.1,0.1,0.2,0.2,0.3,0.3c0.3,0.3,0.5,0.5,0.8,0.7c0.1,0.1,0.1,0.1,0.2,0.2
									c0.2,0.2,0.4,0.4,0.7,0.5c0.4,0.3,0.8,0.5,1.2,0.8c7.6,4.4,19.8,4.4,27.4,0l0,0l0,0c0.4-0.2,0.8-0.5,1.2-0.8
									c0.2-0.2,0.4-0.3,0.6-0.5c0.1-0.1,0.2-0.1,0.3-0.2c0.3-0.2,0.6-0.5,0.8-0.7c0.1-0.1,0.2-0.2,0.4-0.4
									C280.6,288.2,280.7,288.1,280.7,288z"/>
							</g>
							<g id="XMLID_875_">
								<path id="XMLID_876_" class="st0" d="M244.7,229.3c-10.4,6.1-10.4,16,0,22c10.4,6.1,27.3,6.1,37.7,0c10.4-6.1,10.4-16,0-22
									C272,223.2,255.1,223.2,244.7,229.3z"/>
							</g>
							<g id="XMLID_873_">
								<path id="XMLID_874_" class="st1" d="M249.7,232.2c-7.7,4.5-7.7,11.7,0,16.2s20.1,4.5,27.7,0c7.7-4.5,7.7-11.7,0-16.2
									C269.7,227.7,257.3,227.7,249.7,232.2z"/>
							</g>
							<g id="XMLID_871_">
								<path id="XMLID_872_" class="st8" d="M277.4,239.9c-7.7-4.5-20.1-4.5-27.7,0c-2.1,1.2-3.6,2.7-4.6,4.3
									c0.9,1.6,2.5,3,4.6,4.3c7.7,4.5,20.1,4.5,27.7,0c2.1-1.2,3.6-2.7,4.6-4.3C281,242.6,279.5,241.1,277.4,239.9z"/>
							</g>
						</g>
					</g>
				</g>
			</g>
			<g id="Plants_1_">
				<g id="XMLID_867_">
					<path class="st6" d="M243,161l17.3,13.8l-16.8-7.7c0,0-0.1,8.4,2.9,15.9c0,0,8.3,4.9,13.1,9.3l-12.9-5.1c0,0-0.9,8.5,2.6,21.4
						c0.9,3.4,4.7,9.8,7.1,14.7c1.1,2.2,2.3,4.4,3.7,6.4c0.1,0.1,0.2,0.3,0.3,0.4c2.9-1.7,6-3.3,9.2-4.9c2.1-4.3,4.8-15.1,5.7-23.9
						c3.7-33.7-21.7-52.9-42.2-59.4C233.2,141.8,240.2,150.6,243,161z"/>
					<path class="st10" d="M257.5,162.4c3.5,3.6,5.6,8.2,7.2,12.9s2.6,9.6,3.1,14.6c1,9.9-0.1,20-3.7,29.2l0,0
						c-0.1,0.3,0,0.5,0.3,0.6s0.5,0,0.6-0.3l0,0c3.5-9.5,4.4-19.7,3.2-29.6c-0.6-5-1.7-9.9-3.3-14.6
						C263.3,170.6,261.1,165.9,257.5,162.4z"/>
				</g>
				<g>
					<path class="st0" d="M318.1,178.7L318.1,178.7c-0.5,0.5-7.6,9-18.2,25.5l-17.6,2.8l13,2.3l-7,11l-17.3,3.6l13.5,2.2
						c0,0-3.8,13.2-13.4,18.7c-5.3,3-8,3.5-9.6,2c-1.1-1.1-1.4-7.4-2.3-13s-1-14.8,4.3-25.9c1.4-2.9,3.3-5.7,5.5-8.1
						C281.9,185.4,306.1,178.5,318.1,178.7z"/>
					<path class="st10" d="M299.7,184.4c-9.1,4-17.7,9.5-24.5,16.9c-3.4,3.7-6.3,7.9-8.4,12.4c-2.1,4.6-3.4,9.5-3.8,14.5v0.1
						c0,0,0,0,0.1,0c1-4.9,2.4-9.6,4.6-14.1c2.1-4.5,4.8-8.6,8.1-12.3C282.3,194.4,290.8,188.8,299.7,184.4
						C299.8,184.5,299.8,184.5,299.7,184.4C299.8,184.4,299.7,184.4,299.7,184.4z"/>
				</g>
				<path class="st6" d="M213.3,185.9L213.3,185.9c1.3,0,2.8,0,4.4,0.2c4.9,0.5,10.9,1.9,16.9,4.1c2,0.8,4.1,1.6,6.1,2.6
					c1,0.5,2,1,3,1.5c4.9,2.6,9.4,5.9,13,9.8c1.8,1.9,3.3,4,4.5,6.3c0.2,0.3,0.3,0.6,0.5,0.9l0,0c0.4,0.8,0.7,1.5,1,2.3
					c3.7,8.5,4.1,14.3,3.8,20.8c-0.2,5.1-1.9,10.8-2.9,11.8c-0.1,0.1-0.3,0.2-0.4,0.3c-1.4,0.9-3.7,0.4-8-2
					c-8.6-4.8-11.9-16.9-11.9-16.9l11.9-2l-15.3-3.1l-6.2-9.7l11.4-2.1l-15.5-2.4C220,193.8,213.7,186.4,213.3,185.9L213.3,185.9
					L213.3,185.9z"/>
				<path class="st11" d="M217.7,186.1c4.9,0.5,10.9,1.9,16.9,4.1c2,0.8,4.1,1.6,6.1,2.6c1,0.5,2,1,3,1.5c4.9,2.6,9.4,5.9,13,9.8
					c1.8,1.9,3.3,4,4.5,6.3c0.2,0.3,0.3,0.6,0.5,0.9l0,0c0.4,0.8,0.7,1.5,1,2.3c3.7,8.5,4.1,14.3,3.8,20.8
					c-0.2,5.1-1.9,10.8-2.9,11.8c-0.1,0.1-0.3,0.2-0.4,0.3c-0.3,0.2-0.6,0.3-0.9,0.3c1.1-7.8-2.8-27.7-8.6-35.9
					c-6.1-8.5-20.5-20.8-40.2-25.1l0,0C214.6,185.9,216.1,186,217.7,186.1z"/>
				<path class="st10" d="M262.2,246.9c0.4-5.8,0-11.6-1.1-17.3s-2.9-11.3-5.7-16.4c-2.9-5.1-7.1-9.3-11.6-13
					c-4.6-3.6-9.6-6.7-14.9-8.9h-0.1c0,0,0,0,0,0.1c5.1,2.8,9.9,5.9,14.3,9.6c2.2,1.8,4.4,3.8,6.3,5.9c2,2.1,3.8,4.3,5.3,6.8
					c2.9,5,4.7,10.5,5.9,16.1C261.8,235.3,262.4,241.1,262.2,246.9C262.1,246.9,262.1,246.9,262.2,246.9L262.2,246.9z"/>
			</g>
		</g>
	</g>
</g>
<g id="Diplomas">
	<g id="Diploma_3_">
		<g id="Window_2_">
			<polygon id="XMLID_852_" class="st6" points="232.3,80.4 233.6,81.2 267.2,61.8 265.8,61 			"/>
			<g id="XMLID_848_">
				<g id="XMLID_849_">
					<g id="XMLID_850_">
						<polygon id="XMLID_851_" class="st8" points="265.8,61 233.6,79.6 233.6,51.7 265.8,33.1 						"/>
					</g>
				</g>
			</g>
			<path id="XMLID_845_" class="st9" d="M268.5,30l-36.3,20.9v32.6l36.3-20.9V30z M267.2,61.8l-33.6,19.4V51.7l33.6-19.4V61.8z"/>
			<polygon id="XMLID_844_" class="st1" points="267.2,61.8 265.8,61 265.8,33.1 267.2,32.3 			"/>
			<polygon id="XMLID_839_" class="st0" points="268.5,30 267.2,29.2 230.9,50.1 232.3,50.9 			"/>
			<polygon id="XMLID_837_" class="st1" points="230.9,50.1 232.3,50.9 232.3,83.5 230.9,82.7 			"/>
		</g>
		<path class="st1" d="M259.5,56.3c1.3-0.7,2.3-0.1,2.3,1.3c0,1.4-1,3.2-2.3,3.9s-2.3,0.1-2.3-1.3S258.3,57,259.5,56.3z"/>
		<path class="st1" d="M241.2,50.4l17.1-9.9c0.5-0.3,0.9-0.1,0.9,0.5l0,0c0,0.5-0.4,1.2-0.9,1.5l-17.1,9.9c-0.5,0.3-0.9,0.1-0.9-0.5
			v-0.1C240.3,51.4,240.7,50.7,241.2,50.4z"/>
		<g>
			<path class="st6" d="M238.5,58.2l22.5-13c0.5-0.3,0.9-0.1,0.9,0.3s-0.4,1-0.9,1.3l-22.5,13c-0.5,0.3-0.9,0.1-0.9-0.3
				C237.6,59,238,58.5,238.5,58.2z"/>
			<path class="st6" d="M238.5,61.3l22.5-13c0.5-0.3,0.9-0.1,0.9,0.3c0,0.4-0.4,1-0.9,1.3l-22.5,13c-0.5,0.3-0.9,0.1-0.9-0.3
				C237.6,62.1,238,61.6,238.5,61.3z"/>
			<path class="st6" d="M238.5,64.4l22.5-13c0.5-0.3,0.9-0.1,0.9,0.3s-0.4,1-0.9,1.3l-22.5,13c-0.5,0.3-0.9,0.1-0.9-0.3
				C237.6,65.2,238,64.6,238.5,64.4z"/>
		</g>
		<path class="st1" d="M255.5,62.9c-0.2,0.1-0.4,0.1-0.6,0.1c-0.5,0-0.4-0.5-0.4-0.8c0-0.2-0.2-0.4-0.3-0.2c-0.3,0.5-0.7,1-1,1.5
			c-0.2,0.3-0.6,1-1,0.9c-0.2,0-0.3-0.2-0.3-0.5c0.2-0.4,0.4-0.9,0.3-1.4c0-0.1-0.3-0.3-0.3-0.1c-0.1,0.3-0.3,0.8-0.3,1.3
			c-0.2,0.4-0.5,0.8-0.7,1.1c-0.2,0.2-0.3,0.4-0.5,0.6c0,0-0.1,0.2-0.2,0.2c-0.2,0-0.1-0.1-0.2-0.2c0-0.1,0-0.3,0.1-0.5l0,0l0,0l0,0
			c0-0.2-0.2-0.4-0.3-0.2c-0.3,0.7-0.7,1.6-1.3,2.2c0,0-0.1,0-0.1,0.1c0-0.1,0-0.2,0-0.3c0-0.2,0-0.4-0.1-0.6c0-0.1-0.2-0.2-0.3-0.1
			c-0.5,0.7-0.9,1.5-1.5,2.1l-0.3,0.2c-0.1-0.1,0.1-0.6,0.1-0.7c0.1-0.2,0.1-0.5,0.2-0.7c0.1-0.2,0.1-0.4,0.2-0.6
			c0-0.2-0.3-0.5-0.3-0.2c0,0.1-0.1,0.3-0.2,0.7c-0.3,0.7-0.8,1.5-1.3,2.1c-0.5,0.7-1,1.3-1.8,1.7c-0.2,0.1-0.6,0.3-0.8,0.1
			c-0.2-0.1-0.2-0.4-0.2-0.6c0-0.5,0.1-1.1,0.2-1.6c0.7-0.4,1.3-0.8,1.9-1.4c0.5-0.5,1.1-1,1.5-1.6c0.2-0.4,0.3-1-0.2-1.2
			c-0.3-0.1-0.8,0.1-1,0.3c-0.4,0.2-0.8,0.5-1.1,0.8c-0.6,0.7-1.1,1.6-1.3,2.5c0,0.1-0.1,0.3-0.2,0.5c-0.7,0.4-1.6,0.5-2.5,0.4
			c0,0-0.1,0.1,0,0.1c0.9,0.2,1.7,0.1,2.4-0.2c-0.2,0.9-0.3,2.2,0.5,2.4c0.9,0.3,1.9-0.9,2.4-1.5c0.4-0.5,0.7-1,0.9-1.5l0.1-0.1
			c0,0.4,0.1,0.8,0.5,0.7c0.4-0.1,0.8-0.7,1.1-1c0.2-0.3,0.4-0.6,0.6-1c0,0.4,0.1,0.8,0.5,0.8c0.4-0.1,0.7-0.7,0.9-1
			c0.2-0.2,0.3-0.5,0.4-0.7c0,0,0,0.1,0.1,0.1c0.3,0.3,0.7,0,0.9-0.3c0.3-0.4,0.6-0.8,0.9-1.2c0.1,0.2,0.2,0.3,0.4,0.4
			c0.5,0.2,0.9-0.2,1.2-0.5c0.3-0.4,0.6-0.9,0.9-1.5c0,0.2,0.1,0.3,0.3,0.5c0.4,0.2,0.8,0.1,1.1-0.1
			C255.8,63.2,255.6,62.9,255.5,62.9z M245,64.8c0.2-0.1,0.7-0.3,0.7,0.1c0,0.2-0.2,0.5-0.3,0.7c-0.4,0.5-0.8,1-1.3,1.4
			c-0.5,0.5-1.1,0.9-1.6,1.2C242.8,66.8,243.6,65.5,245,64.8z"/>
	</g>
	<g id="Diploma_4_">
		<g id="Window_3_">
			<polygon id="XMLID_865_" class="st6" points="232.3,125.9 233.6,126.7 267.2,107.3 265.8,106.6 			"/>
			<g id="XMLID_859_">
				<g id="XMLID_860_">
					<g id="XMLID_861_">
						<polygon id="XMLID_864_" class="st8" points="265.8,106.6 233.6,125.2 233.6,97.2 265.8,78.6 						"/>
					</g>
				</g>
			</g>
			<path id="XMLID_856_" class="st9" d="M268.5,75.5l-36.3,20.9V129l36.3-20.9V75.5z M267.2,107.3l-33.6,19.4V97.2l33.6-19.4V107.3z
				"/>
			<polygon id="XMLID_855_" class="st1" points="267.2,107.3 265.8,106.6 265.8,78.6 267.2,77.8 			"/>
			<polygon id="XMLID_854_" class="st0" points="268.5,75.5 267.2,74.7 230.9,95.7 232.3,96.5 			"/>
			<polygon id="XMLID_853_" class="st1" points="230.9,95.7 232.3,96.5 232.3,129 230.9,128.3 			"/>
		</g>
		<path class="st1" d="M259.5,101.9c1.3-0.7,2.3-0.1,2.3,1.3s-1,3.2-2.3,3.9s-2.3,0.1-2.3-1.3S258.3,102.6,259.5,101.9z"/>
		<path class="st1" d="M241.2,96l17.1-9.9c0.5-0.3,0.9-0.1,0.9,0.5l0,0c0,0.5-0.4,1.2-0.9,1.5L241.2,98c-0.5,0.3-0.9,0.1-0.9-0.5
			v-0.1C240.3,96.9,240.7,96.2,241.2,96z"/>
		<g>
			<path class="st6" d="M238.5,103.7l22.5-13c0.5-0.3,0.9-0.1,0.9,0.3s-0.4,1-0.9,1.3l-22.5,13c-0.5,0.3-0.9,0.1-0.9-0.3
				S238,104,238.5,103.7z"/>
			<path class="st6" d="M238.5,106.8l22.5-13c0.5-0.3,0.9-0.1,0.9,0.3s-0.4,1-0.9,1.3l-22.5,13c-0.5,0.3-0.9,0.1-0.9-0.3
				C237.6,107.7,238,107.1,238.5,106.8z"/>
			<path class="st6" d="M238.5,109.9l22.5-13c0.5-0.3,0.9-0.1,0.9,0.3s-0.4,1-0.9,1.3l-22.5,13c-0.5,0.3-0.9,0.1-0.9-0.3
				S238,110.2,238.5,109.9z"/>
		</g>
		<path class="st1" d="M255.5,108.5c-0.2,0.1-0.4,0.1-0.6,0.1c-0.5,0-0.4-0.5-0.4-0.8c0-0.2-0.2-0.4-0.3-0.2c-0.3,0.5-0.7,1-1,1.5
			c-0.2,0.3-0.6,1-1,0.9c-0.2,0-0.3-0.2-0.3-0.5c0.2-0.4,0.4-0.9,0.3-1.4c0-0.1-0.3-0.3-0.3-0.1c-0.1,0.3-0.3,0.8-0.3,1.3
			c-0.2,0.4-0.5,0.8-0.7,1.1c-0.2,0.2-0.3,0.4-0.5,0.6c0,0-0.1,0.2-0.2,0.2c-0.2,0-0.1-0.1-0.2-0.2c0-0.1,0-0.3,0.1-0.5l0,0l0,0l0,0
			c0-0.2-0.2-0.4-0.3-0.2c-0.3,0.7-0.7,1.6-1.3,2.2c0,0-0.1,0-0.1,0.1c0-0.1,0-0.2,0-0.3c0-0.2,0-0.4-0.1-0.6c0-0.1-0.2-0.2-0.3-0.1
			c-0.5,0.7-0.9,1.5-1.5,2.1l-0.3,0.2c-0.1-0.1,0.1-0.6,0.1-0.7c0.1-0.2,0.1-0.5,0.2-0.7c0.1-0.2,0.1-0.4,0.2-0.6
			c0-0.2-0.3-0.5-0.3-0.2c0,0.1-0.1,0.3-0.2,0.7c-0.3,0.7-0.8,1.5-1.3,2.1c-0.5,0.7-1,1.3-1.8,1.7c-0.2,0.1-0.6,0.3-0.8,0.1
			c-0.2-0.1-0.2-0.4-0.2-0.6c0-0.5,0.1-1.1,0.2-1.6c0.7-0.4,1.3-0.8,1.9-1.4c0.5-0.5,1.1-1,1.5-1.6c0.2-0.4,0.3-1-0.2-1.2
			c-0.3-0.1-0.8,0.1-1,0.3c-0.4,0.2-0.8,0.5-1.1,0.8c-0.6,0.7-1.1,1.6-1.3,2.5c0,0.1-0.1,0.3-0.2,0.5c-0.7,0.4-1.6,0.5-2.5,0.4
			c0,0-0.1,0.1,0,0.1c0.9,0.2,1.7,0.1,2.4-0.2c-0.2,0.9-0.3,2.2,0.5,2.4c0.9,0.3,1.9-0.9,2.4-1.5c0.4-0.5,0.7-1,0.9-1.5l0.1-0.1
			c0,0.4,0.1,0.8,0.5,0.7c0.4-0.1,0.8-0.7,1.1-1c0.2-0.3,0.4-0.6,0.6-1c0,0.4,0.1,0.8,0.5,0.8c0.4-0.1,0.7-0.7,0.9-1
			c0.2-0.2,0.3-0.5,0.4-0.7c0,0,0,0.1,0.1,0.1c0.3,0.3,0.7,0,0.9-0.3c0.3-0.4,0.6-0.8,0.9-1.2c0.1,0.2,0.2,0.3,0.4,0.4
			c0.5,0.2,0.9-0.2,1.2-0.5c0.3-0.4,0.6-0.9,0.9-1.5c0,0.2,0.1,0.3,0.3,0.5c0.4,0.2,0.8,0.1,1.1-0.1
			C255.8,108.7,255.6,108.4,255.5,108.5z M245,110.4c0.2-0.1,0.7-0.3,0.7,0.1c0,0.2-0.2,0.5-0.3,0.7c-0.4,0.5-0.8,1-1.3,1.4
			c-0.5,0.5-1.1,0.9-1.6,1.2C242.8,112.3,243.6,111,245,110.4z"/>
	</g>
</g>
<g id="Table">
	<g id="Table_2_">
		<g>
			<path id="XMLID_836_" class="st1" d="M73.1,394.1h10.5l-1.7,10.2l0,0c-0.1,0.5-0.4,0.9-1,1.3c-1.4,0.8-3.7,0.8-5.1,0
				c-0.6-0.4-0.9-0.8-1-1.3l0,0L73.1,394.1z"/>
			<path id="XMLID_835_" class="st5" d="M73.1,394.1h10.5l-1.7,10.2l0,0c-0.1,0.5-0.4,0.9-1,1.3c-1.4,0.8-3.7,0.8-5.1,0
				c-0.6-0.4-0.9-0.8-1-1.3l0,0L73.1,394.1z"/>
			<path id="XMLID_834_" class="st1" d="M222.3,308h10.5l-1.7,10.2l0,0c-0.1,0.5-0.4,0.9-1,1.3c-1.4,0.8-3.7,0.8-5.1,0
				c-0.6-0.4-0.9-0.8-1-1.3l0,0L222.3,308z"/>
			<path id="XMLID_833_" class="st5" d="M222.3,308h10.5l-1.7,10.2l0,0c-0.1,0.5-0.4,0.9-1,1.3c-1.4,0.8-3.7,0.8-5.1,0
				c-0.6-0.4-0.9-0.8-1-1.3l0,0L222.3,308z"/>
			<path id="XMLID_820_" class="st1" d="M42.5,376.5H53l-1.7,10.2l0,0c-0.1,0.5-0.4,0.9-1,1.3c-1.4,0.8-3.7,0.8-5.1,0
				c-0.6-0.4-0.9-0.8-1-1.3l0,0L42.5,376.5z"/>
			<path id="XMLID_819_" class="st5" d="M42.5,376.5H53l-1.7,10.2l0,0c-0.1,0.5-0.4,0.9-1,1.3c-1.4,0.8-3.7,0.8-5.1,0
				c-0.6-0.4-0.9-0.8-1-1.3l0,0L42.5,376.5z"/>
		</g>
		<g>
			<polygon class="st9" points="39.9,265.9 39.9,381 78.3,403.2 78.3,288.1 			"/>
			<polygon class="st10" points="78.3,403.2 239.1,310.4 239.1,195.4 78.3,288.1 			"/>
			<polygon class="st11" points="127.4,374.9 129.4,373.7 129.4,258.7 127.4,259.8 			"/>
			<polygon class="st11" points="197.5,334.4 199.5,333.2 199.5,218.2 197.5,219.4 			"/>
			<g>
				<path class="st9" d="M244.5,196.1c0-0.5-0.3-0.9-0.9-1.3l-41.9-24.2c-1.2-0.7-3.2-0.7-4.4,0l-163,94.1c-0.6,0.4-0.9,0.8-0.9,1.3
					s0,2.5,0,2.9c0,0.5,0.3,0.9,0.9,1.3l41.9,24.2c1.2,0.7,3.2,0.7,4.4,0l163.1-94.1c0.6-0.4,0.9-0.8,0.9-1.3
					C244.5,198.5,244.5,196.5,244.5,196.1z"/>
				<path class="st1" d="M33.3,265.9c0,0.5,0,2.5,0,2.9c0,0.5,0.3,0.9,0.9,1.3l41.9,24.2c0.6,0.4,1.4,0.5,2.2,0.5l36.2-50.2l-30.1-9
					l-50.2,29C33.6,265,33.3,265.5,33.3,265.9z"/>
				<path class="st0" d="M197.3,170.6l-163,94.1c-1.2,0.7-1.2,1.8,0,2.6l41.9,24.2c1.2,0.7,3.2,0.7,4.4,0l163.1-94.1
					c1.2-0.7,1.2-1.8,0-2.6l-41.9-24.2C200.5,169.9,198.6,169.9,197.3,170.6z"/>
			</g>
		</g>
		<g id="XMLID_815_">
			<path id="XMLID_816_" class="st1" d="M94,296.2c0,0.7,2.1,0.1,4.7-1.5l6.3-3.6c2.6-1.5,4.7-3.3,4.7-4v-1.3L94,295
				C94,295,94,295.5,94,296.2z"/>
		</g>
		<g id="XMLID_797_">
			<path id="XMLID_798_" class="st1" d="M207.6,230.7c0,0.7,2.1,0.1,4.7-1.5l6.3-3.6c2.6-1.5,4.7-3.3,4.7-4v-1.3l-15.7,9.1
				C207.6,229.4,207.6,230,207.6,230.7z"/>
		</g>
		<g id="XMLID_795_">
			<path id="XMLID_796_" class="st1" d="M154.8,270.6c0,0.7,2.1,0.1,4.7-1.5l6.3-3.6c2.6-1.5,4.7-3.3,4.7-4v-1.3l-15.7,9.1
				C154.8,269.3,154.8,269.9,154.8,270.6z"/>
		</g>
		<g id="XMLID_793_">
			<path id="XMLID_794_" class="st1" d="M154.8,297.8c0,0.7,2.1,0.1,4.7-1.5l6.3-3.6c2.6-1.5,4.7-3.3,4.7-4v-1.3l-15.7,9.1
				C154.8,296.6,154.8,297.1,154.8,297.8z"/>
		</g>
		<g id="XMLID_791_">
			<path id="XMLID_792_" class="st1" d="M154.8,337c0,0.7,2.1,0.1,4.7-1.5l6.3-3.6c2.6-1.5,4.7-3.3,4.7-4v-1.3l-15.7,9.1
				C154.8,335.7,154.8,336.3,154.8,337z"/>
		</g>
		<polygon class="st11" points="198.5,262.3 128.1,302.9 128.1,305.2 198.5,264.5 		"/>
		<polygon class="st11" points="198.5,301.4 128.1,342.1 128.1,344.3 198.5,303.7 		"/>
	</g>
</g>
<g id="Board_1_">
	<g id="Board_2_">
		<g id="Board">
			<path class="st1" d="M173.3,36.6l0.9,0.5v127.4c0,3-1.8,6.5-4.1,7.8L44.6,244.9c-1,0.6-1.9,0.6-2.6,0.3c-0.2-0.1-0.9-0.5-1.1-0.6
				c-0.9-0.5-1.4-1.7-1.4-3.3V113.8L173.3,36.6z"/>
			<g id="XMLID_6801_">
				<path class="st8" d="M43,244.9c-1.2,0-2-1.2-2-3.1V114.6L173.8,38v126.6c0,2.8-1.7,6.2-3.8,7.4L44.4,244.4
					C43.9,244.7,43.4,244.9,43,244.9L43,244.9z"/>
				<path class="st1" d="M173.3,38.9v125.7c0,2.6-1.6,5.8-3.6,6.9L44.1,244c-0.4,0.2-0.8,0.4-1.1,0.4c-1.1,0-1.5-1.4-1.5-2.6V114.9
					L173.3,38.9 M174.3,37.1L40.5,114.3v127.4c0,2.2,1,3.6,2.5,3.6c0.5,0,1-0.2,1.6-0.5l125.6-72.5c2.3-1.3,4.1-4.8,4.1-7.8V37.1
					L174.3,37.1z"/>
			</g>
		</g>
		<g id="Tube">
			<path class="st6" d="M39.9,118.3l-3.1-5.4l136.9-79l0,0c0.4-0.3,1-0.2,1.6,0.1c1.2,0.7,2.2,2.4,2.2,3.8c0,0.7-0.2,1.2-0.6,1.4
				l0,0l0,0l0,0L39.9,118.3z"/>
			<path class="st1" d="M40.5,116.9c0-1.4-1-3.1-2.2-3.8c-1.2-0.7-2.2-0.1-2.2,1.3s1,3.1,2.2,3.8C39.5,118.8,40.5,118.3,40.5,116.9z
				"/>
		</g>
		<g>
			<g>
				<path class="st1" d="M143.5,124.7c-0.2,0-0.3-0.1-0.4-0.2c-0.1-0.2-0.1-0.5,0.2-0.7l16.3-9.4c0.2-0.1,0.5-0.1,0.7,0.2
					c0.1,0.2,0.1,0.5-0.2,0.7l-16.3,9.4C143.7,124.7,143.6,124.7,143.5,124.7z"/>
			</g>
			<g>
				<path class="st1" d="M143.5,129.3c-0.2,0-0.3-0.1-0.4-0.2c-0.1-0.2-0.1-0.5,0.2-0.7l16.3-9.4c0.2-0.1,0.5-0.1,0.7,0.2
					c0.1,0.2,0.1,0.5-0.2,0.7l-16.3,9.4C143.7,129.3,143.6,129.3,143.5,129.3z"/>
			</g>
			<g>
				<path class="st1" d="M143.5,133.9c-0.2,0-0.3-0.1-0.4-0.2c-0.1-0.2-0.1-0.5,0.2-0.7l16.3-9.4c0.2-0.1,0.5-0.1,0.7,0.2
					c0.1,0.2,0.1,0.5-0.2,0.7l-16.3,9.4C143.7,133.9,143.6,133.9,143.5,133.9z"/>
			</g>
			<g>
				<path class="st1" d="M143.5,138.5c-0.1,0-0.2,0-0.3-0.1l-14.5-12.5c-0.2-0.2-0.2-0.5-0.1-0.7c0.2-0.2,0.5-0.2,0.7-0.1l14.2,12.3
					l16-9.2c0.2-0.1,0.5-0.1,0.7,0.2c0.1,0.2,0.1,0.5-0.2,0.7l-16.3,9.4C143.7,138.5,143.6,138.5,143.5,138.5z"/>
			</g>
		</g>
		<g>
			<g>
				<path class="st1" d="M136,162.7c-0.2,0-0.3-0.1-0.4-0.2c-0.1-0.2-0.1-0.5,0.2-0.7l16.3-9.4c0.2-0.1,0.5-0.1,0.7,0.2
					c0.1,0.2,0.1,0.5-0.2,0.7l-16.3,9.4C136.1,162.7,136.1,162.7,136,162.7z"/>
			</g>
			<g>
				<path class="st1" d="M136,167.3c-0.2,0-0.3-0.1-0.4-0.2c-0.1-0.2-0.1-0.5,0.2-0.7L152,157c0.2-0.1,0.5-0.1,0.7,0.2
					c0.1,0.2,0.1,0.5-0.2,0.7l-16.3,9.4C136.1,167.3,136.1,167.3,136,167.3z"/>
			</g>
			<g>
				<path class="st1" d="M136,171.9c-0.2,0-0.3-0.1-0.4-0.2c-0.1-0.2-0.1-0.5,0.2-0.7l16.3-9.4c0.2-0.1,0.5-0.1,0.7,0.2
					c0.1,0.2,0.1,0.5-0.2,0.7l-16.3,9.4C136.1,171.9,136.1,171.9,136,171.9z"/>
			</g>
			<g>
				<path class="st1" d="M136,176.5c-0.1,0-0.2,0-0.3-0.1l-14.5-12.5c-0.2-0.2-0.2-0.5-0.1-0.7c0.2-0.2,0.5-0.2,0.7-0.1l14.2,12.3
					l16-9.2c0.2-0.1,0.5-0.1,0.7,0.2c0.1,0.2,0.1,0.5-0.2,0.7l-16.3,9.4C136.1,176.5,136.1,176.5,136,176.5z"/>
			</g>
		</g>
		<g>
			<g>
				<path class="st1" d="M85.1,183.6c0.2-0.2,0.3-0.5,0.4-0.7c0.1-0.4,0.1-0.6-0.2-0.5L69,191.7c-0.2,0.1-0.5,0.6-0.7,1
					c-0.1,0.4-0.1,0.6,0.2,0.5l16.3-9.4C84.9,183.7,85,183.7,85.1,183.6z"/>
			</g>
			<g>
				<path class="st1" d="M85.1,188.2c0.2-0.2,0.3-0.5,0.4-0.7c0.1-0.4,0.1-0.6-0.2-0.5L69,196.3c-0.2,0.1-0.5,0.6-0.7,1
					c-0.1,0.4-0.1,0.6,0.2,0.5l16.3-9.4C84.9,188.3,85,188.3,85.1,188.2z"/>
			</g>
			<g>
				<path class="st1" d="M85.1,192.8c0.2-0.2,0.3-0.5,0.4-0.7c0.1-0.4,0.1-0.6-0.2-0.5L69,200.9c-0.2,0.1-0.5,0.6-0.7,1
					c-0.1,0.4-0.1,0.6,0.2,0.5l16.3-9.4C84.9,192.9,85,192.9,85.1,192.8z"/>
			</g>
			<g>
				<path class="st1" d="M85.6,197.1c0.1-0.1,0.2-0.3,0.3-0.5l10.8-21.7c0.1-0.3,0.2-0.6-0.1-0.8c-0.4-0.2-0.6,0.2-0.8,0.4L85,196.3
					l-16,9.2c-0.2,0.1-0.5,0.6-0.7,1c-0.1,0.4-0.1,0.6,0.2,0.5l16.3-9.4C84.9,197.5,85.5,197.2,85.6,197.1z"/>
			</g>
		</g>
		<g>
			<g>
				<path class="st1" d="M67.5,164c0.2-0.2,0.3-0.5,0.4-0.7c0.1-0.4,0.1-0.6-0.2-0.5l-16.3,9.4c-0.2,0.1-0.5,0.6-0.7,1
					c-0.1,0.4-0.1,0.6,0.2,0.5l16.3-9.4C67.3,164.2,67.4,164.1,67.5,164z"/>
			</g>
			<g>
				<path class="st1" d="M67.5,168.6c0.2-0.2,0.3-0.5,0.4-0.7c0.1-0.4,0.1-0.6-0.2-0.5l-16.3,9.4c-0.2,0.1-0.5,0.6-0.7,1
					c-0.1,0.4-0.1,0.6,0.2,0.5l16.3-9.4C67.3,168.8,67.4,168.7,67.5,168.6z"/>
			</g>
			<g>
				<path class="st1" d="M67.5,173.2c0.2-0.2,0.3-0.5,0.4-0.7c0.1-0.4,0.1-0.6-0.2-0.5l-16.3,9.4c-0.2,0.1-0.5,0.6-0.7,1
					c-0.1,0.4-0.1,0.6,0.2,0.5l16.3-9.4C67.3,173.4,67.4,173.3,67.5,173.2z"/>
			</g>
			<g>
				<path class="st1" d="M68,177.6c0.1-0.1,0.2-0.3,0.3-0.5l10.8-21.7c0.1-0.3,0.2-0.6-0.1-0.8c-0.4-0.2-0.6,0.2-0.8,0.4l-10.8,21.8
					l-16,9.2c-0.2,0.1-0.5,0.6-0.7,1c-0.1,0.4-0.1,0.6,0.2,0.5l16.3-9.4C67.3,178,67.9,177.7,68,177.6z"/>
			</g>
		</g>
		<g id="Uterus">
			<g>
				<path class="st2" d="M134.7,105.4c-1.3,2.2-1.7,4.2-4.1,4.6c-2.4,0.4-5.3,0.3-6,0.1c-0.7-0.2-0.3-2.8-0.3-2.8s-2.2,5.3-1.3,8.4
					c0.7-1.9,1.1-2.8,2.6-3.5s4.7-1.4,5.6-0.3c1,1.1,1.8,4.8,5.7,2.9L134.7,105.4z"/>
				<path class="st12" d="M134.7,105.4c-1.3,2.2-1.7,4.2-4.1,4.6c-2.4,0.4-5.3,0.3-6,0.1c-0.7-0.2-0.3-2.8-0.3-2.8s-2.2,5.3-1.3,8.4
					c0.7-1.9,1.1-2.8,2.6-3.5s4.7-1.4,5.6-0.3c1,1.1,1.8,4.8,5.7,2.9L134.7,105.4z"/>
			</g>
			<g>
				<path class="st2" d="M81.4,136.2c1.3,0.7,1.7,2.3,4.1-0.1c2.4-2.4,5.3-5.8,6-6.9c0.7-1,0.3-3.1,0.3-3.1s2.2,2.7,1.3,6.9
					c-0.7-1.2-1.1-1.6-2.6-0.5s-4.7,4.1-5.6,6.3c-1,2.2-1.8,6.9-5.7,9.5L81.4,136.2z"/>
				<path class="st12" d="M81.4,136.2c1.3,0.7,1.7,2.3,4.1-0.1c2.4-2.4,5.3-5.8,6-6.9c0.7-1,0.3-3.1,0.3-3.1s2.2,2.7,1.3,6.9
					c-0.7-1.2-1.1-1.6-2.6-0.5s-4.7,4.1-5.6,6.3c-1,2.2-1.8,6.9-5.7,9.5L81.4,136.2z"/>
			</g>
			<g>
				<path class="st2" d="M102.9,198.5c1-10.5-1.6-15.8-2.5-23.4c-0.9-7.7-0.5-12.9,1-20.7c1.4-7.8-2.6-7-6-14.9s-2.5-12.1-4.6-16.6
					s-12.4-1.4-16.9-3.9s-10.2-1.9-12.8,1.6c-3.1,4.2-2.4,9.8,2,13s9.4-3.4,12.2-2.5c-2.9,2.1-1.8,4-1.8,4s-5.3,12.7-6.2,13.9
					c-0.9,1.2,0,4.5,0,4.5S56,142.4,56,129.5s10-17.1,15.6-15.1c5.6,2.1,9.2,3.3,16.1,1.1c6.9-2.2,9.4-15.3,20.4-21.6
					c11-6.3,13.5,3.8,20.4-1.9c6.9-5.7,10.4-11.1,16.1-19.7c5.6-8.6,15.6-15.9,15.6-3s-11.3,37-11.3,37s0.9-4.4,0-4.5
					s-6.2-6.8-6.2-6.8s1.1-3.2-1.8-1.9c2.9-4.2,7.8-3.3,12.2-11.6s5.1-14.7,2-15.3c-2.5-0.5-8.3,5.6-12.8,13.2s-14.9,16.6-16.9,23.4
					c-2,6.9-1.2,10.1-4.6,21.9s-7.5,15.7-6,21.9c1.4,6.1,1.9,10.8,1,19.6s-3.6,17-2.5,26.4C109.8,191.9,106.4,193.7,102.9,198.5z"/>
				<path class="st13" d="M102.9,198.5c1-10.5-1.6-15.8-2.5-23.4c-0.9-7.7-0.5-12.9,1-20.7c1.4-7.8-2.6-7-6-14.9s-2.5-12.1-4.6-16.6
					s-12.4-1.4-16.9-3.9s-10.2-1.9-12.8,1.6c-3.1,4.2-2.4,9.8,2,13s9.4-3.4,12.2-2.5c-2.9,2.1-1.8,4-1.8,4s-5.3,12.7-6.2,13.9
					c-0.9,1.2,0,4.5,0,4.5S56,142.4,56,129.5s10-17.1,15.6-15.1c5.6,2.1,9.2,3.3,16.1,1.1c6.9-2.2,9.4-15.3,20.4-21.6
					c11-6.3,13.5,3.8,20.4-1.9c6.9-5.7,10.4-11.1,16.1-19.7c5.6-8.6,15.6-15.9,15.6-3s-11.3,37-11.3,37s0.9-4.4,0-4.5
					s-6.2-6.8-6.2-6.8s1.1-3.2-1.8-1.9c2.9-4.2,7.8-3.3,12.2-11.6s5.1-14.7,2-15.3c-2.5-0.5-8.3,5.6-12.8,13.2s-14.9,16.6-16.9,23.4
					c-2,6.9-1.2,10.1-4.6,21.9s-7.5,15.7-6,21.9c1.4,6.1,1.9,10.8,1,19.6s-3.6,17-2.5,26.4C109.8,191.9,106.4,193.7,102.9,198.5z"/>
			</g>
			<g class="st14">
				<path class="st2" d="M87.7,117.8c-7.3,0.8-11.6-0.2-17.8-2.1s-11,2.6-12.5,8.8c-1.1,4.4,0.3,12.2,3.7,16.7
					c3.4,4.5,6.3,5.4,6.3,5.4l3.5-9.8c0,0-4.1,2.4-7.4,0.2c-3.3-2.1-5.9-6.5-5-12.5c0.9-5.9,6.4-9.3,11.4-7.9
					C74.9,118.2,79.2,119.3,87.7,117.8z"/>
				<path class="st2" d="M128.4,94.3c7.3-7.6,11.6-13.6,17.8-22.7c6.2-9.2,11-10,12.5-5.6c1.1,3.1-0.3,12.5-3.7,20.9
					s-6.3,12.7-6.3,12.7l-3.5-5.8c0,0,4.1-2.4,7.4-8.3c3.3-5.9,5.9-13.3,5-18.2c-0.9-4.9-6.4-2-11.4,5.3
					C141.2,79.9,136.9,86,128.4,94.3z"/>
				<path class="st2" d="M108,111.8c-4.1,2.4-15.4,6.3-20.4,6.1c4,0.1,8.6,0.9,10.7,3.4c2.2,2.5,2.4,8,4,10.1
					c1.6,2.2,5.5,3.3,5.6,9.8c0.2-6.7,4-12.3,5.6-16.4c1.6-4,1.8-9.7,4-14.7s6.7-11.1,10.7-15.8C123.5,100.2,112.1,109.4,108,111.8z
					"/>
				<path class="st2" d="M108,193.5c1.3-0.7,2.4-1,3.6-1c0-17.3,0.8-24.4,2.1-27.3c1.4-2.8,1.8-4.7,1.3-5.1
					c-0.5-0.4-2.8,4.2-4.5,4.5s-2.5-0.8-2.5-3.1c0,2.3-0.8,4.4-2.5,6s-4-0.3-4.5,0.7s-0.1,2.4,1.3,3.6c1.4,1.3,2.1,7.5,2.1,24.8
					C105.7,195.3,106.8,194.2,108,193.5"/>
				<path class="st2" d="M108,141.2c0.2,3.3,0.3,6.6,0.3,10s-0.1,6.8-0.3,10.4c-0.2-3.3-0.3-6.6-0.3-10S107.8,144.7,108,141.2z"/>
			</g>
			<path class="st9" d="M82.6,141.8c-0.8,4.7-4.9,9-9.1,9.6c-4.3,0.6-7.1-2.7-6.3-7.3c0.8-4.7,4.9-9,9.1-9.6
				C80.5,133.8,83.3,137.1,82.6,141.8z"/>
			
				<ellipse transform="matrix(0.5422 -0.8403 0.8403 0.5422 -23.2089 166.4992)" class="st9" cx="141.2" cy="104.5" rx="11.9" ry="5.4"/>
		</g>
	</g>
</g>
<g id="Character_2">
	<g id="Character_8_">
		<g id="Chair_2_">
			<g>
				<g>
					<g>
						<path class="st15" d="M314.1,326.2c-0.4,0-0.7-0.2-0.9-0.6L293.7,282c-0.2-0.5,0-1.1,0.5-1.3c0.5-0.2,1.1,0,1.3,0.5l19.4,43.6
							c0.2,0.5,0,1.1-0.5,1.3C314.3,326.2,314.2,326.2,314.1,326.2z"/>
					</g>
					<g>
						<path class="st16" d="M293.7,274.7c-1.1-0.6-2.5-0.4-3,0.6c-0.3,0.5-0.3,1.1-0.1,1.6l3.1,8.8c0.2,0.5,0.6,1,1.1,1.3
							c1.1,0.6,2.5,0.4,3-0.6c0.3-0.5,0.3-1.1,0.1-1.6l-3.1-8.8C294.7,275.5,294.3,275,293.7,274.7z"/>
						<path class="st15" d="M294.9,276c-0.2-0.5-0.6-1-1.1-1.3c-1.1-0.6-2.5-0.4-3,0.6c-0.3,0.5-0.3,1.1-0.1,1.6l1.9,5.6l3.8-2.2
							L294.9,276z"/>
						<path class="st17" d="M290.7,275.3c0.6-1,1.9-1.2,3-0.6c0.6,0.3,1,0.8,1.1,1.3c0.2,0.5,0.2,1.1-0.1,1.6c-0.6,1-1.9,1.2-3,0.6
							c-0.6-0.3-1-0.8-1.1-1.3C290.4,276.3,290.4,275.7,290.7,275.3z"/>
					</g>
					<g>
						<path class="st17" d="M295,271.7l-7.3,4.2v3.8c0,2.1-0.7,3.5-1.8,4.3l-0.3,0.2c-1.1,0.5-2.5,0.4-4-0.5
							c-3.4-1.9-6.1-6.9-6.1-11v-3.8l16.2-9.4v3.8C291.8,266.1,293.1,269.3,295,271.7z"/>
						<path class="st16" d="M295,271.7l-7.3,4.2v3.8c0,2.1-0.7,3.5-1.8,4.3l15.9-9.2l0.3-0.2c1.1-0.7,1.8-2.2,1.8-4.3v-3.8
							L295,271.7z"/>
						<g>
							<path class="st2" d="M284.2,285.4c-1,0-2-0.3-3.1-0.9c-3.7-2.1-6.6-7.4-6.6-11.9v-3.8c0-0.4,0.2-0.7,0.5-0.9l16.2-9.4
								c0.5-0.3,1.1-0.1,1.4,0.4s0.1,1.1-0.4,1.4l-15.7,9.1v3.2c0,3.8,2.6,8.4,5.6,10.2c1.2,0.7,2.3,0.8,3.1,0.4l0.3-0.2
								c0.8-0.5,1.3-1.8,1.3-3.4v-3.8c0-0.4,0.2-0.7,0.5-0.9l16.3-9.4c0.5-0.3,1.1-0.1,1.4,0.4s0.1,1.1-0.4,1.4l-15.8,9.1v3.2
								c0,2.3-0.8,4.1-2.2,5.1l-0.4,0.2C285.5,285.3,284.9,285.4,284.2,285.4z"/>
						</g>
						<g class="st14">
							<path class="st10" d="M284.2,285.4c-1,0-2-0.3-3.1-0.9c-3.7-2.1-6.6-7.4-6.6-11.9v-3.8c0-0.4,0.2-0.7,0.5-0.9l16.2-9.4
								c0.5-0.3,1.1-0.1,1.4,0.4s0.1,1.1-0.4,1.4l-15.7,9.1v3.2c0,3.8,2.6,8.4,5.6,10.2c1.2,0.7,2.3,0.8,3.1,0.4l0.3-0.2
								c0.8-0.5,1.3-1.8,1.3-3.4v-3.8c0-0.4,0.2-0.7,0.5-0.9l16.3-9.4c0.5-0.3,1.1-0.1,1.4,0.4s0.1,1.1-0.4,1.4l-15.8,9.1v3.2
								c0,2.3-0.8,4.1-2.2,5.1l-0.4,0.2C285.5,285.3,284.9,285.4,284.2,285.4z"/>
						</g>
					</g>
					<g>
						<path id="XMLID_401_" class="st17" d="M309.8,326.2c0-1.9,1.3-4.2,3-5.1c0.9-0.5,1.6-0.5,2.2-0.2l0,0l1.3,0.7l-4.2,7.2
							l-1.2-0.7l0,0C310.1,327.8,309.8,327.1,309.8,326.2z"/>
						<path id="XMLID_398_" class="st15" d="M314.1,321.8c-1.6,0.9-3,3.2-3,5.1s1.3,2.6,3,1.7c1.6-0.9,3-3.2,3-5.1
							S315.7,320.9,314.1,321.8z"/>
					</g>
				</g>
				<g>
					<path class="st16" d="M318.1,299.7c-0.1,0-0.3,0-0.4-0.1c-0.8-0.2-1.3-1-1.1-1.8l7.7-28c3-11.1,10.2-20.3,20.1-26.1l21.7-12.5
						c0.7-0.4,1.6-0.2,2,0.5s0.2,1.6-0.5,2l-21.7,12.5c-9.2,5.3-15.9,14-18.7,24.3l-7.7,28C319.4,299.2,318.8,299.7,318.1,299.7z"/>
				</g>
			</g>
			<g>
				<polygon class="st17" points="366.9,420.1 427.8,384.9 366.9,349.8 305.9,384.9 				"/>
				<polygon class="st15" points="366.9,424.8 366.9,420.1 427.8,384.9 427.8,389.6 				"/>
				<polygon class="st16" points="305.9,384.9 305.9,389.6 366.9,424.8 366.9,420.1 				"/>
			</g>
			<g>
				<g>
					<polygon class="st16" points="366.9,376.1 366.9,410.7 411.6,384.9 411.6,350.3 					"/>
					<polygon class="st15" points="366.9,376.1 366.9,410.7 322.2,384.9 322.2,350.3 					"/>
					<polygon points="411.6,350.3 366.9,324.5 322.2,350.3 366.9,376.1 					"/>
				</g>
				<polygon class="st16" points="366.9,340.4 366.9,373.2 411.6,347.4 411.6,314.6 				"/>
				<polygon class="st15" points="366.9,340.4 366.9,373.2 322.2,347.4 322.2,314.6 				"/>
				<polygon points="322.7,347.7 322.7,350 366.9,375.6 366.9,373.2 				"/>
				<polygon class="st15" points="411.1,347.7 411.1,350 366.9,375.6 366.9,373.2 				"/>
			</g>
			<g>
				<polygon class="st15" points="383.7,176.5 439.5,208.7 413.5,308.8 362.8,338 342.5,363.8 286.7,331.6 307,305.8 357.6,276.6 
									"/>
				<polygon class="st17" points="342.5,363.8 362.8,338 413.5,308.8 439.5,208.7 446.4,212.7 420,314.4 366.9,345.1 342.5,376 				
					"/>
				<polygon class="st16" points="286.7,331.6 286.7,343.8 342.5,376 342.5,363.8 				"/>
			</g>
			<g>
				<g>
					<path class="st2" d="M438.9,201.5l-8.1-4.7l0,0l-52.5-30.3c-1.2-0.7-2.4-0.2-2.8,1.2l-26.3,101.2c-0.3,1.3-1.6,3-2.8,3.7
						l-36.3,21c-0.6,0.3-0.9,0.8-0.9,1.2s0,8.9,0,9.4s0.3,0.9,0.9,1.2l52.5,30.3c1.2,0.7,3.1,0.7,4.3,0l44.4-25.6
						c1.2-0.7,2.4-2.3,2.8-3.7l26.3-101.2C440.8,203.8,440.1,202.2,438.9,201.5z"/>
					<path class="st2" d="M378.2,166.5l52.5,30.3c1.2,0.7,1.9,2.3,1.5,3.7L406,301.7c-0.3,1.3-1.6,3-2.8,3.7l-36.3,21
						c-1.2,0.7-3.1,0.7-4.3,0L310,296c-1.2-0.7-1.2-1.8,0-2.5l36.3-21c1.2-0.7,2.4-2.3,2.8-3.7l26.3-101.2
						C375.8,166.3,377,165.8,378.2,166.5z"/>
					<path class="st2" d="M378.2,166.5l52.5,30.3c1.2,0.7,1.9,2.3,1.5,3.7L406,301.7c-0.3,1.3-1.6,3-2.8,3.7l-36.3,21
						c-1.2,0.7-3.1,0.7-4.3,0L310,296c-1.2-0.7-1.2-1.8,0-2.5l36.3-21c1.2-0.7,2.4-2.3,2.8-3.7l26.3-101.2
						C375.8,166.3,377,165.8,378.2,166.5z"/>
					<path class="st2" d="M440.4,205.2l-26.3,101.2c-0.3,1.3-1.6,3-2.8,3.7l-44.4,25.6c-1.2,0.7-3.1,0.7-4.3,0L310,305.4
						c-0.6-0.4-0.9-0.8-0.9-1.2v-9.4c0,0.4,0.3,0.9,0.9,1.2l52.5,30.3c1.2,0.7,3.1,0.7,4.3,0l36.3-20.9c1.2-0.7,2.4-2.3,2.8-3.7
						l26.3-101.2c0.3-1.3-0.3-2.9-1.4-3.6l8,4.6C440.1,202.2,440.8,203.8,440.4,205.2z"/>
					<path class="st18" d="M440.4,205.2l-26.3,101.2c-0.2,0.7-0.6,1.4-1.1,2.1l-8.1-4.7c0.5-0.7,1-1.4,1.1-2.1l26.3-101.2
						c0.3-1.3-0.3-2.9-1.4-3.6l8,4.6C440.1,202.2,440.8,203.8,440.4,205.2z"/>
					<path class="st5" d="M364.7,326.8c0.6,0,1.2-0.1,1.7-0.3C365.9,326.7,365.3,326.8,364.7,326.8L364.7,326.8z"/>
					<path class="st19" d="M348,271c-0.5,0.6-1.1,1.2-1.7,1.5l-36.3,21c-1.2,0.7-1.2,1.8,0,2.5l52.5,30.3c1.2,0.7,3.1,0.7,4.3,0
						l36.3-21c0.6-0.3,1.2-0.9,1.7-1.5L348,271z"/>
					<path class="st20" d="M364.7,336.2v-9.4c-0.8,0-1.6-0.2-2.2-0.5L310,296c-0.6-0.3-0.9-0.8-0.9-1.2v9.4c0,0.4,0.3,0.9,0.9,1.2
						l52.5,30.3C363.1,336,363.9,336.2,364.7,336.2z"/>
					<path class="st5" d="M404.8,303.8L404.8,303.8c-0.5,0.6-1.1,1.2-1.7,1.5l-36.3,20.9c-0.6,0.4-1.4,0.5-2.2,0.5v9.4
						c0.8,0,1.6-0.2,2.2-0.5l44.4-25.6c0.6-0.3,1.2-0.9,1.7-1.5L404.8,303.8z"/>
				</g>
				<g>
					<path class="st2" d="M361.8,329.2c0-0.7-0.4-1.4-1.1-1.8l-52.5-30.3c-1.2-0.7-2.9-0.4-3.7,0.7l-17.2,21.9
						c-0.3,0.4-0.5,0.9-0.5,1.4c0,0.7,0,8.9,0,9.4c0,0.7,0.4,1.4,1.1,1.8l52.5,30.3c1.2,0.7,2.9,0.4,3.7-0.7l17.2-21.9
						c0.3-0.4,0.5-0.9,0.5-1.4C361.8,337.9,361.8,329.7,361.8,329.2z"/>
					<path class="st18" d="M361.8,338.6c0,0.5-0.2,0.9-0.5,1.4l-15.2,19.3l-2,2.6c-0.4,0.5-0.9,0.8-1.5,1v-9.4
						c0.6-0.1,1.2-0.5,1.5-1l17.2-21.9c0.3-0.4,0.5-0.9,0.5-1.4C361.8,329.7,361.8,337.9,361.8,338.6z"/>
					<path class="st20" d="M342.5,353.5v9.4c-0.7,0.2-1.5,0.1-2.2-0.3l-52.5-30.3c-0.7-0.4-1.1-1.1-1.1-1.8V321
						c0,0.7,0.4,1.4,1.1,1.8l52.5,30.3C341,353.6,341.8,353.6,342.5,353.5z"/>
					<g>
						<path class="st2" d="M360.6,327.4l-52.5-30.3c-1.2-0.7-2.9-0.4-3.7,0.7l-17.2,21.9c-0.9,1.1-0.6,2.5,0.6,3.2l52.5,30.3
							c1.2,0.7,2.9,0.4,3.7-0.7l17.2-21.9C362.1,329.5,361.8,328.1,360.6,327.4z"/>
					</g>
				</g>
				<g>
					<path class="st2" d="M426.9,206.2L378.2,178l-3.7-2.1c-1.6-0.9-3.6-0.3-4.4,1.3c-3.1,6.1-4.8,12.6-4.8,19.7
						c0,1.1,0.6,2.2,1.6,2.8l53.7,31L426.9,206.2z"/>
					<path class="st5" d="M426.9,206.2L378.2,178l-3.7-2.1c-1.6-0.9-3.6-0.3-4.4,1.3c-3.1,6.1-4.8,12.6-4.8,19.7
						c0,1.1,0.6,2.2,1.6,2.8l53.7,31L426.9,206.2z"/>
					<path class="st21" d="M426.9,206.2l-1.4,5.4l-56.4-32.5c0.3-0.7,0.6-1.3,0.9-1.9c0.8-1.6,2.8-2.2,4.4-1.3l3.7,2.1L426.9,206.2z
						"/>
					<path class="st2" d="M370.1,177.2c-0.3,0.6-0.6,1.3-0.9,1.9l56.3,32.5l1.4-5.4l-2.3-1.3L378.2,178l-3.7-2.1
						c-1-0.6-2.1-0.6-3.1-0.1C370.9,176.1,370.4,176.6,370.1,177.2L370.1,177.2z"/>
					<path class="st21" d="M370.1,177.2c-0.3,0.6-0.6,1.3-0.9,1.9l56.3,32.5l1.4-5.4l-2.3-1.3L378.2,178l-3.7-2.1
						c-1-0.6-2.1-0.6-3.1-0.1C370.9,176.1,370.4,176.6,370.1,177.2L370.1,177.2z"/>
					<path class="st2" d="M420.6,230.7l6.4-24.5l-3.7-2.1c-1.6-0.9-3.6-0.3-4.4,1.3c-3.1,6.1-4.8,12.6-4.8,19.7
						c0,1.1,0.6,2.2,1.6,2.8L420.6,230.7z"/>
					<path class="st18" d="M420.6,230.7l6.4-24.5l-3.7-2.1c-1.6-0.9-3.6-0.3-4.4,1.3c-3.1,6.1-4.8,12.6-4.8,19.7
						c0,1.1,0.6,2.2,1.6,2.8L420.6,230.7z"/>
				</g>
			</g>
		</g>
		<g id="Character_7_">
			<path class="st1" d="M347.6,329.2c-4.8,2.5-9.1,1.6-16.6-1.3c-7.4-2.9-20.3-11.4-23.9-18.6c-3.6-7.1,0.5-13.4,2.8-15.2
				c2.3-1.8,17.5-1.2,32.1,9.9S354.7,324.8,347.6,329.2z"/>
			<g id="Legs_2_">
				<g>
					<path class="st15" d="M305.9,381.1c0.9,1.4,2.3,2.2,5.9,1.8c3.5-0.5,8.4-2,11.7-5.7c3.3-3.7,4.2-6.4,4.8-11
						c0.6-4.6,0.6-6,2-7.8s2.7-4.5,2.6-5.5s-1.4-2.6-1.4-2.6s-3.8,2.3-5.3,7.8s-3.7,13.1-7.3,17.1
						C314.1,380.9,305.9,381.1,305.9,381.1z"/>
					<path class="st22" d="M311.7,361.7c0.9-8.5-4.4-30.8-4.4-30.8l16.1-8.9c0,0,0.6,5.4,1.3,12.7c0.7,7.3,2.2,10.3,2.2,10.3
						s2.8,3.8,2.7,6.3c-0.2,2.5-2.5,8-3.9,12.3s-2.3,7.6-5,11.7c-2.6,4-14.1,6.8-13.3,2.6C308.4,372,310.8,368.7,311.7,361.7z"/>
					<path class="st22" d="M351.9,274.2l-4.8-1.4c0,0-32.3,17.2-37.7,21c-3.7,2.6-4.8,7.9-4.5,15.3s4,35.2,4,35.2l41.7-52.1
						L351.9,274.2z"/>
					<path id="XMLID_760_" class="st2" d="M327,345c0.9,0,2,1.6,2.7,2.8c0.7,1.2,2.6,2.1,2.2,5.1s-3.2,5.1-3.8,9.2
						c-0.6,4-1,11-7.1,15.8c-6.1,4.7-12.4,5-14.6,3.6c-0.7-0.4-1.2-1-1.3-1.8c-0.2-0.8,0.1-1.2,0.4-1.9c0.7-1.5,1.4-3,2.1-4.5
						c1.2-3.1,2.6-6.4,3.3-9.7c0.5-2.1,0.6-4.1,1.2-4.5c1.8-1.1,2.5-1.1,4.5-1.3c2.3-0.2,3.6-0.1,4,0.1c0.4,0.3,0.3,1,0.4,1.5
						c0,0.1,0,0.2,0.1,0.2c0.1,0.1,0.2,0,0.3,0c0.4-0.2,0.7-0.7,0.8-1.1c0.3-0.7,0.5-1.5,0.8-2.3c0.2-0.7,0.6-1.4,0.9-2.1
						c0.6-1.4,1.4-2.7,2-4.1c0.4-0.9,1.1-2.2,1.4-3.1c0.3-0.7,0.2-1.1,0.1-1.4L327,345z"/>
					<path id="XMLID_569_" class="st23" d="M327,345c0.9,0,2,1.6,2.7,2.8c0.7,1.2,2.6,2.1,2.2,5.1s-3.2,5.1-3.8,9.2
						c-0.6,4-1,11-7.1,15.8c-6.1,4.7-12.4,5-14.6,3.6c-0.7-0.4-1.2-1-1.3-1.8c-0.2-0.8,0.1-1.2,0.4-1.9c0.7-1.5,1.4-3,2.1-4.5
						c1.2-3.1,2.6-6.4,3.3-9.7c0.5-2.1,0.6-4.1,1.2-4.5c1.8-1.1,2.5-1.1,4.5-1.3c2.3-0.2,3.6-0.1,4,0.1c0.4,0.3,0.3,1,0.4,1.5
						c0,0.1,0,0.2,0.1,0.2c0.1,0.1,0.2,0,0.3,0c0.4-0.2,0.7-0.7,0.8-1.1c0.3-0.7,0.5-1.5,0.8-2.3c0.2-0.7,0.6-1.4,0.9-2.1
						c0.6-1.4,1.4-2.7,2-4.1c0.4-0.9,1.1-2.2,1.4-3.1c0.3-0.7,0.2-1.1,0.1-1.4L327,345z"/>
				</g>
				<g>
					<path id="XMLID_740_" class="st24" d="M305,353.5c0,0-6.1,13.7-9,18.1c-3,4.4-5.1,7.5-10.4,12c-1,0.8-2.9,2.5-3.7,3.2
						c-0.7,0.6-1,1.3-0.3,2.3c1.3,1.9,8.3,3.7,12.8,1.5s9.5-7,12.3-9c1.4-1,2.7-1.9,3.7-2.6c0.9-0.7,0.9-1.1,0.8-2.2l0.5-1.8
						c0.8-3.7,6.6-11.8,6.6-11.8L305,353.5z"/>
					<path class="st24" d="M296.9,371.7c5.3-10,15.3-35.7,19.2-46.9c3.9-11.2,4.7-14.4,11.6-19.6s23-16,23-16
						c-3.5-4.7-4.7-10.2-3.7-16.4l42.1,3.5c0,0,2.1,15.7-3.6,23.3c-5.8,7.6-25,18.3-33.2,22.1c-6.4,3-13.8,6.9-13.8,6.9
						s-1,9.3-6.2,17.9c-4.3,7.2-14.2,16.5-17.9,22.7L296.9,371.7z"/>
					<path class="st15" d="M271.6,393.7c0,1.3,0,1.9,0.9,3c0.8,1.1,4.5,5.2,13.1,4.9c8.6-0.3,12.1-4.6,13.5-6c1.3-1.4,5-6.1,7.1-6.9
						c2.3-0.9,5.1-2.4,5.9-3.8s0-4.4,0-4.4s-11.8,11.7-20.1,13.8C283.8,396.4,275,396,271.6,393.7z"/>
					<path id="XMLID_735_" class="st2" d="M311.8,374.6c0.8,0.5,0.6,3,0.5,4.5s1,3.5-1.1,5.8c-2.2,2.3-5.8,2.6-8.8,5.8
						c-2.9,3.2-7.4,9.1-15.6,9.6s-13.8-3-15-5.6c-0.3-0.8-0.4-1.6-0.1-2.4s0.8-1,1.5-1.4c1.5-0.9,3-1.8,4.5-2.7
						c2.9-1.9,6.1-4.1,8.6-6.5c1.7-1.6,3-3.2,3.7-3.2c2.2,0.1,2.9,0.6,4.7,1.5c2.2,1.2,3.3,2.1,3.4,2.5c0.2,0.5-0.3,1-0.6,1.5
						c-0.4,0.6-0.8,1.3-1.1,1.9c-0.1,0.1-0.2,0.3-0.2,0.5s0,0.4,0.2,0.4c0.2,0.1,0.4,0,0.5-0.1c2.4-1.3,4.4-3.3,6.5-5.1
						c1.5-1.2,2.1-1.7,3.7-2.7c0.9-0.6,1.9-1.3,2.8-1.8c0.7-0.4,1.4-1.1,1.5-1.5L311.8,374.6z"/>
					<path id="XMLID_410_" class="st20" d="M311.8,374.6c0.8,0.5,0.6,3,0.5,4.5s1,3.5-1.1,5.8c-2.2,2.3-5.8,2.6-8.8,5.8
						c-2.9,3.2-7.4,9.1-15.6,9.6s-13.8-3-15-5.6c-0.3-0.8-0.4-1.6-0.1-2.4s0.8-1,1.5-1.4c1.5-0.9,3-1.8,4.5-2.7
						c2.9-1.9,6.1-4.1,8.6-6.5c1.7-1.6,3-3.2,3.7-3.2c2.2,0.1,2.9,0.6,4.7,1.5c2.2,1.2,3.3,2.1,3.4,2.5c0.2,0.5-0.3,1-0.6,1.5
						c-0.4,0.6-0.8,1.3-1.1,1.9c-0.1,0.1-0.2,0.3-0.2,0.5s0,0.4,0.2,0.4c0.2,0.1,0.4,0,0.5-0.1c2.4-1.3,4.4-3.3,6.5-5.1
						c1.5-1.2,2.1-1.7,3.7-2.7c0.9-0.6,1.9-1.3,2.8-1.8c0.7-0.4,1.4-1.1,1.5-1.5L311.8,374.6z"/>
				</g>
			</g>
			<path class="st24" d="M351.6,246.4c0,0-11.7,15.7-15.9,21.2c-1.6,2.1-2.7,3.3-3.9,4.2l5.4,7.6c1.8-2.7,22.6-20.5,25.8-23.3
				C359.4,248.9,351.6,246.4,351.6,246.4z"/>
			<g id="Top_8_">
				<path class="st15" d="M350.8,196.3c-1.2,0.4-2.5-0.6-2.8-1.8s0-2.5,0.5-3.7c-0.1,0.7,0.4,1.4,1,1.7s1.4,0.2,1.9-0.3
					c0.8-0.7,0.7-2,0.3-3c-0.4-1-1.1-1.9-1.5-2.9c-0.9-2.5,0.5-5.3,2.5-7s4.6-2.4,7.1-3.3c3-1.1,5.9-2.8,8.9-3.6
					c3.1-0.8,6.4-0.9,9.4,0c8,2.5,9,8.4,9,8.4s1.1,0.3,1.2,0.4c1.1,0.5,2.1,1.3,2.9,2.2c2.5,2.8,3.1,6.8,6.1,9.2
					c0.9,0.7,1.9,1.3,2.6,2.2c1,1.2,1.1,3,0.4,4.4c-0.5,0.9-1.3,1.8-1.2,2.8c0.1,1.5,2,2.1,3.1,3.1c1.3,1.3,1.4,3.6,0.1,4.9
					c-0.6,0.6-1.3,1-1.9,1.6s-1,1.5-0.7,2.2c0.1,0.3,0.4,0.6,0.7,0.9c0.9,0.8,1.8,1.5,2.5,2.4s1.2,2.1,1,3.2c-0.2,1.1-0.9,2-1.9,2.6
					c-0.9,0.6-2,0.9-3.1,1.1c-1.2,0.3-2.7,0.7-2.9,1.9c-0.1,0.5,0.1,1,0.1,1.4c0.3,1.9-1,3.9-2.8,4.5c-2.4,0.8-5-0.7-7.5-0.4
					s-4.4,2.3-6.9,2.8c-1.7,0.3-3.6-0.2-4.9-1.4c-0.7-0.7-1.2-1.5-2-2.1c-4.3-3.2-9.3,1-13.8,0.8c-1.3-0.1-2.7-0.7-3.4-1.8
					c-0.9-1.6-0.4-3.9-1.8-5c-1.4-1.2-3.8-0.1-5.4-1.1c-0.9-0.5-1.3-1.6-1.3-2.7c0.1-1,0.6-2,1.2-2.8c0.7-0.8,1.6-1.8,1.4-2.8
					c-0.3-1.3-2-1.6-3-2.6c-0.8-0.8-1-2-0.7-3.1s1.1-1.9,1.9-2.6c1.1-0.9,2.7-1.8,2.5-3.2c-0.2-1.1-1.4-1.7-1.9-2.7
					c-0.5-0.9-0.3-2.1,0.3-2.9C348.9,197.2,349.8,196.7,350.8,196.3z"/>
				<path class="st1" d="M362.9,219c-3.7,0.5-6.6,0-10.3,3.6c-3.7,3.6-13.4,15.8-13.4,15.8s3.6,10.8,15.5,10.9L362.9,219z"/>
				<g>
					<path id="XMLID_734_" class="st0" d="M347.3,264.8c-0.3-5.3,0-9.7,0.6-12.6c-5.9-6.3-4.2-12.6-0.8-17.3
						c7-9.6,14.2-14.8,15.8-15.9c3.6-0.2,11.2-0.1,11.2-0.1c1.5,0.3,11.7,2.4,17.9,6c0,0,2.4,2.9,2.2,7.2c-0.1,2.5,0,5.2-1.7,11.6
						l-4.2,15.2c0,0,1.2,4.1,2.3,7.9c0.8,3,3.1,10,2.7,15.8c-0.3,5.7-0.8,17.6-10.5,24.4c-10.4,7.3-28.7,18.3-35.3,22.2
						c3.3-2.4,2.9-6.1,2.3-8.8c-0.9-3.9-4.2-7.2-7-9.1c-5.6-3.8-14.1-6-17.4-8.5c-8-6.1-11-10.2-16.1-9c5.2-4.4,22.1-14.7,34.9-21.2
						C345.4,268.6,347,265.7,347.3,264.8z"/>
					<path class="st6" d="M358,244.7c-3.7-1.4-3.9,2.8-10.5,1.7c-2.9-0.5-2.3,3.8,1.9,6.3c4.1,2.6,14.3,7.7,21.9,6.8
						c7.5-0.9,11.4-5.2,6.4-5.1c-5,0.1-7.9,1.3-12.8-2.1C359.9,248.9,361.2,245.9,358,244.7z"/>
					<path class="st1" d="M315.3,289.4c-1.1,1.9-1.7,3.5-1.3,3.9c1.6,1.3,2,0.4,4,0.9s3.3-1.8,4.1-4c0.7-2.2,2.4-4.8,4.3-5.8
						s2.1,0.8-0.5,4.1c-2.6,3.3-0.6,4.8-0.3,4.8c0.3,0.1,1.6-1.8,6.2-4c4.5-2.2,6.2-7.5,6.6-8.5c0.3-1,5.8-8.3,5.8-8.3
						C334.7,277.3,322.9,284.3,315.3,289.4z"/>
					<path class="st1" d="M391.6,270.2c-0.4-1.4-0.7-2.5-1-3.4c-0.5-1.7-1-3.5-1.4-5l-8.1-1.8l-6.4,10.2l-33.6,20
						c0,0-6.8,15.1-6.9,15.6c4.4,3.4,7.6-0.9,7.6-0.9c2-0.5,4.4-2.4,6.4-5.7c2.1-3.3,5.1-2.3,7.9-2.6c2.8-0.3,3.3-2.8,4.5-5
						s14.1-7,21.1-10.9C387.1,277.8,389,276.4,391.6,270.2z"/>
					<path class="st6" d="M346.1,292.5c7.6-5.5,9.7-8.3,4.7-9.5s-25.8,10.4-32.4,14.1l0,0c1.9,1.5,4,3.4,7,5.6
						c0.8,0.6,1.9,1.2,3.1,1.8C336.7,299.1,341.5,295.8,346.1,292.5z"/>
				</g>
				<g id="XMLID_411_">
					<g id="XMLID_730_">
						<path id="XMLID_733_" class="st24" d="M357.2,192.6c-0.4,2-0.6,4.6-0.8,7.9c-0.6,10.4,2.6,13.3,4.2,14.1
							c1.6,0.9,4.9,0.7,7.2,0.5l-0.2,7c-0.8,1-1.1,2.7,2.7,3.2c4.7,0.6,10.3-2.1,11.5-3.9l0.5-12.7c0,0,2.5,1.9,5.4-1.2
							c2-2.1,2.4-5.4,1.3-7.3c-1.5-2.5-5.1-2.5-6,0.4c-0.9,3.1-3,2.2-2.8-2.3c0-1.4,1.4-9.1-4.1-12.1c-2.4-1.3-6.1,2.1-8.9,1.6
							c-1.6-0.3-2.1-3.9-4.8-3.1C359.7,185.5,358,188.7,357.2,192.6z"/>
					</g>
					<g>
						<path id="XMLID_727_" class="st15" d="M370.5,197.4c-0.1,0.8,0.4,1.5,1.2,1.6c0.8,0.1,1.5-0.5,1.6-1.2
							c0.1-0.8-0.4-1.5-1.2-1.6C371.3,196.1,370.6,196.6,370.5,197.4z"/>
						<path id="XMLID_725_" class="st25" d="M366.4,207.9c-0.1,0.4,0.2,0.8,0.6,0.9c0.4,0.1,0.8-0.2,0.8-0.7
							c0.1-0.4-0.2-0.8-0.6-0.9C366.8,207.2,366.4,207.5,366.4,207.9z"/>
						<path id="XMLID_722_" class="st15" d="M358.7,194.3l2.8-1.6c-0.4-0.8-1.4-1.1-2.2-0.6C358.6,192.5,358.3,193.5,358.7,194.3z"
							/>
						<path id="XMLID_719_" class="st15" d="M373,194.2l2.5,2.1c0.6-0.7,0.5-1.7-0.1-2.2C374.6,193.5,373.6,193.5,373,194.2z"/>
						<path id="XMLID_712_" class="st15" d="M360.3,196c-0.1,0.8,0.4,1.5,1.2,1.6c0.8,0.1,1.5-0.5,1.6-1.2c0.1-0.8-0.4-1.5-1.2-1.6
							C361.1,194.7,360.4,195.2,360.3,196z"/>
						<polygon id="XMLID_650_" class="st22" points="367,196.2 364.9,205 360.6,202.6 						"/>
					</g>
					<g id="XMLID_492_">
						<path id="XMLID_513_" class="st22" d="M367.8,215.2c3.4-0.2,11.3-1.7,12.6-4.3c0,0-0.5,1.7-2.7,3.3s-10,3.2-10,3.2
							L367.8,215.2z"/>
					</g>
				</g>
			</g>
			<g>
				<path class="st24" d="M331.7,271.8c-1.1,0.8-2.2,1.4-4,2.4c-2.3,1.2-5.7,2.7-7.4,3.6c-1.7,0.9-3.2,1.4-3.8,2.7
					c-0.6,1.4-3.1,7.3-3.4,9.1c-0.3,1.8,0.6,1.8,0.6,1.8c-0.4,1.3,0,2,1,1.9s1.9-1.6,1.9-1.6s-0.2,1.5,0.5,1.7
					c0.8,0.3,2.3-0.1,3.5-2.6c1.3-2.6,3.4-6.2,4.4-7s3-1.5,3.2-0.1s-2.4,3-3.6,4.9s-0.7,3.6-0.1,3.8c0.6,0.3,1.2-0.5,2.1-1.4
					s5.5-3.5,7.4-5.4c1.9-1.8,2.5-5.2,3.2-6.2c0.6-0.9,3.5-3.6,7.1-6.9L331.7,271.8z"/>
				<path class="st22" d="M323.1,280.3c-0.5,0.3-1,0.6-1.3,1c-0.4,0.4-0.7,0.9-0.9,1.3c-0.5,1-0.9,2-1.3,3.1c-0.9,2-1.9,4-3,6
					c0.7-2.1,1.6-4.2,2.5-6.2c0.5-1,0.9-2,1.5-3c0.3-0.5,0.6-1,1.1-1.3C322,280.8,322.6,280.5,323.1,280.3z"/>
				<path class="st22" d="M319.7,279.5c-1,0.6-1.4,1.7-1.8,2.7s-0.9,2.1-1.3,3.1c-0.9,2-1.8,4.1-2.9,6.1c0.7-2.1,1.6-4.2,2.5-6.2
					c0.5-1,0.9-2,1.4-3.1c0.3-0.5,0.5-1,0.8-1.5C318.8,280.2,319.2,279.8,319.7,279.5z"/>
			</g>
			<g>
				<g>
					<g>
						<path class="st24" d="M359,289.9c-1.1,1-1.2,3.3-4.4,4.4c-3,1.1-5.3,1.5-6.1,2.1c-0.8,0.6-3.1,4-4.2,5.7s-2.2,2.6-3.3,2
							c-1.2,1.4-2.7,2.4-4,2.1c-1.2-0.3-0.8-1.4-0.8-1.4s-0.8,1.1-2.1,0.9c-1.3-0.2-0.6-2.1-0.6-2.1s-0.8-0.1-0.8-1.1
							s1.2-5.1,1.2-5.1s-0.4,0.4-1.3,0.5s-0.9-0.6-0.5-1.4s1.2-3.7,1.6-4.8c0.4-1.3,1.6-1.9,2.9-2.6c1.5-0.8,5.5-2.3,8-3.4
							c3.8-1.7,5.9-2.7,7.5-4c2-1.6,19.5-15.9,19.5-15.9s5-5.8,10.1-3.1c5.1,2.8,5.9,9.8,1.3,13.1
							C380.7,277.6,360.9,288.4,359,289.9z"/>
						<path class="st22" d="M345.2,294.2c-0.5,0.8-0.9,1.6-1.2,2.5l-1.2,2.5l-1.1,2.5c-0.2,0.4-0.4,0.8-0.5,1.3
							c-0.1,0.2-0.1,0.4-0.2,0.7c0,0.2-0.1,0.5,0.1,0.6c-0.3-0.1-0.3-0.4-0.3-0.6s0-0.5,0.1-0.7c0.1-0.5,0.2-0.9,0.4-1.3
							c0.3-0.9,0.7-1.7,1-2.6c0.4-0.8,0.8-1.7,1.3-2.5C344.1,295.7,344.6,294.9,345.2,294.2z"/>
						<path class="st22" d="M341.8,292.6c-0.5,0.3-0.9,0.7-1.2,1.2c-0.3,0.5-0.5,1-0.6,1.6c-0.3,1.1-0.7,2.2-1.1,3.2
							c-0.4,1.1-0.8,2.1-1.2,3.2c-0.4,1.1-0.9,2.1-1.3,3.2c0.3-1.1,0.6-2.2,1-3.3c0.3-1.1,0.7-2.2,1.1-3.2c0.4-1.1,0.8-2.1,1.2-3.2
							c0.2-0.5,0.4-1.1,0.8-1.6C340.8,293.2,341.3,292.9,341.8,292.6z"/>
						<path class="st22" d="M338.5,291.7c-0.8,0.8-1.1,1.8-1.4,2.9c-0.3,1-0.7,2.1-1,3.1c-0.7,2.1-1.5,4.1-2.4,6.1
							c0.5-2.1,1.2-4.2,1.9-6.3c0.4-1,0.7-2,1.1-3.1C337,293.4,337.6,292.4,338.5,291.7z"/>
						<path class="st22" d="M341.1,288.5c-0.8,0.6-1.7,1.1-2.6,1.6l-1.3,0.8c-0.4,0.3-0.8,0.5-1,1c-0.4,0.9-0.7,1.9-1,2.8
							c-0.4,1-0.7,1.9-1.1,2.8c0.2-1,0.5-2,0.8-3s0.5-1.9,1-2.9c0.2-0.5,0.7-0.9,1.2-1.1c0.4-0.3,0.9-0.5,1.4-0.7
							C339.2,289.4,340.1,288.9,341.1,288.5z"/>
					</g>
					<path class="st24" d="M392,224.9c5,2.1,7,4.8,5,12.8c-2.1,8-6.4,22.2-9.6,31.9c-1,3.1-1.5,5.2-6,7.3l-10-9.7l8.5-25.9
						C379.7,241.5,384.5,225.6,392,224.9z"/>
				</g>
				<path class="st1" d="M390.3,224.1c4.1,1.3,6.3,2.8,7.3,4.8s1.3,8.3,1.3,15.3c0,6.9,0.3,15.4,0.3,15.4s-14.3,5.2-23.8-6.2
					c0,0,4.7-14.4,6-18.6S386,225.5,390.3,224.1z"/>
			</g>
		</g>
		<g>
			<g>
				<g>
					<path class="st15" d="M375,361.4c-0.4,0-0.7-0.2-0.9-0.6l-19.4-43.6c-0.2-0.5,0-1.1,0.5-1.3c0.5-0.2,1.1,0,1.3,0.5l19.4,43.6
						c0.2,0.5,0,1.1-0.5,1.3C375.3,361.4,375.1,361.4,375,361.4z"/>
				</g>
				<g>
					<path class="st16" d="M354.7,309.8c-1.1-0.6-2.5-0.4-3,0.6c-0.3,0.5-0.3,1.1-0.1,1.6l3.1,8.8c0.2,0.5,0.6,1,1.1,1.3
						c1.1,0.6,2.5,0.4,3-0.6c0.3-0.5,0.3-1.1,0.1-1.6l-3.1-8.8C355.6,310.7,355.2,310.2,354.7,309.8z"/>
					<path class="st15" d="M355.8,311.2c-0.2-0.5-0.6-1-1.1-1.3c-1.1-0.6-2.5-0.4-3,0.6c-0.3,0.5-0.3,1.1-0.1,1.6l1.9,5.6l3.8-2.2
						L355.8,311.2z"/>
					<path class="st17" d="M351.6,310.4c0.6-1,1.9-1.2,3-0.6c0.6,0.3,1,0.8,1.1,1.3c0.2,0.5,0.2,1.1-0.1,1.6c-0.6,1-1.9,1.2-3,0.6
						c-0.6-0.3-1-0.8-1.1-1.3C351.3,311.5,351.3,310.9,351.6,310.4z"/>
				</g>
				<g>
					<path class="st17" d="M355.9,306.9l-7.3,4.2v3.8c0,2.1-0.7,3.5-1.8,4.3l-0.3,0.2c-1.1,0.5-2.5,0.4-4-0.5
						c-3.4-1.9-6.1-6.9-6.1-11V304l16.2-9.4v3.8C352.7,301.3,354,304.5,355.9,306.9z"/>
					<path class="st16" d="M355.9,306.9l-7.3,4.2v3.8c0,2.1-0.7,3.5-1.8,4.3l15.9-9.2l0.3-0.2c1.1-0.7,1.8-2.2,1.8-4.3v-3.8
						L355.9,306.9z"/>
					<g>
						<path class="st2" d="M345.1,320.6c-1,0-2-0.3-3.1-0.9c-3.7-2.1-6.6-7.4-6.6-11.9V304c0-0.4,0.2-0.7,0.5-0.9l16.2-9.4
							c0.5-0.3,1.1-0.1,1.4,0.4s0.1,1.1-0.4,1.4l-15.7,9.1v3.2c0,3.8,2.6,8.4,5.6,10.2c1.2,0.7,2.3,0.8,3.1,0.4l0.3-0.2
							c0.8-0.5,1.3-1.8,1.3-3.4V311c0-0.4,0.2-0.7,0.5-0.9l16.3-9.4c0.5-0.3,1.1-0.1,1.4,0.4s0.1,1.1-0.4,1.4l-15.8,9.1v3.2
							c0,2.3-0.8,4.1-2.2,5.1l-0.4,0.2C346.5,320.4,345.8,320.6,345.1,320.6z"/>
					</g>
					<g class="st14">
						<path class="st10" d="M345.1,320.6c-1,0-2-0.3-3.1-0.9c-3.7-2.1-6.6-7.4-6.6-11.9V304c0-0.4,0.2-0.7,0.5-0.9l16.2-9.4
							c0.5-0.3,1.1-0.1,1.4,0.4s0.1,1.1-0.4,1.4l-15.7,9.1v3.2c0,3.8,2.6,8.4,5.6,10.2c1.2,0.7,2.3,0.8,3.1,0.4l0.3-0.2
							c0.8-0.5,1.3-1.8,1.3-3.4V311c0-0.4,0.2-0.7,0.5-0.9l16.3-9.4c0.5-0.3,1.1-0.1,1.4,0.4s0.1,1.1-0.4,1.4l-15.8,9.1v3.2
							c0,2.3-0.8,4.1-2.2,5.1l-0.4,0.2C346.5,320.4,345.8,320.6,345.1,320.6z"/>
					</g>
				</g>
				<g>
					<path id="XMLID_395_" class="st17" d="M370.7,361.4c0-1.9,1.3-4.2,3-5.1c0.9-0.5,1.6-0.5,2.2-0.2l0,0l1.3,0.7L373,364l-1.2-0.7
						l0,0C371.1,363,370.7,362.3,370.7,361.4z"/>
					<path id="XMLID_391_" class="st15" d="M375,357c-1.6,0.9-3,3.2-3,5.1s1.3,2.6,3,1.7c1.6-0.9,3-3.2,3-5.1S376.6,356.1,375,357z"
						/>
				</g>
			</g>
			<g>
				<path class="st16" d="M379.1,334.8c-0.1,0-0.3,0-0.4-0.1c-0.8-0.2-1.3-1-1.1-1.8l7.7-28c3-11.1,10.2-20.3,20.1-26.1l21.7-12.5
					c0.7-0.4,1.6-0.2,2,0.5s0.2,1.6-0.5,2l-21.7,12.5c-9.2,5.3-15.9,14-18.7,24.3l-7.7,28C380.3,334.4,379.7,334.8,379.1,334.8z"/>
			</g>
		</g>
	</g>
</g>
<g id="Character_1">
	<g id="Character_25_">
		<path class="st1" d="M186.6,184.3c7.8,1.3,8.9,1.9,10.9,5.7c3.3,6,5.3,18.3,5.5,40.8c0.2,14.5,5.2,32,6.1,45.7
			c1.3,20.6,2,36.7,2,36.7s-17.7-2.5-36.8-2.2L186.6,184.3z"/>
		<g id="Bottom_1_">
			<path class="st25" d="M150,393.7c0,0-2.6-25-1.1-39.8c1.3-12.7,3.2-18.1,3.5-21c0,0,2.1-29.9,1.6-55.2c-0.3-12,0.3-25.2,8.9-39.4
				l0.3-0.6c0.8,4.6,7.9,7.6,14.3,8.4c6.1,0.7,13.8-0.5,22.9-3.6c2,12,4.4,34.9,6.7,59.8c1.2,12.2,1,22.4,1.2,30.3
				c0.3,10.6-0.7,52.3-0.7,52.3v1.8c0.1,1.9,0.5,3.3,1.9,6.4s3.8,7.6,7,10.8c0.9,0.9,7.2,6.1,8.1,7.2c2.7,3-2.7,4.9-6.7,4.5
				c-4.3-0.4-11-1.8-12.9-4.4c-1.3-1.7-2.5-7.7-3.8-9.4c-4.5-5.8-6.4-8.3-6.5-10.2c-0.2-3.4,1-4.8,1.3-6.8c-0.5-4-8.6-25.1-9.2-36.8
				c-0.3-5.6,1-15.5,1-15.5l-7.2-40.8c-1.6,11.5-4.6,37.3-5.7,45.6c-1.5,11.3-7.1,30.5-10.6,45.6c-1.3,5.7-2.3,8.6-2.6,12.3
				l-0.2,1.3c0,1.7-1.5,18.6-2.1,22.3c-1.1,7.9-8.4,9-9.7,2.6c-1.1-5.4,0.3-23.8,0.3-25.8V393.7z"/>
			<g>
				<path id="XMLID_784_" class="st16" d="M150,393.7c-2.1,0-0.9,7.6-1.5,12.5c-0.7,5.2-2.6,9-3.2,13.3c-0.7,4.9-0.3,7,1.5,11.1
					c1.4,3.2,8.7,7.8,11.7,3.4c2.9-4.5,3.6-9.5,3.4-14.5c-0.2-5.1-0.5-8.8-0.5-12.7c0-3.4,2.9-11.3,0.2-11.9l-0.2,1.3
					c-1,1.8-10.4,2.7-11.5-0.8L150,393.7z"/>
			</g>
			<g id="XMLID_3559_">
				<g id="XMLID_775_">
					<path id="XMLID_783_" class="st15" d="M194,395.6c-0.5,2.5,0.3,9.2,0.3,9.2s1.1,2.3,5,3.7l1.4-9.4L194,395.6z"/>
					<polygon id="XMLID_779_" points="199.3,408.5 207.6,405.5 209.4,398 200.1,403 					"/>
					<path id="XMLID_777_" class="st16" d="M207.3,386.6v-1.8c1.2,0.5,4,9.6,7.5,15.7c3.3,5.6,9.5,8.6,11.6,11
						c2.8,3.2-2.2,7.7-10.6,6.2c-4.1-0.7-10.4-3.2-12.2-5.9c-1.8-2.7-2.5-7.8-4-9.8c-1.4-2-4.8-4.2-5.6-6.5
						c-0.4-1.3-0.8-4.1-0.2-6.4c0.6-2.1,1.1-4.7,1.8-4.5l0.1,1.6c0.6,1.1,2.6,2.4,6.8,2.4C204.5,388.8,206.4,388.4,207.3,386.6z"/>
				</g>
			</g>
			<path class="st17" d="M185.6,352.5c-0.8-10.3,0.7-19.2,0.7-19.2l-6-40.1c0,0-4.1,38.2-4.8,44.1s-11.7,69.8-11.7,69.8
				c-5.6,3.3-12.9,2.3-17.6-0.2c0-25.8,0.8-51.7,1.7-58.9c0.7-5.7,3.3-14.5,3.3-14.5s0.6-37.7,0.6-52s1-23.9,3.8-30.3
				c2.7-6.4,7.5-13.4,7.5-13.4s2.1,7.1,18.7,7.1s18.4-4.2,18.4-4.2s4.8,16.9,6.5,42.5c1.3,20.6,1.6,30,2,39.2
				c0.3,7.8,0.5,16.9,0.7,32.7c0.1,11.9,1.8,38.2,1.8,38.2s-8.1,4.2-21.4-0.6C189.7,392.7,186.4,362.8,185.6,352.5z"/>
			<path class="st16" d="M180.2,293.1l3.3-24.3c0,0,6.8-0.3,12.7-6.1c0,0-1.8,5.9-9.6,9.2l-4.4,21.3l3.2,34.2L180.2,293.1z"/>
		</g>
		<g id="Top">
			<g>
				<path class="st1" d="M225.5,209.2c1.2-2.4,5.2-1.1,8.3,2.8c3.2,3.9,3.8,6.8,2.9,9.1c-0.9,2.3-3.8,3.9-5.5,2.9
					S223.9,216.2,225.5,209.2z"/>
				<path class="st26" d="M225.5,209.2c1.2-2.4,5.2-1.1,8.3,2.8c3.2,3.9,3.8,6.8,2.9,9.1c-0.9,2.3-3.8,3.9-5.5,2.9
					S223.9,216.2,225.5,209.2z"/>
				<g>
					<path class="st24" d="M228,204.2c0.3-0.6,0.6-2.2,0.8-2.9c1-4.7,4-8.6,7.1-12.1c0.5-0.6,1.1-1.2,1.6-1.8
						c0.3-0.3,0.5-0.6,0.8-0.9c0.2-0.3,0.4-0.6,0.8-0.4c0.3,0.1,0.5,0.4,0.7,0.7c0.5,1,0.4,2.1,0.1,3.2c-0.4,1-1,1.9-1.5,2.9
						c-0.4,0.7,0.5,0.6,1,0.5c2.2-0.6,4.6-3.2,6.1-4.8c1-1,1.8-2.3,2.9-3.2c0.7-0.6,1.5-1,2.4-1c0.6,0,1.2,0.1,1.1,0.9
						c0,0.5-0.3,0.9-0.5,1.3c-0.5,0.8-0.9,1.6-0.6,2.6c0.2,0.6,0.5,1.2,0.5,1.9c0,0.8-0.5,1.6-0.5,2.4c-0.1,0.7,0.3,1.4,0.3,2.1
						c0,0.7-0.6,1.7-0.9,2.4c-0.8,1.5-1.8,3-3,4.3c-1.8,2-3.9,3.6-6,5.1c-1.2,0.8-2.5,1.7-3.2,3c-0.8,1.3-1.2,2.7-1.7,4.1
						c-0.6,1.8-1.2,3.5-1.8,5.3c-6.4,19-8.6,19.8-11.5,22.4c-1.7,1.6-6.4,2.7-11.6-4.3c-5.8-7.7-16.3-27.2-16.3-27.2l-1-24
						c0,0,4.3,0.4,7.1,1.9c3.3,1.8,4.7,4.6,6.3,8c3.3,7,11.8,25.3,11.8,25.3S226.8,206.6,228,204.2z"/>
				</g>
				<path class="st11" d="M193.4,185.8c5.4,1.1,7.5,1.4,10.2,3.9s5.4,9.2,7.7,14.1c2.4,4.9,7.7,16.3,7.7,16.3l6.4-11
					c0,0-0.3,5,3.8,9c4.1,4.1,6.6,3.6,7.4,2.8c-2,5.3-8.6,19.1-12.8,21.4c-4.2,2.3-7.6,2.1-12.5-3.3c-5-5.4-17.9-29.2-17.9-29.2
					L193.4,185.8L193.4,185.8z"/>
				<path class="st27" d="M237.6,196c-0.1,2.7-1.6,6.3-2.8,7.5c0,0,2-1.4,2.7-3.4C238.2,198,238,197,237.6,196z"/>
			</g>
			<g>
				<path id="XMLID_3242_" class="st2" d="M172.5,186l-7.2,1.4c-5.2,1.3-8.1,3-8.6,7.6c-0.2,2.1-1.5,7.8,0.3,15
					c1.6,6.5,6,22.3,6,22.3s-5.7,14.2-8.3,21.5c18.4,12,41.1,7.3,48.8,0c-0.6-6.9-3.1-13.3-3.6-19.4c0,0,0.4-9.6,1.2-13.7
					c5.8-6.4,5.1-12.4,2.5-17.3c-4.8-9.1-12.1-17-14.5-17L172.5,186z"/>
				<path id="XMLID_774_" class="st12" d="M172.5,186l-7.2,1.4c-5.2,1.3-8.1,3-8.6,7.6c-0.2,2.1-1.5,7.8,0.3,15
					c1.6,6.5,6,22.3,6,22.3s-5.7,14.2-8.3,21.5c18.4,12,41.1,7.3,48.8,0c-0.6-6.9-3.1-13.3-3.6-19.4c0,0,0.4-9.6,1.2-13.7
					c5.8-6.4,5.1-12.4,2.5-17.3c-4.8-9.1-12.1-17-14.5-17L172.5,186z"/>
			</g>
			<path class="st0" d="M185.7,183.5c2.8,0.8,5.2,2,8.3,4.9c4.2,4,5.8,9,5.8,9s-5.9-7.3-10.4-9.6c-1.8-1-3.8-1.3-3.8-1.3
				L185.7,183.5z"/>
			<path class="st6" d="M169.1,186.4c0,0,1.1,4.7,10.9,28c1.5,11.5-3.6,46.1-4.3,66.7c-0.6,15-2,36.5-2,36.5s-6.1,1.2-13.8,0.3
				c-7.6-0.9-10.6-2.1-14.9-4.9c0,0,2.7-37.7,4.6-52.3c1.7-13.7,6.8-26.2,6.8-26.2l-4.7-39c0,0-0.5-3.6,5.1-6.2L169.1,186.4z"/>
			<g>
				<path class="st2" d="M169.6,206.8c0-0.7-0.1-2.2-0.2-4.2c-0.6-9.5-0.9-18,2.3-18.7l0.3,1.3c-2.3,0.5-1.6,12.7-1.3,17.3
					c0.1,2,0.2,3.5,0.2,4.3L169.6,206.8z"/>
			</g>
			<g>
				<g>
					<path class="st17" d="M167.7,238.4h-0.1v-0.9c0.8,0,2-0.4,3.1-1.1c-1-0.7-1.9-1.5-2.5-2.3c-1.5-1.9-4.8-15.8-3.8-19.1
						c0.9-2.7,3.5-8.7,5.9-8.8c0,0,0,0,0.1,0c2.4,0,5.5,5.7,6.6,8.3c1.3,3.1-0.8,17.3-2.1,19.3c-0.5,0.8-1.4,1.7-2.3,2.5
						c1.1,0.6,2.3,1,3.1,0.9l0.1,0.9c-1.1,0.1-2.7-0.4-4.1-1.2C170.3,237.8,168.9,238.4,167.7,238.4z M170.3,207.1L170.3,207.1
						c-1.4,0.1-3.9,4.5-5.1,8.1c-0.9,3,2.2,16.4,3.6,18.2c0.6,0.8,1.6,1.6,2.6,2.3c1-0.8,1.9-1.7,2.4-2.5c1.2-1.9,3.3-15.6,2.1-18.5
						C174.6,211.3,171.7,207.1,170.3,207.1z"/>
				</g>
				<g>
					<path class="st15" d="M177,237.5c0,0.8-0.6,1.4-1.3,1.4c-0.8,0-1.4-0.6-1.4-1.3c0-0.8,0.6-1.4,1.3-1.4S176.9,236.8,177,237.5z"
						/>
				</g>
				<g>
					<path class="st15" d="M169,237.9c0,0.8-0.6,1.4-1.3,1.4c-0.8,0-1.4-0.6-1.4-1.3c0-0.8,0.6-1.4,1.3-1.4
						C168.3,236.5,169,237.1,169,237.9z"/>
				</g>
				<g>
					<g>
						<path class="st2" d="M177.1,220.5l-0.8-0.1c-0.2,0-0.3-0.2-0.3-0.3c0.2-2.6,0.1-4.5-0.2-5.3c-1.4-3.4-4.2-7.6-5.5-7.5
							c-1.2,0.1-3.7,4.5-4.8,8c-0.2,0.8-0.2,2.7,0.2,5.3c0,0.2-0.1,0.3-0.3,0.4l-0.8,0.1c-0.2,0-0.3-0.1-0.4-0.3
							c-0.4-2.9-0.5-4.9-0.2-5.9c0.6-1.9,3.3-8.8,6.1-9c2.8-0.1,6.1,6.6,6.8,8.4c0.4,1,0.5,3,0.3,5.9
							C177.4,220.4,177.3,220.5,177.1,220.5z"/>
					</g>
				</g>
			</g>
			<g>
				<path class="st15" d="M205.3,154.7c-0.3,1.2-2.2,1.5-2.8,0.4c-0.8-1.3,0.3-2.9,0.7-4.3c0.7-2.3-1-5.3-3.3-5.2
					c1.1-0.6,1.5-2.1,1.2-3.4c-0.3-1.2-1.3-2.2-2.4-2.8c-1.8-0.9-4-0.9-5.8,0.1c0.7-1.1,0.8-2.6,0.3-3.8c-0.6-1.2-1.8-1.9-3.1-1.9
					c0.9,0.6,0.8,2.2-0.1,2.9c-0.8,0.7-2,0.7-3,0.3s-1.9-1.1-2.8-1.6c-2.8-1.6-6.3-2-9.4-1c-3.2,1.1-6.2,3.7-6.9,7.3
					c-2.3-0.2-4.6,0.3-6.7,1.4c-1,0.5-2,1.2-2.6,2.3c-0.9,1.6-0.6,3.5-0.3,5.3c-2.2,0.9-3.8,3.2-4.1,5.6c-0.3,2.5,0.6,5,2.2,6.9
					c0.6,0.6,1.2,1.2,1.6,2c0.4,0.7,0.7,1.7,0.3,2.5c-0.6,1.3-2.3,1.4-3.5,0.9c-0.3,1.2,0.6,2.4,1.7,2.9c1.1,0.4,2.3,0.3,3.5,0.2
					c-1.3,1.7-1.2,4.4,0.3,5.9c1.4,1.5,3.3,1.5,4.9,0.1c-1.2,1.8,0.2,5.1,2.9,4.3c-0.5-0.2-0.9-0.8-0.7-1.4c0.1-0.6,0.7-1,1.2-0.9
					c0.6,0,1,0.5,1.5,0.8c1,0.6,2.4,0.6,3.1-0.3c1.4,1.7,3.4,2.8,5.5,3.4c2.1,0.5,4.4,0.5,6.5,0.1c2.2-0.4,4.4-1.2,6.1-2.8
					c2.5-2.3,3.3-5.9,3.6-9.3c0.1-1.2,0.2-2.3,0.5-3.5c0.6-2.3,2-3.2,4.2-3.5c1.7-0.3,3.3-1.2,4.4-2.6
					C205.6,160,206.1,157.1,205.3,154.7z"/>
				<g>
					<g>
						<g id="XMLID_803_">
							<g id="XMLID_817_">
								<path id="XMLID_818_" class="st24" d="M194.2,146c1.8,0.7,5.5,5.5,5.1,19.5c-0.3,11.3-2.3,13-5.1,14.5
									c-1.8,1-5.9,1.1-8.5,0.9v5.6c0,0,6.4,6.5-2.2,7.4c-8.6,0.9-14.2-6.7-14.2-6.7l0.2-13.9c0,0-2.2,2.2-5.5-0.4
									c-3-2.4-3.1-7.1-1-9.4c1.1-1.3,2.9-1.8,4.5-1.1c0.5,0.2,1.1,0.5,1.5,1c0.3,0.4,0.6,0.9,0.9,1.3c0.9,1.1,2.4,0.9,3.2-0.2
									c0.4-0.5,0.7-1.2,0.8-1.9c0.9-3.4,0-7.2,1.5-10.4c0.6-1.3,1.5-2.1,2.9-2.3c1.5-0.3,3,0.3,4.4,0.7c2.5,0.7,5.4,1,7.7,0
									C192.9,149.5,193.8,148.1,194.2,146z"/>
							</g>
							<path id="XMLID_681_" class="st28" d="M183.9,170.9l5,1.8c-0.5,1.5-1.9,2.3-3.3,1.8C184.2,174,183.5,172.3,183.9,170.9z"/>
							<path class="st29" d="M184.6,172c-0.3,0-0.5,0-0.7,0.1c0.1,1.1,0.8,2,1.8,2.4c0.4,0.1,0.8,0.2,1.2,0.1v-0.1
								C186.8,173.1,185.8,172,184.6,172z"/>
							<g id="XMLID_812_">
								<path id="XMLID_814_" class="st15" d="M197.5,157.2l-3.4-0.9c0.2-0.9,1.2-1.5,2.1-1.3C197.1,155.3,197.7,156.2,197.5,157.2z
									"/>
							</g>
							<g id="XMLID_809_">
								<path id="XMLID_811_" class="st15" d="M184.6,156.4l-3.2,1.5c-0.5-0.9-0.1-1.9,0.8-2.3C183,155.2,184.1,155.6,184.6,156.4z"
									/>
							</g>
							<g id="XMLID_806_">
								<polygon id="XMLID_807_" class="st27" points="188.8,160 189.3,168.9 194.5,167.9 								"/>
							</g>
							<g id="XMLID_804_">
								<path id="XMLID_805_" class="st27" d="M185.8,180.9c-6.8-0.8-12.5-3.5-13.8-6.4c0,0-0.1,2.8,3.2,4.9
									c3.5,2.2,10.5,3.6,10.5,3.6L185.8,180.9z"/>
							</g>
						</g>
						<g id="XMLID_801_">
							<path id="XMLID_802_" class="st15" d="M193.9,161.3c-0.1,0.8,0.5,1.7,1.3,1.8c0.9,0.2,1.6-0.4,1.8-1.3
								c0.1-0.8-0.5-1.7-1.3-1.8C194.8,159.9,194,160.4,193.9,161.3z"/>
						</g>
						<g id="XMLID_799_">
							<path id="XMLID_800_" class="st15" d="M182.7,161.7c-0.1,0.8,0.5,1.7,1.3,1.8c0.9,0.2,1.6-0.4,1.8-1.3
								c0.1-0.8-0.5-1.7-1.3-1.8C183.6,160.3,182.8,160.8,182.7,161.7z"/>
						</g>
					</g>
					<path class="st16" d="M177.9,157.9l-10.8,4.3c0,0,1.1,0.2,2,1.3l8.8-3.3V157.9z"/>
					<g>
						<path class="st16" d="M201.7,156.7c-0.2,0-0.4,0-0.7-0.1c-2.2-0.2-5-0.1-6.8,0.5c-2.2,0.7-2.9,1.5-4.1,1.6
							c-1.3,0-2.1-0.7-4.4-1.3c-1.8-0.5-4.9-0.3-7.2,0c-0.3,0-0.5,0.1-0.7,0.1c-0.4,0.1-0.8,0.6-0.8,1.3c0,0.6,0.5,1.1,0.7,1.4
							c0.1,0.1,0.2,0.3,0.2,0.6c0.2,1,0.4,2.9,0.9,3.9c0.2,0.4,0.5,0.9,0.9,1.4c0.1,0.1,0.3,0.3,0.5,0.4c0.1,0.1,0.2,0.1,0.3,0.2
							c0.2,0.1,0.5,0.3,0.8,0.4h0.1c0.1,0,0.1,0,0.2,0.1c0.1,0,0.1,0,0.2,0c0.2,0,0.5,0.1,0.7,0.1c0.1,0,0.2,0,0.3,0s0.3,0,0.4,0
							c3-0.1,4.2-1.6,5-3.1c0.7-1.5,0.6-3.6,1.9-3.7h0.1h0.1c1,0.2,0.9,2.1,1.5,3.5c0.2,0.5,0.5,1,1,1.5c0.1,0.1,0.1,0.2,0.2,0.2
							l0.1,0.1l0.1,0.1l0.1,0.1c0.1,0,0.1,0.1,0.1,0.1s0.1,0,0.1,0.1c0,0,0,0,0.1,0c0.3,0.2,0.7,0.3,1.2,0.4h0.1
							c0.4,0.1,0.9,0.1,1.4,0.1c2.8-0.1,3.7-1.8,4.2-2.9c0.5-1.1,0.6-3,0.9-4c0.1-0.2,0.1-0.4,0.3-0.5c0.2-0.2,0.6-0.8,0.6-1.5
							C202.5,157.3,202.1,156.7,201.7,156.7z M187.5,162.7c-0.1,0.6-0.4,1.4-1,2.1l0,0c-0.6,0.7-1.6,1.3-3.2,1.3
							c-1.6,0-2.5-0.6-3.1-1.4l-0.1-0.1l-0.1-0.1l-0.1-0.1c0,0,0-0.1-0.1-0.1v-0.1v-0.1c0,0,0-0.1-0.1-0.1l0,0
							c-0.1-0.1-0.1-0.3-0.2-0.4l0,0c0-0.1-0.1-0.2-0.1-0.3c0-0.2-0.1-0.3-0.1-0.4v-0.1v-0.1c-0.2-1-0.5-3.1,0-3.5
							c0.5-0.5,1.9-1,4.1-0.9c0.1,0,0.2,0,0.2,0c0.3,0,0.7,0.1,1,0.1c0.1,0,0.3,0.1,0.4,0.1c0.3,0.1,0.7,0.2,1,0.3
							c0.1,0,0.2,0.1,0.3,0.1s0.2,0.1,0.3,0.1c0,0,0,0,0.1,0c0,0,0.1,0,0.1,0.1c0.3,0.2,0.5,0.3,0.7,0.5
							C187.9,160.2,187.7,161.6,187.5,162.7z M200.4,161.9c-0.2,0.8-0.5,2.6-2.1,3.4c-0.4,0.2-1,0.4-1.6,0.4
							c-1.8,0.1-2.7-0.6-3.3-1.4l0,0c0,0,0-0.1-0.1-0.1c0,0,0-0.1-0.1-0.1c0,0,0,0,0-0.1s-0.1-0.1-0.1-0.2c0-0.1-0.1-0.1-0.1-0.2
							v-0.1c0,0,0,0,0-0.1v-0.1c0,0,0,0,0-0.1c-0.1-0.3-0.2-0.5-0.2-0.8c-0.2-1.1-0.3-2.5,0.1-3.1c0.4-0.7,2-1.4,3.6-1.7
							c0.4-0.1,0.7-0.1,1-0.1h0.1h0.1c0.1,0,0.2,0,0.4,0h0.1c0.1,0,0.1,0,0.2,0c0.1,0,0.2,0,0.3,0c0.2,0,0.4,0,0.5,0.1h0.1l0,0h0.1
							h0.1c0.1,0,0.1,0,0.1,0c0.1,0,0.2,0.1,0.2,0.1l0,0c0.2,0.1,0.4,0.2,0.5,0.3C200.9,158.8,200.6,160.8,200.4,161.9z"/>
					</g>
				</g>
				<path class="st15" d="M190.8,151.7c-1.7,1-3.6,1.6-5.5,2.1c-1.5,0.4-3.1,0.6-4.5,1.3c-1.4,0.6-2.7,1.8-3.1,3.3
					c-0.3,1.5,0.6,3.4,2.2,3.5c-0.9,0.4-2.1,0.4-3.1,0.1c-2-0.6-3.9-1.7-5-3.5c-2.6-4.2,0.2-9.4,3.6-12.1c3.8-3.2,9.2-5,14.2-4.5
					c2.2,0.3,4.4,1.8,4.5,4.1C194.3,148.6,193.5,150,190.8,151.7z"/>
			</g>
			<path class="st1" d="M169.4,182.6c-0.7,0.3-1.7,1.7-3.5,3c-2,1.4-5.1,2.6-5.1,2.6s3.9,8.9,5.6,11c1.3,1.6,9.4,7.7,9.4,7.7
				s-2.2,8.2-2.2,10.9c-0.1,2.7,5.2,12.9,5.7,18.1c0,0,1.6-16.4,0.9-22.3c-1.3-10.2-8.1-20.7-9.3-23.9
				C169.7,186.5,169.4,182.6,169.4,182.6z"/>
			<g>
				<g>
					<polygon class="st2" points="218.6,222.7 185.4,234.5 174.6,280 175.3,280.8 206.9,269 219.4,223.5 					"/>
					<polygon class="st20" points="186.1,235.2 175.3,280.8 174.6,280 185.4,234.5 					"/>
					<polygon id="XMLID_766_" class="st26" points="219.4,223.5 186.1,235.2 175.3,280.8 206.9,269 					"/>
					<g id="XMLID_708_" class="st30">
						<path id="XMLID_764_" d="M209.3,231.6c0,0,0.1-0.6,0.3-1.3s-1.8-0.3-4.4,0.9l-6,1.8c-2.6,1.2-5,2.1-5.1,2.8l-0.3,1.3
							L209.3,231.6z"/>
					</g>
					<g id="XMLID_705_">
						<path id="XMLID_707_" class="st16" d="M211.3,225.6c0.1-0.5-0.7-0.4-1.7-0.1l-1.9,0.7c0,0,0.8-1.9-3.8-0.7
							c-5,1.4-5.1,3.8-5.1,3.8s-0.6,0.3-2.4,0.9c-1.7,0.5-1.8,0.9-2,1.3l-0.2,0.8l16.9-6C211.2,226.4,211.2,226.1,211.3,225.6z"/>
					</g>
					<g id="XMLID_702_">
						<path id="XMLID_703_" class="st16" d="M209.5,228.2c-1.6,0.7-2.2,1.1-2.5,2.2c-0.3,1.3-0.3,1.8-0.3,1.8l-8.8,3.5
							c0,0,0.5-1.9,0.6-2.5s-1-0.6-2.6,0.1l0.4-1.6l13.7-5.1L209.5,228.2z"/>
					</g>
					<g id="XMLID_700_">
						<path id="XMLID_701_" class="st16" d="M209.8,231.6c0,0,0.1-0.6,0.3-1.3s-1.8-0.3-4.4,0.9l-6,1.8c-2.6,1.2-5,2.1-5.1,2.8
							l-0.3,1.3L209.8,231.6z"/>
					</g>
				</g>
				<path class="st1" d="M166.7,261c1.8,0.7,2.9,0.1,4.2-2.2c1.3-2.3,4-10.8-0.3-12.3c-4.2,0.7-6.4,5.6-6.4,8.9
					C164.3,258.7,166.7,261,166.7,261z"/>
				<path class="st26" d="M166.7,261c1.8,0.7,2.9,0.1,4.2-2.2c1.3-2.3,4-10.8-0.3-12.3c-4.2,0.7-6.4,5.6-6.4,8.9
					C164.3,258.7,166.7,261,166.7,261z"/>
				<g>
					<g>
						<path class="st24" d="M140.6,248.7c-4-2.3-5.6-2.7-4.9-8.9c2-16.7,6.5-31.1,7.8-37.3c1.9-9.5,7.3-12.4,12.7-13.1
							c6.6,5,5.6,17.7,2.2,26.9l-5.9,20.2c5.5,3.3,13.2,7.7,16.6,9.2c4.2,1.9,7.2,2.3,8.9,1.2c1.9-1.1,2.3-1.4,3-1.7
							c1.1-0.5,1.9-0.5,1.9-0.5l-1,4.1c-0.1,0.4-0.1,1.3,0.3,1.6c0.4,0.3,1.3,0.5,1.8,0.5c0.7,0.1,1.3,0,2,0c2.4-0.3,4.8-0.9,7-1.8
							c2.1-0.9,4.1-2,6.5-2c0.6,0,1.3,0.2,1.4,0.8c0.1,0.5-0.4,1-0.8,1.4c-1,1.2-1.3,2.7-2.1,3.9c-0.4,0.6-1,1-1.4,1.6
							c-0.5,0.7-0.8,1.6-1.4,2.3c-0.4,0.5-0.9,0.8-1.4,1.2c-0.8,0.5-1.5,1.1-2.3,1.6c-0.7,0.5-1.3,0.9-2.1,1.2
							c-0.8,0.3-1.7,0.5-2.5,0.7c-2.6,0.4-5.2,0.4-7.8-0.1s-5.1-1.4-7.6-2.1C165.4,257.8,144.7,251.1,140.6,248.7z"/>
					</g>
				</g>
				<path class="st11" d="M156.6,189.2c-4.3,0.7-8.2,1.4-10.9,5.7c-2.7,4.4-4.5,13.1-7.1,24.4c-2.6,11.2-3.8,21-3.9,23.9
					c-0.1,2.8,1.1,4.4,3.9,6.2c2.8,1.8,28.5,11.8,28.5,11.8s-1.8-0.9-1.2-6.4c0.7-6,3-8,4.6-8.4l-17.2-9.6l7.5-26.2
					C160.9,210.6,164.5,195,156.6,189.2z"/>
			</g>
		</g>
	</g>
</g>
<g id="Speech_Bubble">
	<g id="Speech_Bubble_8_">
		<g id="Speech_Bubble_11_">
			<g>
				<path class="st2" d="M182.7,110.7l-7,4l2.8,6.2c0.1,0.1,0.2,0.2,0.3,0.3c0.3,0.2,2.3,1.3,2.4,1.4c0.3,0.2,0.8,0.1,0.9-0.4
					l3-10.2L182.7,110.7z"/>
				<path class="st31" d="M182.7,110.7l-7,4l2.8,6.2c0.1,0.1,0.2,0.2,0.3,0.3c0.3,0.2,2.3,1.3,2.4,1.4c0.3,0.2,0.8,0.1,0.9-0.4
					l3-10.2L182.7,110.7z"/>
				<path class="st2" d="M178.2,116.1l2.8,6.2c0.2,0.5,1,0.5,1.2-0.1l3-10.2L178.2,116.1z"/>
			</g>
			<g>
				<path id="XMLID_882_" class="st2" d="M191.5,71.3l-26.4,15.2c-0.3,0.2-0.6,0.7-0.6,1v32.7c0,0.4,0.3,0.9,0.6,1l2.2,1.2
					c0.3,0.2,0.9,0.2,1.2,0l26.4-15.2c0.3-0.2,0.6-0.7,0.6-1V73.6c0-0.4-0.3-0.9-0.6-1l-2.2-1.2C192.4,71.1,191.9,71.1,191.5,71.3z"
					/>
				<path id="XMLID_881_" class="st4" d="M195.5,73.5c0-0.3-0.3-0.4-0.6-0.2l-26.4,15.2c-0.2,0.1-0.3,0.3-0.4,0.5l-3.4-1.9
					c0.1-0.2,0.3-0.3,0.4-0.4l26.4-15.2c0.3-0.2,0.9-0.2,1.2,0l2.2,1.2C195.2,72.7,195.5,73.1,195.5,73.5z"/>
				<path id="XMLID_880_" class="st2" d="M168,122.2V89.5c0-0.4,0.3-0.9,0.6-1L195,73.3c0.3-0.2,0.6,0,0.6,0.3v32.7
					c0,0.4-0.3,0.9-0.6,1l-26.4,15.2C168.2,122.8,168,122.6,168,122.2z"/>
				<path id="XMLID_879_" class="st31" d="M168.6,122.6c-0.3,0.2-0.9,0.2-1.2,0l-2.2-1.2c-0.3-0.2-0.6-0.7-0.6-1V87.6
					c0-0.2,0.1-0.4,0.2-0.6l3.4,1.9c-0.1,0.2-0.2,0.4-0.2,0.6v32.7C168,122.6,168.2,122.8,168.6,122.6z"/>
			</g>
		</g>
		<g id="Check_List_2_">
			<g>
				<g>
					<path id="Check_2_" class="st10" d="M190.2,84c-1.1-0.5-2.4,0.1-2.8,1.1l-8.1,19.3l-1.9-1.9c-0.8-0.8-2.2-0.8-3,0s-0.8,2.2,0,3
						l4.2,4.1c0.4,0.4,0.9,0.6,1.5,0.6c0.1,0,0.3,0,0.4,0c0.7-0.1,1.3-0.6,1.6-1.3l9.3-22.2C191.8,85.7,191.3,84.4,190.2,84z"/>
				</g>
			</g>
		</g>
	</g>
</g>
</svg>
