<svg id="_25" data-name="25" xmlns="http://www.w3.org/2000/svg" xmlns:xlink="http://www.w3.org/1999/xlink" viewBox="0 0 396.28 114"><defs><style>.cls-1{fill:url(#linear-gradient);}.cls-2{fill:url(#linear-gradient-2);}.cls-3{fill:url(#linear-gradient-3);}.cls-4{fill:url(#linear-gradient-4);}.cls-5{fill:url(#linear-gradient-5);}.cls-6{fill:url(#linear-gradient-6);}.cls-7{font-size:68.55px;}.cls-7,.cls-9{fill:#3e3e3e;font-family:MyriadPro-Regular, Myriad Pro;}.cls-8{letter-spacing:0em;}.cls-9{font-size:33.6px;}.cls-10{letter-spacing:-0.05em;}.cls-11{letter-spacing:0.01em;}.cls-12{fill:#ff7f9d;}</style><linearGradient id="linear-gradient" x1="121.31" y1="-72.93" x2="158.36" y2="-20.53" gradientTransform="matrix(1, 0.06, -0.06, 1, -107.29, 104.82)" gradientUnits="userSpaceOnUse"><stop offset="0" stop-color="#cd406a"/><stop offset="0.5" stop-color="#ff7c9b"/><stop offset="1" stop-color="#ca3b67"/></linearGradient><linearGradient id="linear-gradient-2" x1="142.42" y1="-51.99" x2="100" y2="5.03" xlink:href="#linear-gradient"/><linearGradient id="linear-gradient-3" x1="114.24" y1="-98.62" x2="162.26" y2="-98.62" gradientTransform="matrix(1, 0.06, -0.06, 1, -107.29, 104.82)" gradientUnits="userSpaceOnUse"><stop offset="0" stop-color="#ff82a0"/><stop offset="0.5" stop-color="#ff7c9b"/><stop offset="1" stop-color="#ff9bb3"/></linearGradient><linearGradient id="linear-gradient-4" x1="234.63" y1="-64.23" x2="234.63" y2="-23.5" xlink:href="#linear-gradient"/><linearGradient id="linear-gradient-5" x1="273.78" y1="-29.59" x2="273.78" y2="5.73" xlink:href="#linear-gradient"/><linearGradient id="linear-gradient-6" x1="203.9" y1="-37.63" x2="145.48" y2="-2.61" xlink:href="#linear-gradient"/></defs><path class="cls-1" d="M67.19,95.07s-1.64,3.84-4.73,9.6c-.76-.08-16.55.4-24.37-11.4-10-15.08-25.9-42.85-26.21-43.49a33,33,0,0,1-3.4-14.67c.38-5.66,3.79-10.59,9-14,.18,5.52,1.8,13.31,8,22.51.73,1.09,5.49,8.42,12,17.45C45.12,71.62,58.35,87.05,67.19,95.07Z"/><path class="cls-2" d="M43.67,44.68c7.23-8.44,9.71-16,10.51-21.46,4.78,3.93,7.61,9.21,7.36,14.87a32.79,32.79,0,0,1-5,14.19c-.67,1.07-34.86,50.88-51,61.72C5.47,113.5,0,88.88,0,88.88c9.68-7,21-18.62,29.76-28.2C37.26,52.43,42.82,45.68,43.67,44.68Z"/><path class="cls-3" d="M54,12.26h0a17,17,0,0,0-3.78-7.1A16.14,16.14,0,0,0,43.67.93C41.5.21,32.64-.29,30.4.19a16.15,16.15,0,0,0-7,3.46,17.3,17.3,0,0,0-4.65,6.88,2.44,2.44,0,0,1,.1-.25c-1.69,3.87-4.1,9.15-7.33,16.49C29.21,15,43,15.7,59.46,29.46,57.56,23.29,55.6,17.31,54,12.26Z"/><path class="cls-4" d="M127.53,66.4l-24.89.68,9.12,5.06c12.54,15.83,17.2,35.7,31.42,34.5a39.73,39.73,0,0,0,11.79-3C149.16,96.46,137.55,67.42,127.53,66.4Z"/><path class="cls-5" d="M170.77,89.63s-18.61,18.59-32.86,16.73c0,0,43,13.6,58.64-14.11l-15.37,4.31-10.88-7"/><path class="cls-6" d="M111.76,72.14C97.85,75.35,74.3,124.27,43.5,98.93h0c4,.55,8.79,1,13.09-.74C75.35,90.68,97.29,53.51,111.76,72.14Z"/><text class="cls-7" transform="translate(209.89 59.4)"><tspan class="cls-8">S</tspan><tspan x="33.59" y="0">tudio</tspan></text><text class="cls-9" transform="translate(210.21 99.16)">D<tspan class="cls-10" x="22.38" y="0">r</tspan><tspan x="31.59" y="0">. </tspan><tspan class="cls-11" x="45.66" y="0">M</tspan><tspan x="72.88" y="0">ondello</tspan></text><path class="cls-12" d="M63.7,16.23V12.47h22v3.76l-10.2,1.05h-2ZM75.55,53.61l10.2,1v3.76h-22V54.65l9.8-1ZM69,34.15c0-7.2,0-14.47-.21-21.68H80.93c-.21,7.07-.21,14.34-.21,21.68V36.3c0,7.64,0,14.91.21,22.11H68.77C69,51.35,69,44.08,69,36.74Zm5.87,2.69V32.77H101.5v4.07ZM90.6,16.23V12.47h22.05v3.76L102.6,17.28h-2Zm12,37.38,10.05,1v3.76H90.6V54.65l10-1Zm-7-19.46c0-7.2,0-14.47-.2-21.68h12.16c-.21,7.07-.21,14.34-.21,21.68v2.59c0,7.2,0,14.47.21,21.67H95.42c.2-7.06.2-14.33.2-22.11Z"/><path class="cls-12" d="M117.19,16.23V12.47h11.25v4.81h-1.1Zm13.37,37.38,10.15,1v3.76H117.19V54.65l10.15-1Zm-8-19.46c0-7.2,0-14.47-.2-21.68h12.15c-.2,7.07-.2,14.34-.2,21.68v4.26c0,5.72,0,12.8.2,20H122.37c.2-7.06.2-14.33.2-21.67Zm13.7,6.69h-7.83V36.92h7.93c6.17,0,9.23-4.29,9.23-10.68s-3.43-9.74-9.51-9.74h-7.65v-4h7.76c14.59,0,20.38,5.48,20.38,13.82C156.58,34.27,151.45,40.84,136.27,40.84Z"/><path class="cls-12" d="M167.76,17.28l-10.15-1.05V12.47h22.56v3.6l-9.95,1.21Zm-7.59-4.81h12.62l11.76,35.38-2,1.51L195,12.47h4.54l-16,46.08h-6.83Zm35.24,4.81L188,16.07v-3.6h15.14v3.76l-6.65,1.05Z"/></svg>