<?xml version="1.0" encoding="utf-8"?>
<!-- Generator: Adobe Illustrator 26.2.1, SVG Export Plug-In . SVG Version: 6.00 Build 0)  -->
<svg version="1.1" id="Livello_1" xmlns="http://www.w3.org/2000/svg" xmlns:xlink="http://www.w3.org/1999/xlink" x="0px" y="0px"
	 viewBox="0 0 233 64" style="enable-background:new 0 0 233 64;" xml:space="preserve">
<style type="text/css">
	.st0{fill:url(#SVGID_1_);}
	.st1{fill:url(#SVGID_00000109734521173426059940000002372592430048546958_);}
	.st2{fill:url(#SVGID_00000150783629991865284130000015170908532351123099_);}
	.st3{fill:url(#SVGID_00000063591036759086117860000012313196719671750315_);}
	.st4{fill:url(#SVGID_00000065790334744308540970000013646884888459889028_);}
	.st5{fill:url(#SVGID_00000011001625430037554210000012576454795254965654_);}
	.st6{fill:#3E3E3E;}
	.st7{font-family:'MyriadPro-Regular';}
	.st8{font-size:38.16px;}
	.st9{font-size:18.7056px;}
	.st10{fill:#FF7F9D;}
</style>
<g>
	<g>
		<g>
			<g>
				
					<linearGradient id="SVGID_1_" gradientUnits="userSpaceOnUse" x1="116.3059" y1="-95.9558" x2="136.9327" y2="-66.7882" gradientTransform="matrix(0.9984 5.610000e-02 -5.610000e-02 0.9984 -108.5277 111.4257)">
					<stop  offset="0" style="stop-color:#CD406A"/>
					<stop  offset="0.4978" style="stop-color:#FF7C9B"/>
					<stop  offset="1" style="stop-color:#CA3B67"/>
				</linearGradient>
				<path class="st0" d="M40.4,53.5c0,0-0.9,2.1-2.6,5.3c-0.4,0-9.2,0.2-13.6-6.3C18.6,44.1,9.8,28.6,9.6,28.3c-1.4-3-2-6-1.9-8.2
					c0.2-3.2,2.1-5.9,5-7.8c0.1,3.1,1,7.4,4.5,12.5c0.4,0.6,3.1,4.7,6.7,9.7C28.1,40.4,35.5,49,40.4,53.5z"/>
				
					<linearGradient id="SVGID_00000014617462214142964470000010745472079617968568_" gradientUnits="userSpaceOnUse" x1="128.0556" y1="-84.2992" x2="104.4431" y2="-52.556" gradientTransform="matrix(0.9984 5.610000e-02 -5.610000e-02 0.9984 -108.5277 111.4257)">
					<stop  offset="0" style="stop-color:#CD406A"/>
					<stop  offset="0.4978" style="stop-color:#FF7C9B"/>
					<stop  offset="1" style="stop-color:#CA3B67"/>
				</linearGradient>
				<path style="fill:url(#SVGID_00000014617462214142964470000010745472079617968568_);" d="M27.3,25.4c4-4.7,5.4-8.9,5.8-11.9
					c2.7,2.2,4.2,5.1,4.1,8.3c-0.2,2.1-1.1,5.1-2.8,7.9C34.1,30.2,15.1,58,6.1,64C6,63.7,3,50,3,50c5.4-3.9,11.7-10.4,16.6-15.7
					C23.7,29.7,26.8,26,27.3,25.4z"/>
				
					<linearGradient id="SVGID_00000116213029670426804560000006044878019653103278_" gradientUnits="userSpaceOnUse" x1="112.3694" y1="-110.2604" x2="139.1031" y2="-110.2604" gradientTransform="matrix(0.9984 5.610000e-02 -5.610000e-02 0.9984 -108.5277 111.4257)">
					<stop  offset="0" style="stop-color:#FF82A0"/>
					<stop  offset="0.4978" style="stop-color:#FF7C9B"/>
					<stop  offset="1" style="stop-color:#FF9BB3"/>
				</linearGradient>
				<path style="fill:url(#SVGID_00000116213029670426804560000006044878019653103278_);" d="M33.1,7.4C33.2,7.6,33.2,7.7,33.1,7.4
					c-0.5-1.5-1.1-2.9-2.1-4c-1.1-1.1-2.3-1.9-3.7-2.4c-1.2-0.4-6.1-0.7-7.4-0.4c-1.4,0.3-2.7,0.9-3.9,1.9c-1.2,1-2,2.4-2.6,3.8
					c0-0.1,0.1-0.1,0.1-0.1c-0.9,2.2-2.3,5.1-4.1,9.2c9.8-6.6,17.5-6.2,26.7,1.5C35,13.5,34,10.2,33.1,7.4z"/>
				
					<linearGradient id="SVGID_00000103250150322134757100000008308454113507936161_" gradientUnits="userSpaceOnUse" x1="179.3916" y1="-91.1131" x2="179.3916" y2="-68.4386" gradientTransform="matrix(0.9984 5.610000e-02 -5.610000e-02 0.9984 -108.5277 111.4257)">
					<stop  offset="0" style="stop-color:#CD406A"/>
					<stop  offset="0.4978" style="stop-color:#FF7C9B"/>
					<stop  offset="1" style="stop-color:#CA3B67"/>
				</linearGradient>
				<path style="fill:url(#SVGID_00000103250150322134757100000008308454113507936161_);" d="M74,37.5l-13.9,0.4l5.1,2.8
					c7,8.8,9.6,19.9,17.5,19.2c1.8-0.2,4.1-0.7,6.6-1.7C86,54.2,79.6,38.1,74,37.5z"/>
				
					<linearGradient id="SVGID_00000066505165153576818110000007272967421400690363_" gradientUnits="userSpaceOnUse" x1="201.1844" y1="-71.8334" x2="201.1844" y2="-52.1693" gradientTransform="matrix(0.9984 5.610000e-02 -5.610000e-02 0.9984 -108.5277 111.4257)">
					<stop  offset="0" style="stop-color:#CD406A"/>
					<stop  offset="0.4978" style="stop-color:#FF7C9B"/>
					<stop  offset="1" style="stop-color:#CA3B67"/>
				</linearGradient>
				<path style="fill:url(#SVGID_00000066505165153576818110000007272967421400690363_);" d="M98.1,50.4c0,0-10.4,10.4-18.3,9.3
					c0,0,23.9,7.6,32.6-7.9l-8.6,2.4l-6.1-3.9"/>
				
					<linearGradient id="SVGID_00000137829863168764713440000007116749620123275925_" gradientUnits="userSpaceOnUse" x1="162.2816" y1="-76.3054" x2="129.7617" y2="-56.8116" gradientTransform="matrix(0.9984 5.610000e-02 -5.610000e-02 0.9984 -108.5277 111.4257)">
					<stop  offset="0" style="stop-color:#CD406A"/>
					<stop  offset="0.4978" style="stop-color:#FF7C9B"/>
					<stop  offset="1" style="stop-color:#CA3B67"/>
				</linearGradient>
				<path style="fill:url(#SVGID_00000137829863168764713440000007116749620123275925_);" d="M65.2,40.7c-7.7,1.8-20.9,29-38,14.9
					l0,0c2.2,0.3,4.9,0.6,7.3-0.4C44.9,51,57.2,30.3,65.2,40.7z"/>
			</g>
		</g>
	</g>
</g>
<text transform="matrix(1 0 0 1 118.1758 33.0519)" class="st6 st7 st8">Studio</text>
<text transform="matrix(1 0 0 1 120.0195 55.7385)" class="st6 st7 st9">Dr. Mondello</text>
<g>
	<g>
		<path class="st10" d="M38.5,9.6V7.5h12.3v2.1l-5.7,0.6h-1.1L38.5,9.6z M45.1,30.4l5.7,0.6v2.1H38.5V31l5.5-0.6H45.1z M41.4,19.5
			c0-4,0-8.1-0.1-12.1h6.8c-0.1,3.9-0.1,8-0.1,12.1v1.2c0,4.3,0,8.3,0.1,12.3h-6.8c0.1-3.9,0.1-8,0.1-12.1V19.5z M44.7,21v-2.3h14.8
			V21H44.7z M53.4,9.6V7.5h12.3v2.1l-5.6,0.6H59L53.4,9.6z M60.1,30.4l5.6,0.6v2.1H53.4V31l5.6-0.6H60.1z M56.2,19.5
			c0-4,0-8.1-0.1-12.1h6.8c-0.1,3.9-0.1,8-0.1,12.1V21c0,4,0,8.1,0.1,12.1h-6.8c0.1-3.9,0.1-8,0.1-12.3V19.5z"/>
		<path class="st10" d="M68.2,9.6V7.5h6.3v2.7h-0.6L68.2,9.6z M75.7,30.4l5.6,0.6v2.1H68.2V31l5.6-0.6H75.7z M71.2,19.5
			c0-4,0-8.1-0.1-12.1h6.8c-0.1,3.9-0.1,8-0.1,12.1v2.4c0,3.2,0,7.1,0.1,11.1h-6.8c0.1-3.9,0.1-8,0.1-12.1V19.5z M78.9,23.3h-4.4
			v-2.2h4.4c3.4,0,5.1-2.4,5.1-5.9c0-3.6-1.9-5.4-5.3-5.4h-4.3V7.5h4.3c8.1,0,11.3,3.1,11.3,7.7C90.2,19.6,87.3,23.3,78.9,23.3z"/>
		<path class="st10" d="M96.8,10.2l-5.6-0.6V7.5h12.6v2l-5.5,0.7H96.8z M92.6,7.5h7l6.5,19.7L105,28l6.9-20.5h2.5l-8.9,25.6h-3.8
			L92.6,7.5z M112.2,10.2L108,9.5v-2h8.4v2.1l-3.7,0.6H112.2z"/>
	</g>
</g>
</svg>
