<?xml version="1.0" ?><!-- Uploaded to: SVG Repo, www.svgrepo.com, Generator: SVG Repo Mixer Tools -->
<svg fill="#000000" width="800px" height="800px" viewBox="0 0 512 512" id="fill" xmlns="http://www.w3.org/2000/svg"><title/><path d="M398.592,14H115.409A100.522,100.522,0,0,0,15,114.409V397.592A100.522,100.522,0,0,0,115.409,498H398.592A100.522,100.522,0,0,0,499,397.592V114.409A100.522,100.522,0,0,0,398.592,14ZM487,397.592A88.509,88.509,0,0,1,398.592,486H115.409A88.509,88.509,0,0,1,27,397.592V114.409A88.509,88.509,0,0,1,115.409,26H398.592A88.509,88.509,0,0,1,487,114.409Z"/><path d="M424,206H334V151a6,6,0,0,0-2.054-4.52l-71-62a6,6,0,0,0-7.892,0l-71,62A6,6,0,0,0,180,151V320H90a6,6,0,0,0-6,6v25a6,6,0,0,0,6,6h7v66a6,6,0,0,0,12,0V357h71v66a6,6,0,0,0,6,6H328a5.809,5.809,0,0,1,3,0h93a6,6,0,0,0,6-6V212A6,6,0,0,0,424,206ZM257,96.966,317.733,150H196.267ZM96,345V332h84v13Zm186,72H230V369a26,26,0,0,1,52,0Zm12,0V369a38,38,0,0,0-76,0v48H192V162H322V417Zm124,0H334V218h84Z"/><path d="M286.241,209.746h-4.987v-4.987a14.925,14.925,0,0,0-14.908-14.908H245.654a14.925,14.925,0,0,0-14.908,14.908v4.987h-4.987a14.925,14.925,0,0,0-14.908,14.908v20.692a14.925,14.925,0,0,0,14.908,14.908h4.987v4.987a14.925,14.925,0,0,0,14.908,14.908h20.692a14.925,14.925,0,0,0,14.908-14.908v-4.987h4.987a14.925,14.925,0,0,0,14.908-14.908V224.654A14.925,14.925,0,0,0,286.241,209.746Zm2.908,35.6a2.911,2.911,0,0,1-2.908,2.908H275.254a6,6,0,0,0-6,6v10.987a2.911,2.911,0,0,1-2.908,2.908H245.654a2.911,2.911,0,0,1-2.908-2.908V254.254a6,6,0,0,0-6-6H225.759a2.911,2.911,0,0,1-2.908-2.908V224.654a2.911,2.911,0,0,1,2.908-2.908h10.987a6,6,0,0,0,6-6V204.759a2.911,2.911,0,0,1,2.908-2.908h20.692a2.911,2.911,0,0,1,2.908,2.908v10.987a6,6,0,0,0,6,6h10.987a2.911,2.911,0,0,1,2.908,2.908Z"/></svg>