<?xml version="1.0" ?><!-- Uploaded to: SVG Repo, www.svgrepo.com, Generator: SVG Repo Mixer Tools -->
<svg fill="#000000" width="800px" height="800px" viewBox="0 0 512 512" id="fill" xmlns="http://www.w3.org/2000/svg"><title/><path d="M398.592,14H115.409A100.522,100.522,0,0,0,15,114.409V397.592A100.522,100.522,0,0,0,115.409,498H398.592A100.522,100.522,0,0,0,499,397.592V114.409A100.522,100.522,0,0,0,398.592,14ZM487,397.592A88.509,88.509,0,0,1,398.592,486H115.409A88.509,88.509,0,0,1,27,397.592V114.409A88.509,88.509,0,0,1,115.409,26H398.592A88.509,88.509,0,0,1,487,114.409Z"/><path d="M373.623,141.2A368.172,368.172,0,0,1,314.7,117.642c-12.042-6.07-23.258-14.581-33.152-22.092-4.243-3.22-8.25-6.261-12.132-8.982a22.067,22.067,0,0,0-24.8-.314c-4.186,2.807-8.512,5.919-13.093,9.213-11.351,8.163-24.216,17.415-38.128,24.129a420.009,420.009,0,0,1-53.43,21.4,26.353,26.353,0,0,0-18.315,25.147V292c0,39.83,23.3,76.175,67.385,105.1a281.211,281.211,0,0,0,66.245,31.643,5.994,5.994,0,0,0,3.446,0A281.211,281.211,0,0,0,324.968,397.1c44.084-28.929,67.385-65.274,67.385-105.1V166.472A26.241,26.241,0,0,0,373.623,141.2ZM380.353,292c0,36.029-20.772,67.965-61.738,94.919A277.139,277.139,0,0,1,257,416.7c-15.062-4.969-123.356-43.562-123.356-124.7V166.139a14.389,14.389,0,0,1,10-13.727,432.153,432.153,0,0,0,54.96-22.009c14.853-7.169,28.169-16.745,39.918-25.194,4.5-3.235,8.748-6.291,12.77-8.988a9.794,9.794,0,0,1,5.459-1.642,10.066,10.066,0,0,1,5.774,1.816c3.695,2.59,7.615,5.564,11.764,8.714,10.305,7.821,21.984,16.685,35.007,23.249a380.2,380.2,0,0,0,60.847,24.322,14.311,14.311,0,0,1,10.206,13.792Z"/><path d="M303.12,220H292V208.88A19.9,19.9,0,0,0,272.12,189H239.88A19.9,19.9,0,0,0,220,208.88V220H208.88A19.9,19.9,0,0,0,189,239.88v32.24A19.9,19.9,0,0,0,208.88,292H220v11.12A19.9,19.9,0,0,0,239.88,323h32.24A19.9,19.9,0,0,0,292,303.12V292h11.12A19.9,19.9,0,0,0,323,272.12V239.88A19.9,19.9,0,0,0,303.12,220ZM311,272.12a7.889,7.889,0,0,1-7.88,7.88H286a6,6,0,0,0-6,6v17.12a7.889,7.889,0,0,1-7.88,7.88H239.88a7.889,7.889,0,0,1-7.88-7.88V286a6,6,0,0,0-6-6H208.88a7.889,7.889,0,0,1-7.88-7.88V239.88a7.889,7.889,0,0,1,7.88-7.88H226a6,6,0,0,0,6-6V208.88a7.889,7.889,0,0,1,7.88-7.88h32.24a7.889,7.889,0,0,1,7.88,7.88V226a6,6,0,0,0,6,6h17.12a7.889,7.889,0,0,1,7.88,7.88Z"/></svg>