<?xml version="1.0" ?><!-- Uploaded to: SVG Repo, www.svgrepo.com, Generator: SVG Repo Mixer Tools -->
<svg fill="#000000" width="800px" height="800px" viewBox="0 0 512 512" id="fill" xmlns="http://www.w3.org/2000/svg"><title/><path d="M398.592,14H115.409A100.522,100.522,0,0,0,15,114.409V397.592A100.522,100.522,0,0,0,115.409,498H398.592A100.522,100.522,0,0,0,499,397.592V114.409A100.522,100.522,0,0,0,398.592,14ZM487,397.592A88.509,88.509,0,0,1,398.592,486H115.409A88.509,88.509,0,0,1,27,397.592V114.409A88.509,88.509,0,0,1,115.409,26H398.592A88.509,88.509,0,0,1,487,114.409Z"/><path d="M405,107a20.032,20.032,0,0,0-19.575,15.9A16.964,16.964,0,0,0,363,139v12.894A39.059,39.059,0,0,0,341,187V338a79,79,0,0,1-158,0V277.8A90.113,90.113,0,0,0,267,188V104a6,6,0,0,0-6-6H233.116A21.03,21.03,0,0,0,213,83H203a21,21,0,0,0,0,42h10a21.03,21.03,0,0,0,20.116-15H255v78a78,78,0,1,1-156,0V110h21.884A21.03,21.03,0,0,0,141,125h10a21,21,0,0,0,0-42H141a21.03,21.03,0,0,0-20.116,15H93a6,6,0,0,0-6,6v84a89.949,89.949,0,0,0,84,89.78V338a91,91,0,0,0,182,0V187a27.035,27.035,0,0,1,10-20.96V169a16.964,16.964,0,0,0,22.425,16.1A20,20,0,0,0,425,181V127A20.023,20.023,0,0,0,405,107Zm-192,6H203a9,9,0,0,1,0-18h10a9,9,0,0,1,0,18ZM141,95h10a9,9,0,0,1,0,18H141a9,9,0,0,1,0-18Zm239,79a5.006,5.006,0,0,1-5-5V139a5,5,0,0,1,10,0v30A5.006,5.006,0,0,1,380,174Zm33,7a8,8,0,0,1-16,0V127a8,8,0,0,1,16,0Z"/></svg>